<mxfile host="app.diagrams.net" agent="Mozilla/5.0 (Windows NT 10.0; Win64; x64) AppleWebKit/537.36 (KHTML, like Gecko) Chrome/128.0.0.0 Safari/537.36" version="24.7.12">
  <diagram id="C5RBs43oDa-KdzZeNtuy" name="Page-1">
    <mxGraphModel dx="1707" dy="1595" grid="1" gridSize="10" guides="1" tooltips="1" connect="1" arrows="1" fold="1" page="1" pageScale="1" pageWidth="827" pageHeight="1169" math="0" shadow="0">
      <root>
        <mxCell id="WIyWlLk6GJQsqaUBKTNV-0" />
        <mxCell id="WIyWlLk6GJQsqaUBKTNV-1" parent="WIyWlLk6GJQsqaUBKTNV-0" />
        <mxCell id="zkfFHV4jXpPFQw0GAbJ--0" value="Carpa" style="swimlane;fontStyle=0;align=center;verticalAlign=top;childLayout=stackLayout;horizontal=1;startSize=26;horizontalStack=0;resizeParent=1;resizeLast=0;collapsible=1;marginBottom=0;rounded=0;shadow=0;strokeWidth=1;" parent="WIyWlLk6GJQsqaUBKTNV-1" vertex="1">
          <mxGeometry x="220" y="120" width="160" height="164" as="geometry">
            <mxRectangle x="230" y="140" width="160" height="26" as="alternateBounds" />
          </mxGeometry>
        </mxCell>
        <mxCell id="zkfFHV4jXpPFQw0GAbJ--1" value="- capacidad: int" style="text;align=left;verticalAlign=top;spacingLeft=4;spacingRight=4;overflow=hidden;rotatable=0;points=[[0,0.5],[1,0.5]];portConstraint=eastwest;" parent="zkfFHV4jXpPFQw0GAbJ--0" vertex="1">
          <mxGeometry y="26" width="160" height="26" as="geometry" />
        </mxCell>
        <mxCell id="zkfFHV4jXpPFQw0GAbJ--2" value="- ubicacion:string" style="text;align=left;verticalAlign=top;spacingLeft=4;spacingRight=4;overflow=hidden;rotatable=0;points=[[0,0.5],[1,0.5]];portConstraint=eastwest;rounded=0;shadow=0;html=0;" parent="zkfFHV4jXpPFQw0GAbJ--0" vertex="1">
          <mxGeometry y="52" width="160" height="26" as="geometry" />
        </mxCell>
        <mxCell id="zkfFHV4jXpPFQw0GAbJ--3" value="- cantidadCarpas:int" style="text;align=left;verticalAlign=top;spacingLeft=4;spacingRight=4;overflow=hidden;rotatable=0;points=[[0,0.5],[1,0.5]];portConstraint=eastwest;rounded=0;shadow=0;html=0;" parent="zkfFHV4jXpPFQw0GAbJ--0" vertex="1">
          <mxGeometry y="78" width="160" height="26" as="geometry" />
        </mxCell>
        <mxCell id="iyiYM5U0Cmwwc9J9n_ha-25" value="- precio:float" style="text;align=left;verticalAlign=top;spacingLeft=4;spacingRight=4;overflow=hidden;rotatable=0;points=[[0,0.5],[1,0.5]];portConstraint=eastwest;rounded=0;shadow=0;html=0;" vertex="1" parent="zkfFHV4jXpPFQw0GAbJ--0">
          <mxGeometry y="104" width="160" height="26" as="geometry" />
        </mxCell>
        <mxCell id="zkfFHV4jXpPFQw0GAbJ--4" value="" style="line;html=1;strokeWidth=1;align=left;verticalAlign=middle;spacingTop=-1;spacingLeft=3;spacingRight=3;rotatable=0;labelPosition=right;points=[];portConstraint=eastwest;" parent="zkfFHV4jXpPFQw0GAbJ--0" vertex="1">
          <mxGeometry y="130" width="160" height="8" as="geometry" />
        </mxCell>
        <mxCell id="zkfFHV4jXpPFQw0GAbJ--5" value="ocupar()" style="text;align=left;verticalAlign=top;spacingLeft=4;spacingRight=4;overflow=hidden;rotatable=0;points=[[0,0.5],[1,0.5]];portConstraint=eastwest;" parent="zkfFHV4jXpPFQw0GAbJ--0" vertex="1">
          <mxGeometry y="138" width="160" height="26" as="geometry" />
        </mxCell>
        <mxCell id="zkfFHV4jXpPFQw0GAbJ--17" value="Address" style="swimlane;fontStyle=0;align=center;verticalAlign=top;childLayout=stackLayout;horizontal=1;startSize=26;horizontalStack=0;resizeParent=1;resizeLast=0;collapsible=1;marginBottom=0;rounded=0;shadow=0;strokeWidth=1;" parent="WIyWlLk6GJQsqaUBKTNV-1" vertex="1">
          <mxGeometry x="508" y="120" width="160" height="216" as="geometry">
            <mxRectangle x="550" y="140" width="160" height="26" as="alternateBounds" />
          </mxGeometry>
        </mxCell>
        <mxCell id="zkfFHV4jXpPFQw0GAbJ--18" value="Street" style="text;align=left;verticalAlign=top;spacingLeft=4;spacingRight=4;overflow=hidden;rotatable=0;points=[[0,0.5],[1,0.5]];portConstraint=eastwest;" parent="zkfFHV4jXpPFQw0GAbJ--17" vertex="1">
          <mxGeometry y="26" width="160" height="26" as="geometry" />
        </mxCell>
        <mxCell id="zkfFHV4jXpPFQw0GAbJ--19" value="City" style="text;align=left;verticalAlign=top;spacingLeft=4;spacingRight=4;overflow=hidden;rotatable=0;points=[[0,0.5],[1,0.5]];portConstraint=eastwest;rounded=0;shadow=0;html=0;" parent="zkfFHV4jXpPFQw0GAbJ--17" vertex="1">
          <mxGeometry y="52" width="160" height="26" as="geometry" />
        </mxCell>
        <mxCell id="zkfFHV4jXpPFQw0GAbJ--20" value="State" style="text;align=left;verticalAlign=top;spacingLeft=4;spacingRight=4;overflow=hidden;rotatable=0;points=[[0,0.5],[1,0.5]];portConstraint=eastwest;rounded=0;shadow=0;html=0;" parent="zkfFHV4jXpPFQw0GAbJ--17" vertex="1">
          <mxGeometry y="78" width="160" height="26" as="geometry" />
        </mxCell>
        <mxCell id="zkfFHV4jXpPFQw0GAbJ--21" value="Postal Code" style="text;align=left;verticalAlign=top;spacingLeft=4;spacingRight=4;overflow=hidden;rotatable=0;points=[[0,0.5],[1,0.5]];portConstraint=eastwest;rounded=0;shadow=0;html=0;" parent="zkfFHV4jXpPFQw0GAbJ--17" vertex="1">
          <mxGeometry y="104" width="160" height="26" as="geometry" />
        </mxCell>
        <mxCell id="zkfFHV4jXpPFQw0GAbJ--22" value="Country" style="text;align=left;verticalAlign=top;spacingLeft=4;spacingRight=4;overflow=hidden;rotatable=0;points=[[0,0.5],[1,0.5]];portConstraint=eastwest;rounded=0;shadow=0;html=0;" parent="zkfFHV4jXpPFQw0GAbJ--17" vertex="1">
          <mxGeometry y="130" width="160" height="26" as="geometry" />
        </mxCell>
        <mxCell id="zkfFHV4jXpPFQw0GAbJ--23" value="" style="line;html=1;strokeWidth=1;align=left;verticalAlign=middle;spacingTop=-1;spacingLeft=3;spacingRight=3;rotatable=0;labelPosition=right;points=[];portConstraint=eastwest;" parent="zkfFHV4jXpPFQw0GAbJ--17" vertex="1">
          <mxGeometry y="156" width="160" height="8" as="geometry" />
        </mxCell>
        <mxCell id="zkfFHV4jXpPFQw0GAbJ--24" value="Validate" style="text;align=left;verticalAlign=top;spacingLeft=4;spacingRight=4;overflow=hidden;rotatable=0;points=[[0,0.5],[1,0.5]];portConstraint=eastwest;" parent="zkfFHV4jXpPFQw0GAbJ--17" vertex="1">
          <mxGeometry y="164" width="160" height="26" as="geometry" />
        </mxCell>
        <mxCell id="zkfFHV4jXpPFQw0GAbJ--25" value="Output As Label" style="text;align=left;verticalAlign=top;spacingLeft=4;spacingRight=4;overflow=hidden;rotatable=0;points=[[0,0.5],[1,0.5]];portConstraint=eastwest;" parent="zkfFHV4jXpPFQw0GAbJ--17" vertex="1">
          <mxGeometry y="190" width="160" height="26" as="geometry" />
        </mxCell>
        <mxCell id="zkfFHV4jXpPFQw0GAbJ--26" value="" style="endArrow=open;shadow=0;strokeWidth=1;rounded=0;curved=0;endFill=1;edgeStyle=elbowEdgeStyle;elbow=vertical;" parent="WIyWlLk6GJQsqaUBKTNV-1" source="zkfFHV4jXpPFQw0GAbJ--0" target="zkfFHV4jXpPFQw0GAbJ--17" edge="1">
          <mxGeometry x="0.5" y="41" relative="1" as="geometry">
            <mxPoint x="380" y="192" as="sourcePoint" />
            <mxPoint x="540" y="192" as="targetPoint" />
            <mxPoint x="-40" y="32" as="offset" />
          </mxGeometry>
        </mxCell>
        <mxCell id="zkfFHV4jXpPFQw0GAbJ--27" value="0..1" style="resizable=0;align=left;verticalAlign=bottom;labelBackgroundColor=none;fontSize=12;" parent="zkfFHV4jXpPFQw0GAbJ--26" connectable="0" vertex="1">
          <mxGeometry x="-1" relative="1" as="geometry">
            <mxPoint y="4" as="offset" />
          </mxGeometry>
        </mxCell>
        <mxCell id="zkfFHV4jXpPFQw0GAbJ--28" value="1" style="resizable=0;align=right;verticalAlign=bottom;labelBackgroundColor=none;fontSize=12;" parent="zkfFHV4jXpPFQw0GAbJ--26" connectable="0" vertex="1">
          <mxGeometry x="1" relative="1" as="geometry">
            <mxPoint x="-7" y="4" as="offset" />
          </mxGeometry>
        </mxCell>
        <mxCell id="zkfFHV4jXpPFQw0GAbJ--29" value="lives at" style="text;html=1;resizable=0;points=[];;align=center;verticalAlign=middle;labelBackgroundColor=none;rounded=0;shadow=0;strokeWidth=1;fontSize=12;" parent="zkfFHV4jXpPFQw0GAbJ--26" vertex="1" connectable="0">
          <mxGeometry x="0.5" y="49" relative="1" as="geometry">
            <mxPoint x="-38" y="40" as="offset" />
          </mxGeometry>
        </mxCell>
        <mxCell id="iyiYM5U0Cmwwc9J9n_ha-0" value="" style="shape=image;verticalLabelPosition=bottom;labelBackgroundColor=default;verticalAlign=top;aspect=fixed;imageAspect=0;image=data:image/png,iVBORw0KGgoAAAANSUhEUgAAAkcAAADPCAYAAAD/P3VrAAAAAXNSR0IArs4c6QAAAARnQU1BAACxjwv8YQUAAAAJcEhZcwAADsMAAA7DAcdvqGQAAP+lSURBVHhe7J0JXFRV+8d/zMqw77IIyCIoiCLjhiwKuYu55ZLWW7mUpuVb5pa7qNVb9qpplmkqKAm5IaIoIKElJW6IIKZmKIbigooIyAzP/84CzMDAXFD7a+/9fj5TzPXcszzbeeaee+8xIAZwcHBwcHBwcHAo4an/z8HBwcHBwcHBwcAlRxwcHBwcHBwcGnDJEQcHBwcHBweHBlxyxMHBwcHBwcGhAZcccXBwcHBwcHBowCVHHBwcHBwcHBwacMkRBwcHBwcHB4cGXHLEwcHBwcHBwaEBlxxxcHBwcHBwcGjAJUccHBwcHBwcHBo0ITmqQmHyKsydPRsffxaPP+Tqw1qU42TUAsyZPRdrDt9UH2smsnPYvnge1qQVMS03H1l2DBbO+xrpt5haZNmIWTgPX6ffeqI6OdghOxONBfO+wdHi51PaT6N/snPbsXjeGqQVPZGVIjtmIeZ9nQ6Fmf6/I8tFXOQ8rE698Tf7iQxnohdg3jdH0WyVvGA+/rD4HjNqjmeNLDcOkfNWI/VGrVU877Ivz0/DdwvfwciBvRDeawCGvTUDX+7Kxj0Nw9Y1Lr08LMa9F8jo/t/mEcXeauyopNPzO5CQOcVAGEALsyrVxzUo2UtvOfIJEJJ0yTn1wWZStoPGWIqoU2QOydSHmkNp7EgyE3WjT/KYWkpjaaSZiLp9kvdEdXKwo3TrUDIShdAXfzyf0n4a/SvbMYYsRZ0oMueJrJRiR5qRqNsnpDDT/3fK9tC/bEUUsDCL8fq/k1LaOtSIRCFfULNV8sL4eBn9sjyM3Aeupb/k6kMcz4yyPf8iW1H1vPX8y770+HLqYc0nQ0cpDRj9Fo0f/xoNDnQlY54htX5jO+WrjVt7XPop+2U5hbkPpLUvkNH9f80jTV9WE7aAvUUOEnbl1su6H6buxMFHpjDnFus4OF5cDAdjS1EFTi5qD4H6EMfTphznfz6GgnJu3++/A8PBW1BUcRKL2iss+jmXfdVNbI/8FMesJ2DX2eNI/OF7bNgQjT3HziF9SSfc3DYDy5IfKYtqj0s/5ed/xrGCcnBWpx/+Igb133qowo209fjuV2+MGlKK5KOGGDK+J1rUJEIlSFz+AQ649kX7SzkoD52Et3vYqf6p6j5+T9uJH2J3IeFgOk5eLoFZK0+0MFKcLMO57ZFYm2UK9/tJWLflIPLK7dGm1U0krNiJO4ET0F+Qgo2bdiEt5w6MXLzgaKKZfclxKysB26JisTf1JK6UW8Hd0waG6n+tzNmBFbvvI2TyOASbn8eOFbtxP2QyxgXbqNYUG+1bw8hvZSFhWxRi96bi5JVyWLl7wqa6UQWymzidEIvtO+JxKCMPt/j28HA2b2CyUSyrLMZXR3nwk7aCsYH66JloLFqTAUHHALhK5MiNW4avTpkh0OEG4rdsRtz+Y7hYagUPT1sYqs9RUHX/d6Tt/AGxuxJwMP0kLpeYoZVnCzQ+JBmKzjByjI5j5HgC+ZU28HC3hlj9r6zk9PASkrdtQszeI/i93A7uj1Kwau8jhE19E90t1eXkt5CVsA1RsXuRevIKyq3c4VkjOBnLMVbh/u9p2PlDLHYlHET6ycsoMWsFzxZGja8TP3H/6iM7vwsrdt5B4IT+EKRsxKZdaci5YwQXL0domWmj8qtEzo4V2H0/BJPHBcOmKhdxy77CKbNAONyIx5bNcdh/7CJKrTzgaWsIDVXrt0M9elMsC0auzYKp+30krduCg3nlsPd8jJTPVyFV5oPO7ibq9h6j8PhuRDP2sS/tFP4st9TyM4Xubp5OQOz2HYg/lIG8W3zYezjDXE/MfngpGds2xWDvkd9RbueORymrsPdRGKa+2R0qlTTu3/WozHlqPi4rOsPINhpxjGxP5FfCxsMd1jUOwUik8Dh2RzP/vi8Np/4shyXrGFCCjA1LsSEhAxfvylFRVAxxu05wMzFopu+W4nJqDDZti0d6XinTTxGOf70Ch+Ud0clVory1YPFXR8Hzk6JVbXBB9KI1yBCoyqhooqwVy6+s7JRNvXriD4s6ZDdPIyF2O3bEH0JG3i3w7T3grDZAxfLTslWpkPm0wc3ty3TKvsl2oljCXfwVjvL8IG1lrB6vYml4EdZkCNAxwBXC80y7X52CWaADbsRvwea4/Th2sRRWHp6w1QzamsjzsPOzb3HcczK+HN8R1doBRHBsb4N7ZwrAaxOG3u3MUVUzrs5wV4yhET8sydiApRsSkHHxLuQVRSgWt0MXNxPmnMZlq5TdmjOw6NoC13ZvwqYfD+FUoRiubVvCtPIqjv6wEVt2pSK72Aye3vaQ1Azr+YnTzUJ9BYkF6mU1o6G0Mf4dchHXuZR3bweNtW9J42PXUYRYY1mtPItWD3AikZEjdQjtRb1CO5CjhEdClzEUU6C4tFdGO8ZYktjTl7ztvSgwVErSibvornJZTUBO7TuQvbkT+XfvRm1sxSS07UlLjz1Q1S2/Q2kLQslOaESO7YIoLMSP7CVich28hrLKVEUaXVbT2zddyOlO2gIKtROSkWM7CgoLIT97CYldB9Oa6kYrztKqPi1IaOFOXcJ6U1gnFzLhm5F0bjqVqErUQfeyivblxDLa8y9bEnfsT32drchVGko9AlqSEc+QvN5JoCJ1d8uzVtMAJxHTtw4U2qsXhXZwJAlPSC5jYqjhIf1FCf+WkgXfiJz8QymsqwdZCCTk9Vas6vItCzlVXvieRrgx+rFwo05Bnam1tRX5dvAgocblUPmdNFoQasfYkCO1CwqjED97kohdafCaLGZ0CtiMsZyyVg8gJxGj8w6h1KtXKHVwlBBP6EJjYgoY7ejm6fSvPsplNYETte9gT+ZO/tS9WxuyZezftudSqjZT/fKro3/lspaYOvbvS85WriQN7UEBLY2IZ+hF7yQUqcfIwg5Z6E3Zf7En+Xrbk1dgKEmlE2nXX3WW1WT5tHOyP5nzjck5oCeFd/cma5GInAd+SZlKg66gs6v6UAuhBbl3CaPeYZ3IxYRPZtK5lK7b4Bkq6cL3I8iNkZWFWycK6tyarK18qYOHsHZZjYV/1+Mp+fhfCf8mqQWfjBidhoZ1JQ8LAUm83qJYpUPIKH/nZPI355OxcwD1DO9O3tYiEjkPpC9VAtETA4rp0NLRFOjEJ75jFxo6di7tvCpvnu9WXqKoMZ4kEdlRu/AB9JK/I1n7hjF1G1LIF38oi2jFwGpKt9JQI1FNmWbJmo2dsqlXX/xhUUfF2VXUpwVjS+5dKKx3GHVyMSG+mZTmqg2wdvnplk7ZN8tOdC7hai8NK9sVd6T+fZ3JylVKoT0CqKURjwy93qGE6qBdjweUML4l8cXuNGhBNB3940GDcU17Wa1xPyw+tJRGBzoRn+9IXYaOpbk7r7KSrbINo47UJ7wl2bYOpLAgLybmCcl19AKaEepEDj5B1EPqTMY8I/Kf84vqpOcsTjeHZiVHW+8k0yRXsdY9CcVxr1ILl4m0/8YmGqSRHN3eOpwshd40NeWu8ruCB0enk6/QkPqsK2S+qZIjnrAdzTj2UFVAgTI54hHffgCtOqMycPnNFJouNSbDTktIYQslSZPITehEw9bnUPWZDzKXU09LI+q6LFv5vbHkSH/fdFCSRJPchOQ0bD3l1DZKy3taklHXZZTN9Ksi/X3yEHnTB0dK1QVK6NhsKdl4vUv7NIZYC/vkiMd3plHRfzCmp+AuJU3yJIHxQNpQpPh+m7YOtySh91SqHdIDOjrdl4SGfWhdoW6TfLBvPDkLbajvyrNMTxRU0MVvIhiHcaOph8v1y0l+g7YMtSJhq9G09VKF8t9l1xNpip8hGQir+1/C9NWNhE7DaH2t4ChzeU+yNOpKyxSCYzPG21tpuKWQvKemMP+i5sFRmu4rJMM+60jnEJ9a/+qjTC54fLIfsIpUZiqnmynTSWpsSJ2WZCnL6LczXckRY/vOoyj6D5UU6C5jd54CMh64gZSqZmGHbOxb1X8htZtxrMaHVO1XJ0dyKowaRjYCRxryba46+MipKPUjZoxi8pudoTB4et9DRN4fHFHbD9O9Y7NJauNF7+o2eEYlW2iolZBajd5KKpXI6HriFPIzNCChemJh49/1eBo+/mAfjXcWkk3flXRWPaCKi99QBJOIuk09TI8Ko2iYjYAch3xLuepoLC9KpY+Y2CT2m00ZjMr0x4Bi2jBATKKX1qjve2mO7zK2xozPRuhOb+y4qorFjK0nvd+eDA2ETUqOmiVrFnbKpl598Ud/HRWU/r4Hibw/oFpxH6PZUhvyenef8hztJKKu7JtpJ2yTIyY+OI+KploRTSJPgTENVAVtnciL0mjpADcyMgAZGIjI0r0T9XvtQ/ps2zG6rgphSrTGxcIPizcMILHoJVqjHjgb/VSPoeXIrfSn0shKKGWKBwkMxOQ/PY1uK6qSF9H2UcyPAbcpigIKgT5Xcbo5NH5duSEMg/HKAAfkJOxCrvLGo3s4tDMVkgEj0MNIWaIG84ErkJ6xF4vCLNVHqmBg7wQHgRz3i++rjwG8lj0xIMBY/a0aPrz+NR+TOigu/TFl7F7CnKkvQZiVgITfS5H+YzwK7Hugn88DZP/6K35lPjmybnjJHzi1N0F5TmOw7Zsm5ek/Ir7AHj36+eBBtqrNX3Nk6KZqFAmX5eBZWMKc8rHvv59hc3I2blaYIPCTE7h1YS0G1h1iE+E7RWDiCDf15WZLhIQFwPjxTRTeUjw+aI6BK9KRsXcRaodkAHsnBwjk91F8X9dKcwV+iU/CDYfhmP6OH1TqE8Fz/HqkZRzAvK5i/XIqScXewyXweX0WRnmIlCX4jv0wb0qP2kus5en4Mb4A9j36wedBtkpuv+ZA1u0l+OMU9iZcVhfUM0bzgViRnoG9i8KYf1FRZWAPJwcB5PeLoXOIT7l/9eB74V/zJ0FlpjzYvTQHU18SIitBZYPNsTOmUjhFTATzK0r11TIEYYx/PL5ZCIUY2Ngh63Z5LdFzACNj9Vdt7iN5dwrut30L88a1VV9q58E2fC4+GmCEvD07ma8WsDQn5O/7Lz7bnIzsmxUwCfwEJ25dwNoGDL4kdS8Ol/jg9VmjoFIJH4795mFKD4l6eaL8if1bQXNkX/FLPJJuOGD49Hfgp45nIs/xWJ+WgQPzuqI8eTdS7rfFW/PGoa36Sj7PNhxzPxoAo7w92HnqcTNiQHN8txSH96QyuhmD9wY7q5bseS3Q++P3EM7Mqux5Elk3Zqds6tUXf4hFHTxYWJqD8vfhv59tRnL2TVSYBOKTE7dwYe3ABuxam+b5KEv4ToiYOAK1IgpDgPFj3Cy8pTqgA55tT8xNzMMfjC+vWzgRfVpVInvPKsx+LRg+Xd/Frqs6Hhdvsh82Qe88e/R/6xW4Ko3MBAH+XuAL2mP4uBBYK7IInhX8O7jBoPiOosDzGaebSPOSIyZEBr0yAA45CdilyI6KD2DHYRMMHBGqNu5aBBb2ML2Xgi/eHo6+IQHwdrKElc8spFcAVFX7aB7PyhY2fPWXGvho1dqbcZVaTN1awQ43cO3abeTn30HltRi8HRyIwMDqTzjmpz1C1c0C9RkNw7ZvtVThXn4+7lReQ8zbwRptBiJ8fhoeVd1EwXUZBO2mYfWy/hCkLce4Ph3Q0tYVnQdPxcrUq3isrqm5GFhry4knEkNgQJDLFdYmgIW9Ke6lfIG3h/dFSIA3nCyt4DMrnQlBBJ1DwiMUFNwGnD3gLlQfUiBwgI/UGy0YheqTk/zGVVx/xIOzm5vGPVU8WLb2gJ3awqru5SP/TiWuxbyNYA25BYbPR9qjKtwsuK4qyNDoGAUWsDe9h5Qv3sbwviEI8HaCpZUPZqk6w2ioPk+7f/Xgt0Jrby0rhVsrO+DGNeW3ptuZAgNY29owHlANDyKxAAYkh5wZJys7ZNsuE9hs6zufCvlNXLteBr67F7xrhcdgAs/WTswYGT8TtMO01cvQX5CG5eP6oENLW7h2HoypK1NxVafBy3Hj6nU84jnDzU2jUp4lWnvYqYJS1b0n9m8FzZH9o4IC3IYzPLQdAg4+Uni3EOPmteso47vDS1sgMPFsDScmNjUvBjTDd+W3UFBYCp6jC1ppidELnvYN6FMXTyTrRuxUzqZePfHHkE0dArSbthrL+guQtnwc+nRoCVvXzhg8dSVSdRtgPZrnoywxsNb2L54IYoEBSK4jwdFChBb+g/DOwjXYnnoGBTf/QNrKEWhxfj2mzI3HPXWpGprqh03Ru4EN7DVsisdn/jYwhYVFbRIuECj+XZ31PI9xuok0Mzli0qOgVxDhqHhqLQc39+9EmkUERgSpU+MaqnA1+jUE95+NXdet0Yn5hTH/m0ScvbQeEXXvnTLggVfvxw6hvKxMS5BVD0sZdzKGmZkhDMU8CDsvRa5MuTyo9ZFdWas+oyGa0LcaeBAbisETdsZSJims2ybJrmBtOCMDJsgHzdiF3MJ8ZCZ8hyUTgmGSE4XpES8j8ngDzmrADJ5xQs2EuqK8gpkI1V+qYco1+Juw6iqimV8W/WfvwnXrTsyvlfn4JvEsLq2PqHPzoyYiSAwZUyx7hEeabVUV4/KZbOQXP9YrJwMjIyazJ5Q+fKht9Ez/H6vr5IkNIeYJ0XlpLmR15UYyXFkbriqooJExVl2NxmvB/TF713VYd4rAxPnfIPHsJaxvWGlPv391oXKUlWlZKR6WPgKMzZR/N93OVBgobEInbOxQ2IR2DcCr73wqDCSMfRigqvQhHmoJT46HD0qZQKC4XZQJYEEzmB9KhcjPTMB3SyYg2CQHUdMj8HLkcR3JgAGMjCTMBFqKh9qVMip5rPIBnvgJ/VtB82QvkhgywbkMj7QdAsWXzyA7/x6EzL8bVNXvu/zhA5QyniYxZMJqU2NAc3yXbwIzEz6otAQlml2hMkaOmn1X+BMzIWkeqihHRXVweUJZN2inrOrVE3/u81n1jWcZhBm7clGYn4mE75ZgQrAJcqKmI+LlSDQUcmt5Eh9lztYWLCN7uVYcV8q/IVfWweP0GWhv5YoJCaon0mowckGP97/GzF4i3Mk6hUv13lXURD9sit4N+EyMUP/NgucyTjeRZidHEHfH8Agn5CZE4esf02EVMQKB9XKjIiRGJaDI9wPEJqzHslmT8dqgYLhdz8UFRlNVejNyGc4d/Qm3a4qV4tdDR3HbQoqu7awRIG0DnEtEfJ6GlcgvY/OkQRixcL/6QAM0s2+mAVK0wTkkxucxvatGjsubJ2HQiIXYf0uGW0mRGDtyEZIrHSGNGI85X25Dyt6ZCJDnIfOMrku0PBgykx3du43bNT8mHuH06TymZvZUFSUiKqEIvh/EImH9Msya/BoGBbvheu4FxjGY4KhzSIboKPWFwe9HkV5Q25o8PwoTgwIxcVuOXjnxWnRFZw/CmZSDqH0XWTlOp2eg5t2IpgFQqSse2urajEmDRmDh/oYvMddShaLEKCQU+eKD2ASsXzYLk18bhGC368hVdUbbqdQ88/7JzuHoT7dr2y79FYeO3oaFtKtCKU/oA7rRa4c3bzyddnkO6BTgCjqZhMRCjXPKT+FAWgGEPgGoupWEyLEjsSi5Eo7SCIyf8yW2pezFzAA58jLPoL7F89Cia2d40BmkHNR40WT5aaRnVL/01fTJ/FtBM2Vv2FEKX4PfcTS9oNb/5PmImhiEwImx4AUEwJVOIimxUMPeynHqQBoKhD4IaC9gEQMUCanqTAXN810rdO3mA5w9hKRrtQUqzqTh2M1aX+YZMhMK3cPt2uCCR6dPI6/m61OQtU7Y1Ksn/vzwSH8dVbeQFDkWIxclo9JRiojxc/DlthTsnRkAeV4m6odcbdk320d5ih/ohHu3b9fayaPTOF0r2GYh8OmA1gbXsefr75FXoT5YTel55F2RQeLqDuc6szcbPzTQGviz0vtzGqebSPOTI4gR+EoEWmavwxepthg8oovW8pcSnimcXWxAlxOxYfvPOHvuBFKiF2Lkv9bhIvPPFRVlqnINwhjevlkYPet77D+ciE1zhuG1b26g07QPEGEqQPsJMzDMKhNLhryCBZv34XDKj/hywiuYtjETla5M0GiMZvZN0H4CZgyzQuaSIXhlwWbsO5yCH7+cgFembURmpSt8rASwtAcuJn6GKW8uww/JP+OXwzvx38ityDHsgpeCrdQ1aSJCx24BkFyOxscfb0HST0mIXjgGk+PuQNQEDfFMneFiQ7icuAHbfz6LcydSmHpG4l/rlCNCRZn27xkVfLR560MMtziCBSOnYG18GtL2rsO/xy7FLy1GY+qrnvrlJOqEyTMGQrx/Ol5+ZxV2HdzPtDsKY1efr524Be0xYcYwWGUuwZBXFmDzvsNI+fFLTHhlGjZmVsLVR5dc6sKDqbMLbOgyEjdsx89nz+FESjQWjvwXVEOsgM4hPuv+MRPPvlmjMev7/TicuAlzhr2Gb250wrQPIp6CD+hGrx3amD+ldkXoPuUj9BEewIzB72DVrsM4khSNBSPGYtVlD7w1Ywzzq11p8PhsyptY9kMyfv7lMHb+NxJbcwzR5aVgZgqvj6jTZMwYKMb+6S/jnVW7cHA/o8dRY7H6fLVGntC/FTRT9vw2b+HD4RY4smAkpqyNR1raXqz791gs/aUFRk8dBdfgKfiojxAHZgxW9v3wEcZfF4zA2FWX4fHWDIxxYRMDxDA1laAqLwnfbT2AHJlTM3xXAL93ZmOUxWHMHjweK3YkYf+2xRg9djVU94KqEHXshgDJZUR//DG2JP2EJEYGYybH4U5NcHkKstYJm3r1xJ9Rzvrr4FnCntFo4mdT8OayH5D88y84vPO/iNyaA8MuL6F+yNWWffZ94+b5iqgjugVIcDn6Y3y8JQk/MX6xcMxkxN0RPcnECp7tSCxe9BL4yR8guOswTFu2FpuituDbz2didI8hWHWtPd6bPVLjNToq2Pih2NQUkqo8JH23FQeyS56R3p/TON1UiDUaT6tV3wpfnk7TPAUk8JlFv1XfQf9A+2k1eWEyLRnqT44mQhIaWpJb1xE0Py6VPu0pIfNBG5kSqqfVRJ0iSeslw8qn1Qypz4KNNC3MgyzEYjJ36UqvfZFONzXudC/N3U4zhwSQs4WYBEITsvftTVM2nKJ71f/eyNNq+vvWAKW5tH3mEApwtiCxQEgm9r7Ue8oGOlXdKFXQ5d1zaajUhem3gIQSa/Ls/ipFHriq8VRDHSou0Y4ZA8i3hRFT3oa8e/+bon/4kHwk2k+riQIWKp/Uq6Zs9+tkLZLSorOKg3IqTF5CQ/0dyUQoJENLN+o6Yj7FpX5KPSXmNGjjDdVJOijNiaHpEe3JyVTE6NiO2vb9gLblqBTNTk736NTGqdS7rR0ZiyRk23YgzZw9jJwMq/uvoJRyt8+kIQHOKrmY2JNv7ym0oUZwLMYoL6TkJUPJ39GEhEJDsnTrSiPmx1Hqpz1JYj6INt7Q9RiEgqfRv/oon/Yy7EMLNk6jMA/GHsTm5NL1Nfoi/SajDRX65afrabW6b6guo92vW5NIuoiUqlagxw7Z6E3Z/7pv+NbR/oOsLTRtgB85MvYhMrYj755v0WfJBTX/XnF5N80dKiUXpR9KyNqzO70aeYCualRbj3unaOPU3tTWzphEEltqO3AmzR7mRIYab8jW59/1eGo+nkMx0yOovZMpiYRGZNe2L32wLafmKSBGILRl2gDyc2T+XWRMdt496a3PkqmgRmH6YoCcbifNpO4OEuLzHWh8Ymmzfbfs/Haa3t+H7CQiMnHqTP/6Yhb1Yf6ueUyf6culHTNogG8LMmJ0Y+Pdm/4d/QN96CPRKNMMWbO0Uzb1NhZ/FOito+Iy7Z47lKQuKl+QWHtS91cj6YDaALWfVqsr+7Jm20nFpR00Y4AvtTBi2rTxpt7/jqYfPvQhiebTajXtqinbTa9bi0i66Kz6gC7K6GL8UnqzV3tysZSQkM/4t60HdR36IX332+2a2FK3fn1+KL+dRDO7O5CEzyeH8YnKY/pkq2sM976PILEonL66Xt0TGV36TxCJLEapvj5ncbo5GCj+o86TODg4ODhedB5twzDbcbi9JA9HprupD3JwcDSFJ7n6x8HBwcHBwcHxj4NLjjg4ODg4ODg4NOCW1Tg4ODj+SVQV4nTqWTxu3QNdW+l5Fp2Dg0MnXHLEwcHBwcHBwaEBt6zGwcHBwcHBwaEBlxxxcHBwcHBwcGjw3CZHD4vv1bz4SZYbh8h5q5Fa+9pMNVW4e+QbzJuzCFEnH6qPPV1kZ6KxYN43OFrcwFtSnwoyZMcsxLyv03HrKTajLbdn08az5O+R/f8Cf4d9cTxbZDgTvQDzvjkKpTvIchEXOQ+rUzXeMK6Ph8W4VxtUm36+As06niUa7TzPdsbFqH8uz2FyVI5jn4Sjw+sxNYFcdjERX32+BUdr3iGuRnYe38z8EGt/MYSfr2rn/qfN45zdWPF5DI7fe5a3Zj3G+fiV+Dw6A3efYjPacns2bTxL/h7Z/y/wd9gXx7PlMXJ2r8DnMcehdAfZRSR+9Tm2HK3ebqVxyo99gvAOryOmNqg26XwF9ep4RtRt53m2My5G/XN5LpOj8z8fQ0F5rbEZDt6CooqTWNReexdsWV4azpn9C19tnoGO3EMZ9WhIbhwcTwPOvv4fMRyMLUUVOLmoPdhIv/z8zzhWUF67IWoTz1dQr45nRN12ODvj+P+Av4hB/Tc7Sv/A4e2bsW0Pk5jcM0crs2xs/E88ir27wtNMvfWw/BayErYhKnYvUk9eQbmVOzxtNLIX2U2cTojF9h3xOJSRh1t8e3g4mzNOWoKMDUuxISEDF+/KUVFUDHG7TnC++iOWrUqFzKcz3E1UbTwuPI74gxcgtzSG7H4FLN09UdOE4pLxsq9wyiwQDjfisWVzHPYfu4hSKw942hqi0Q2SH15C8rZNiNl7BL+X28H9UQpW7X2EsKlvorulKpeU38pCwrYoxO5Nxckr5bDSbLsBqu7/jrSdPyB2VwIOpp/E5RIztPJsASNllZXI2bECu++HYPK4YNioU9bSy6mI2bQN8el5KLXxgOj411hxWI6OAa6QyLMRs/grHOX5QdrKWD0mxaX3RViTIVCWEZ6P05CbTEcbctzKSsC2qFjsTT2JK+VWcPe0qdkFXHZuOyLXZsHU/T6S1m3Bwbxy2LfxhJWIhQwa1HEjsJC9XtvSiQxFZ5hxRscx4zyB/EobeLhbo2af5Kr7+D1tJ36I3YWEg+k4ebkEZq080UKlHN1y8HyMlM9X44RxF1j/EYsNm/fgSM5dSFxbw9FY3VcFeupWILt5Ggmx27Ej/hAy8m6Bb+8BZ/OmTgSN6VK3fdUiQ27cMqw5Y4GuLa5h96ZN+PHQKRSKXdG2pSkqrx7FDxu3YFdqNorNPOFtL1Ham2K5Q9svZbh5OgGx23cg/lAG8m7xYe/hDNVQmteGiscoPL4b0Yz+9qWdwp/lllp2Wg+l/7PQDYMijuyOjkbcvjSc+rNcO44w6NdN4z6kgk2Z+jy8lIxtm2Kw98jvKLdzx6OUVdj7KAxT3+wOyyrFGFchVeaDzu4mjKwaln1JxgYs3ZCAjIt3Ia8oQrG4Hbo4X9U43xDnGd18dcoMgQ43EL9lM+L2H8PFUit4eNrCkFGEzjrcFFfr9eumKfatq52Asv0adiZX2tHqE8boYv0HYjdsxp4jObgrcUVrR2OtX/v6dMvFKDV/W4x6wVA8ys8W2eWt9LqXhARmriQN6kJeNmbk1r0ztRS1oznHVfuuyO+k0YJQOxIaOVK7oDAK8bMnidiVBq/JojJFgYqztKpPCxJauFOXsN4U1smFTPhmJJ2bTiVUTIeWjqZAJz7xHbvQ0LFzaedVeZ29XWSUv3My+Zvzydg5gHqGdydvaxGJnAfSl5klihYUm8HQv2zF1LF/X3K2Yvoa2oMCWhoRz9CL3kkoqtmXpi6VF76nEW5ipm9u1CmoM7W2tiLfDh4kFFXv6yKnO2kLKNROSEaO7SgoLIT87CUkdh1Ma7KUo9NJedZqGuAkYs7pQKG9elFoB0eS8ITkMiaGCpSdqbO3FlXSpagx5CkRkV27cBrwkj85WvtSWKDGvlN19pBSUUpbhxqRSOe+PnXakN+htAWhZCc0Isd2QRQW4kf2EjG5Dl5D1UNR7rsl9iRfb3vyCgwlqXQi7brLQgaN6lg3+mXPwrZ0If+LEv4tJQu+ETn5h1JYVw+yEEjI661YyldUW55Fqwc4kYips0NoL+oV2oEcJTwSuoyhGJVydMvhL4WNiahdWA9GN60ppF8f6uJiTAKbEFp8VL3HD4u6K86uoj4thGTh3oXCeodRJxcT4ptJaW56Q5LSgV5d1rWvuqj2tDPq2IfCW9pS68AwCvKyJIHQlUYvmEGhTg7kE9SDpM7GxDPypzm/qKStbV8VdHZVH2ohtCD3LmHUO6wTuZjwyUw6l1RDaV4bJMunnZP9yZxvTM4BPSm8uzdZi0TkPPBLqnb3eqj3/GpUNyziiF7dsPAhVmXqUUkXvh9BbmKmbbdOFNS5NVlb+VIHD2GNb1ePUbWvWeOyLz60lEYzsYPPd6QuQ8fS3J1X65yv0o24Y3/q62xFrtJQ6hHQkox4huT1TgIVMaaqsw4WummqfetqR9vO1PsvtgujHo7W1DqkH/Xp4kLGAhsKWXxUvR8YizmCi1HK8/62GPUCwj45kt+g6OE2JHQdRVsulCsPyQqT6N8BRmQgrE6OSihpkhsJnYbR+pyHyjJEDyhzeU+yNOpKy7IZN05/nzxE3vTBkepNBUvo2Gwp2Xi9S/uUpxTThgFiEr20hv5S6UbLOeSFUTTMRkCOQ76lXLW1yYtS6SOpMYn9ZlOGomtKx+cR33kURf+h6ivdTaJJngIyHriBilRHtGHGt2WoFQlbjaatl1S76MquJ9IUP0NmfGrjL2HqcBOS07D1VDu8TFre05KMui4jZng6uE1bh1uS0HsqpdxVH2JkcnS6LwkN+9C6QsUgtScv+c2tNNxGSO5v7KCryjrldCPpfWpvaEDCp5QclSRNIjehEw1bn0O1Q1lOPS2NqOuybOV3pcMxSVy7GcdqyrCRgX4d14GN7FnYli4e7BtPzkIb6rvyLCMBBRV08ZsIZrJyo6mHy+n21uFkKfSmqbXKoQdHp5Ov0JD6rCtUftcph2obc3iZ1lVvkFmcQQsCTUkcsIBOM93RX3cFpb/vQSLvD6hWVMdottSGvN7dV9uWHvTrkl1yxOO3pJFb/1RtIlqSQlM8BGQg9qfpaaqNLuVF22kUEyTdphxWlNC2r4p0et9DRN4fHFHLWTGU2SS18aJ3lUpvThtyKowaRjYCRxryba56cpFTUepHJDUWk9/sDOWRerDQjf44ol83bHyITZm6yG9soaFWQmo1eiup3EFG1xOnkJ+m/2smN3plzwx/wwASi16iNbVBtfb8Gt0406joP0gVMe8y/uZJAuOBtEEdMLXrYKOb5tl33b7qSo54fAd6eV31RsDFlLEgkEzFAbSAUS6bOYKLUX9vjHoR0bwK2Tj3D2LnoftoP34+xnipLvbx7ftiwYf9YK78xlCejh/jC2Dfox98HmTj119/ZT45kHV7Cf44hb0Jl8GzsIQ55WPffz/D5uRs3KwwQeAnJ3DrwloMNFbX0wj3k3cj5X5bvDVvHNqqr1TybMMx96MBMMrbg52nHqsOgg+niIlgMn3VV8sQhAUY4/HNQtySqw5pUZKKvYdL4PP6LIzyECkP8R37Yd6UHpCor++Xp/+I+AJ79OjngwfZirExnxwZur3kD5zai4TLuio2x8AV6cjYuwhhlupDVQawd3KAQH4fxffrr+CXHt6DVGaMY94bDGfllUseWvT+GO+FGzW+JMiacqT/GI8C+x7o5/MA2Uo9/YocWTeohpKgLsfAa4meAwJQrRo2MmiyjlnIno1t1acCv8Qn4YbDcEx/xw9GymMieI5fj7SMA5jXVQzzgSuQnrEXi2qVAwN7JzgI5LhffF99jKGOHFTw4fX6xxjno6oZFt3wwdQ+kGQnIv68jEXdPFhYmoPy9+G/n21GcvZNVJgE4pMTt3Bh7cA6bTVEE3SpB559f7z1iqtqWcEkAP5efAjaD8e4EGvlcgXPyh8d3AxQfOeOooQ2PAtYmhPy9/0Xn21ORvbNCpgEfoITty5grYbSm9bGfSTvTsH9tm9h3ri26qUaHmzD5+KjAUbI27NTeUQ3jetGfxyR6dENG7k3TzclqXtxuMQHr88aBZU78OHYbx6m9NBcatSApez1wXeKwMQRbuqlHEuEhDH2/vgmCnUGTDa6eRr2rRu+1+v4eJyP2qct0O2DqegjyUZi/HlWcwQXo/7OGPViwjo5khVcwdVyEVw93LTWZI09W8NRXUvVvXzk36nEtZi3ERwYiMDqT/h8pD2qws2C6xC0m4bVy/pDkLYc4/p0QEtbV3QePBUrU6+iOq1pGDluXruOMr47vLy11ztNmH444QYKrlc/Z2oAa1sbxjSq4UEkFsCA5JDruKNQfuMqrj/iwdlNc3w8WLb2gJ1yfFW4l5+PO5XXEPN2cO3YmE/4/DQ8qrqp0bYmAljYm+Jeyhd4e3hfhAR4w8nSCj6z0hm3IFTVewBDjlsFhSjlOcKllcYYeZbw8rTXGM8TUHUP+fl3UHktBm8Ha+gpMBzz0x6h6maBuiADzwq2NtWtspNBU3WsX/bsbKs+j1BQcBtw9oC7UH1IgcABPlJvtGDihcDCHqb3UvDF28PRNyQA3k6WsPKZhfQKgDSVoyWHagTwaNOGCWW1GLm6wg5/4dpVRg566xag3bTVWNZfgLTl49CnQ0vYunbG4KkrkXpVvzcoaYou9WBgYw/7miHywGf+NjC1gEXNjCyAQPHvul6qL2iHaauXob8gDcvH9UGHlrZw7TwYU1emQnMoTWpDfhPXrpeB7+4FbXc3gWdrJ+BGY2NrTDcVLOIIGtcNG7k3Szdy3Lh6HY94znBz0/b/1h52jMR0wFL2+jCwtoWmifNEYggMCHKdAZONbp6CfTeAwKMN2mgrF652wF/XrrCaI7gY9TfGqBcUnb6mCwMjI0ggw6PSMvURFVRWijK17/DEhhDzhOi8NBcy1ZKdxkeGK2vDmUKWCJqxC7mF+chM+A5LJgTDJCcK0yNeRuRxfcI2gERiCIOqUjx8qJ1VyB8+QCnz+0ViWDskAwOdv7N0ohwfEwhKHz5kUgANyivwWDk+HsSGYvCEnbE0V1ZnbMxHdgVrw1W/ubSouoro14LRf/YuXLfuhIiJ8/FN4llcWh/RwA2ZfJiYmYBPpSgp0ewJoYzpi2aYUgyvqkrzSAXTXbn+p0l4YhiKeRB2XopcWZ1xMB/ZlbXqggoMwONVy5GlDJqoY/2yV3SZhW3VQ8TYAxPKyh7hkaZQqopx+Uw28osf42r0awjuPxu7rlujU8REzP8mEWcvrUdEPeVoyqEaQnlZmVafqaSEsUNjRodgVTfPMggzduWiMD8TCd8twYRgE+RETUfEy5HQ6w4KmqTLxjHg89gHhHowE0XQDOzKLUR+ZgK+WzIBwSY5iJoegZcjj9dMOE1qw0DC6M8AVaUPoe3ucjx8UAoYStTfddGYbvis4kijupGxkHuzdGMAIyMJ8yOuft/KKx434NvsZK8XJqCwjpgsdfPE9t0AVF6GMm3looRp1tjEnN0cwcWovy9GvaCwjlN8527o3KoKZ9IOo/ai+mPkHv4FBdVKNQ2AtA1wLjEeeRoXUeSXN2PSoBFYuP8mbiVFYuzIRUiudIQ0YjzmfLkNKXtnIkCeh8wzist4CgWrzqsPDw6dAuBKJ5GUWKih8HKcOpCGAqEPAtpr5sjs4bXois4ehDMpB1H7rrFynE7PQPXrNUwDpGiDc0iMz2PSxGrkuLx5EgaNWIj9Ot7/UVWUiKiEIvh+EIuE9cswa/JrGBTshuu5FxjpVem4cgRYde0GH5zFoaRrtWOsOIO0YzeZ1tTwDJnAS7h3+3btsUencTpP1yXwupgiQKUoxGsrCpsnDcKIhfvVB+qjXwYyFjrWho3s9dvWLfURTQzRUeoLg9+PIr2gVi7y/ChMDArExG05SIxKQJHvB4hNWI9lsybjtUHBcLueiwuM01fpUo4WMmQx/nC7ptgjHD90BEXmnRHke09/3VW3kBQ5FiMXJaPSUYqI8XPw5bYU7J0ZAHleJnSISgfN1+XTpOpWEiLHjsSi5Eo4SiMwfs6X2JayFzMD5MjLPANWQ6kLzwGdAlxBJ5OQWKihi/JTOJBWAKFPgPqALhrRjZ+h/jjS7r4e3bCRe3N0w0OLrp3hQWeQclDjBY3lp5GeofudRGxkb9BwUGWNVh1sdNNM+2bTV1lWGg7XKhePjh/CkSJzdA7qwGKOEHAx6m+NUS8oTFbLEhld/LofWQtbUMj7X9OeQ4kUvWgotTbiKW/I/jhTcbOZnK5uG0VOAgl5Dp5PmxJSKTluBb3pb0aCFoNp4xUZVZ5eQp2NDKn1sKUUc+go/Zy6gz4f7U0S0xD6T47yTkP68VULEjhF0OIt++ns3TpPq8ku0rcD7UhgKaUJK3dSavoBipofQW5iQ2oz5QDdUXRV62bDaspo9+vWJJIuorM674uT0ZXvh5C9wIKkE1bSzqREilrwMrkbMj8Xqm+4k1+lbaOcSCDxpMHzN1FCajLFrXiT/M0E1GLwRmKGV5+HCTTOSUCm0ikUfTSLsjOTlfV6mghJIPSjuUq51X2S7C+Ke92VhOYd6M0vfqQDiVtp0RAPkvA0bshk+rKunxnxbUJo+uYDlHYgihYM9iJbcyMSs7ghW351G41i+iXxHEzzNyVQanIcrXjTn8wELWjwxitMeeZ8xU1+ok4UqdSLGhYy0K/jurCQPQvb0oX8+nZ6taWQLDu/Q2v2HKbD8V/T1EAbErmNp/jbDyhhHDMWUylNiT5KWdmZlBy1gF72NCGhQEh+czOVdeiUg/pmRwOBLXWfupb2JCXQ93P6kbPYlLoszqRyesii7ko6vaQzGRm2pmFLY+jQ0Z8pdcfnNNpbQqYh/yFlc7I82rFsDs3d+JuyWV3o1yW7G7JFAQtJaSpK7tH3EWIShX9F19X38JLsEv0nSEQWo+KUX7Xsq/I0LelsRIath9HSmEN09OdU2vH5aPKWmFLIf3IYDTevDdnFb2mgnYAspRNo5c5USmfsfH6EG4kN29CUA0pvr49e3TDojSP6dcPGh9iUqYfsCn0/xJ4EFqq+JSUyvv2yOxkaQPcN2XplzxT/8VWyEDhRxOIttP/sXe3zdeqGKbL7dbIWSWmROmDWrUO/bljYtw7qtqPzhmwDAdl2n0pr9yRRwvdzqJ+zmEy7LKZMhXJZzBFcjHqKMeofShOSIwZ5ER398nUKbGVBYpEJOXUaS/9ZMJRJmPxpwZlqryql3O0zaUiAM1mIBSQ0sSff3lNow6nqR2gr6PLuuTRU6qL6d4k1eXZ/lSIPXFU6scLAbifNpO4OEuLzHWh8Ylkd52B4kEVbpg0gP0dTEomMyc67J731WTIVVHdBy/Gr0ZccKbhHpzZOpd5t7chYJCHbtgNp5uxh5GRYbfwMpbm0feYQCnBmZMAYkIm9L/WesoFqhlcPORUmL6Gh/o5kIhSSoaUbdR0xn+JSP6WeEnMatPEGU0bH5FV2nrZP708+dhISmThR5399QbP6MH9XB0eGiks7aMYAX2phJCSJjTf1/nc0/fChD0lYJEcKSnO308whAeRsIWYSNROy9+1NUzacUj8Oy5yvy+EU6JWBPh3rgoXs9dqWbkpzYmh6RHtyMhWR0MiO2vb9gLapn96QFybTkqH+5Mgkq0JDS3LrOoLmx6XSpz0lZD5oo7JMw4FHSO3HR9J74R5MfyRk6RFMb3yRRsoHEBnY1E0Vl2n33KEkdVHJUmLtSd1fjaQDV9Vtle+nCU58Evdbr/reAI3r8m9IjhgqLu+muUOl5KLsg4SsPbvTq5EHSDWU5rWh4EHWFpo2wI8cGf2JjO3Iu+db9FlygYZv14GFbpToiyP6dMOgz4cUsClTj3unaOPU3tTWzphEEltqO3AmzR6m8SqPOjGucdkztng7iWZ2dyAJn08O4xPrnM8uOapXB4Ne3bCQYV3qtqMrORK2H0+R74WTBzNeiaUHBb/xBaVpKlefbrkYpeSpxKh/KAaK/6gvIjVO1T1cyfkLolbecDKtvemreNPLaDnpIT79IwXvOT35pVuOhniEbcNsMe72EuSlTYdb3fvuOP5eyuPxhstInHs3E7814S3DzeHxr7MQvNIfx7e/qj7C0Sh/o244/m7KEf+GC0aeexeZvy0C99LsRuD84Ilgn83QDfwwoSN8hq/DH9XrqeXn8P3Wo6j06oauLbjEiIPjqSO/gh1rjqHtsDD1AQ4ODg6OZw37jIbvhTc+eg32v3yITj6B6NUnHJ28AjHnjDem/3c6OnFpKQfH04fvhF6f78LGkfbqAxwcHBwczxr2y2pqHl4+jN0Jv+DibRmMnDqg17CX0akFlxk9e6pQeDoVZx+3Ro+urRp4DQDH30ZVEbJ/Oo0S1yB091DsMcXx3MDp5h9MFYqyf8LpElcEdfcAp91G4PzgiWhycsTBwcHBwcHB8U+Gu1GIg4ODg4ODg0MDLjni4ODg4ODg4NCAS444ODg4ODg4ODRoVnL0+Nw6vDF2Jc68CPuqVBXjl+8WYvnOC7XbbHA0ifK8OMwd2x/hYX0wZuVx9dFnyMNi3NN4/f4zQZaNmIXz8HX6LZ1bMnCwR3bzJHau+xSLFi7F6thf8deLEBeeS8qRFzcXY/uHI6zPGKz8Gzauelh8T2MboGeDLDsGC+d9jXQd2ytxNIcqFP/yHRYu34kL3KT2zGh6ciTLxVdTl+F61wj4NW8bs7+RKhQlfITXpyzD10l/PPMg8I9Efh6rxr+Bzw7dhEUrF7jYWaj/4dlQfuwThHd4HTHPOpA+Po/4lZ8jOuOu/o16ORqgCrcOz0NP30C8+ekOpKVux/I3Q+Df9xP8VqouwsEa+flVGP/GZzh00wKtXFxgZ/Es3/RajmOfhKPD6zF49q4Wj5WfRyPjLudpT4OqogR89PoULPs6qfadgxxPnSYmR1W4GbcQKwpexuzxnnjeX9JcVbgDH763tXZjXI6mU3kReZfk8Bq3Dts3bcCnY7zU//BsKD//M44VlHMJy4vA/YOYN+E/+DNkDX67cALpP59FdsJk2B1bhjkbr6gLcbCl8mIeLsm9MG7ddmza8CnGeD3b5Oj8z8dQUM552gtFVSF2fPgetnKT2jOHv4hB/bd+ZDn474RZ+GPQSnza30mZWcly47Bs9QkYd7HGH7EbsHnPEeTclcC1tSOMNVKvqvu/I23nD4jdlYCD6SdxucQMrTxbwEhZRoZz2yOxNssU7veTsG7LQeSV26ONpxVEVffxe9pO/BC7CwkH03HycgnMWnmiherEhqm6iq3jRuI7qzcxhH8SfziPxrSXWzfwCnUZcuOWYfUJY3Sx/gOxGzZjz5Ec3JW4orWjsXYGKb+FrIRtiIrdi9STV1Bu5Q5Pm+q3DjU0DjMUn05A7PYdiD+UgbxbfNh7OMNcszOPC3F8dzSi4/Yh7dSfKLfUrlfRv69OmSHQ4Qbit2xG3P5juFhqBQ9PWxgaqIsxNC5nBTLc1NcXNfKr+7HyP1FI+vk8ipnE+M6lGzBqL8axz9ciy9Qd95PWYcvBPJTbt4GnlUivbPSNoSRjA5ZuSEDGxbuQVxShWNwOXdwU7+eQ41ZWArZFxWJv6klcKbeCu6eNnnc9VeH+72nY+UMsdiUcRPrJyygxawXPFkYqfVbmYMeK3bgfMhnjgm3q/0qQ5SJu2RqcseiKFtd2Y9OmH3HoVCHErm3R0rQSV4/+gI1bdiE1uxhmnt6wl9QqoVEdyM5he2QD8msU9jba3Pb12442xbs+xqTYFpgX/19E2CjGbwBjV1+4WZqjhZcfunpaqgpqopTrapww7gLrP2KxYfMeHMm5C4lrazhqBgwG+a0sJGyLQuzeVJy8Ug4rd0/UmlND4+Dpt+/GfE3Zv69wyiwQDjfisWVzHPYfu4hSKw942hoyI6xGj30pkN3E6YRYbN8Rj0MZebjFt4eHs7mOGCTH1f0r8Z+oJPx8vpip+g4u3TBCe/ExfL42C6bu95G0bgsO5pXDvo0nlKbSmK/pHUMJMjYsxYaEDFy8K0dFUTHE7TrBzYQZXaM+3AB6YnRlzg6s2H0fIZPHIdimvjEp55A1Z2DRtQWu7d6ETT8ewqlCMVzbtoRp5VUc/WEjtuxKRXaxGTy97VHrao3rQHZuOyIbkl9jsLZRPTbQoI0K9NuOTqpwdes4jPzOCm8O4ePkH84YPe1ltNY9qXE8KYr3HLGl8vgcaiduTR8crVAfUextp9gUsB2F9XAk69Yh1K9PF3IxFpBNyGI6qt5rrzxrNQ1wEpGRYwcK7dWLQjs4koQnJJcxMVSg3ACvjHaMsSSxpy9523tRYKiUpBN30d3yLFo9wIlERo7UIbQX9QrtQI4SHgldxlCM6sQGkNHl7waRveNQ2nzpV5rTTkROE/arduPWiXrjxXZh1MPRmlqH9KM+XVzIWGBDIYuP1mwQKb+TRgtC7UjI9KddUBiF+NmTROxKg9dkMTUo0DWOWPp5VR9qIbQg9y5h1DusE7mY8MlMOpfSS5QnkSx/J032Nye+sTMF9Ayn7t7WJBI508AvM0lVRNU/ccf+1NfZilylodQjoCUZ8QzJ650EKlKLQr+cK+isnr5oIru4jaaP7knuYj5Z+w+kUa8tpv0FcTTGUkyevt5k7xVIoVIpTdx1l5Vs9I2h+NBSGh3oRHy+I3UZOpbm7ryqEDqlLQglO6ERObYLorAQP7KXiMl18BrKUlWsg3LKWj2AnETMOR1CqVevUOrgKCGe0IXGxBSQUhSlsTTSTETdPsnTvdGkctNGI+rYJ5xa2ramwLAg8rIUkNB1NC2YEUpODj4U1ENKzsY8MvKfQ7+o+6JXB2U7dMpPP+xstLnt67edulTQT++5k2HnSMopyacjW7+kJQsj6asfM+lmY/tRqjc8bRfWgxytW1NIvz7UxcWYBDYhtLg6YDAaupO2gELthEx/2lFQWAj52UtI7DqY1lQrXec4bui1b72+puyfmDr270vOVq4kDe1BAS2NiGfoRe8kFKlsh419VZylVX1akNDCnbqE9aawTi5kwjcj6dx0tU9rIqOL26bT6J7uJOZbk//AUfTa4v1UEDeGLMWe5OttT16BoSSVTiSFqej1Nb1jKKZDS0dToBOf+I5daOjYubTzqpyFD+uARYwujR1JZqJu9InuXY9Vc4hRR+oT3pJsWwdSWJAXWQqE5Dp6Ac0IdSIHnyDqIXUmY54R+c/5RX2Wfh0oN2PVIT+9sLJRFjag00YL9Z/XALLL39Ege0cauvkS/TqnHYmcJtD+hic1jiekCcmRjC58Gkgis+EUo+HdSsPm8cnh5XWk3kSYijMWUKCpmAIWnGa+3aatwy1J6D2VUmoM8wEdne5LQsM+tE65PbAqqeAJ29GMYw9VRRhubx1OlkJvmlp7Ij04Op18hYbUZ12h+kh9KvO+oj62TjRyG2NslcdZJ0c8vgO9vC6HVMMopowFgWQqDqAFpxVbOZdQ0iQ3EjoNo/U51X18QJnLe5KlUVdalq3aMbreOCrS6X0PEXl/cERdL1PTsdkktfGid/cxZeSFFDXMhgSOQ+jbXHUIkhdR6kdSMhb70ewMRa+r++dMo6L/UI/jLtMfTxIYD6QNRYrvLOSsry+6KNtNr1uLSLrorGqnbaXDM8Gv3QyqVRU72egfAyP1DQNILHqJ1vylChMlSZPITehEw9bnUE3Nmcupp6URdV2WrT5Sh9tbabilkLynpjAtqHlwlKb7CsmwzzrVjtSskiMe8VuOpK1/qrbyLkmZQh4CAxL7T6e024pK5FS0fRQzGbvRlMOKEbHQgU75sYGNjTa3fTY+WpcSihoiIWGXV+ktfxuy9epKPYN9yE4kJIc+X1BmQ2OrlqvDy7SuNmDQgkBTEgcsIJWrJdEkNyE5DVtPteaUSct7WpJR12WkMicd43gavlbdP+dRFP2HykrpLtMfTwEZD9xAKlfTb18V6e+Th8ibPjhS0xM6NltKNl7vUsOupr0LvnJyZxLUdjOO1di+oh69vsZmDIztbBggJtFLa0jlamx8uD5sYjSr5IiZQ1qO3EoqVyuhlCkeJDAQk//0NFK5WhFtH8Ukm25TFAVY6UC3/FjAxkbZxBhdNsrmPF1U5tFXfWzJaeQ25sdKJR3nkqNnTuNX8bSoxPncS6CWnnCve1mS74XXPx4HHyPVV4tuH2BqHwmyE+OZb+YYuCIdGXsXIaz6KnuVAeydHCCQ30fx/dq1U17LnhgQYKz+xpw5cAXSM/ZiUe2JMLB3goNAjvvF99XH6vD4HFZOWoi8Pl9i5WjV0h9b+F6v4+NxPlANwwLdPpiKPpJsJMafB8rT8WN8Aex79IPPg2z8+uuvzCcHsm4vwR+nsDfhsvIsBVrj4FnA0pyQv++/+GxzMrJvVsAk8BOcuHUBawcyZe4nY3fKfbR9ax7GtVVfvubZInzuRxhglIc9O0+pjjHwnSIwcYQbxMpvlggJC4Dx45sovKV4ZIGFnPX1hTU8tOw5ADWqaoJsGh9DXcqR/mM8Cux7oJ/PA2Qr6/0VObJueMkfOLU3QV2uDuYDsSI9A3sXhTEtqKgysIeTgwDy+8XQMDk98GDf/y284qq6bm0S4A8vvgDth49DiLXCsniw8u8AN4Ni3LnDUgdK6sivCTRqo81un72P1lD1CKWlclRmJiC713Zk5/6KtKPZyD0wFXZH5+Hd/2arC+qCD6/XP8a42oCBD6b2gSQ7EfHnZYw5/Yj4Anv06OeDB9kqnf+aI0M3ldKRcLnaVuqM46n5Gh9OERMxwk1lpbAMQRjTyOObhVC5mn774llYwpzyse+/n2FzcjZuVpgg8JMTuHVhLZrmai3RcwDjI+qv7H1Nzxjq0gQf1qRZMVoXPHv0f+sVqFzNBAH+XuAL2mP4uBCoXM0K/h3cYFB8R1GAlQ6U1JUfaxq3UfYxpo6NNis2Pca5lZOwMK8Pvlw5Gk5NmdQ4mk0TxFyBu3cfAKbmqPcQhcADbdpoZkxGcHW1A/66xvwtgIW9Ke6lfIG3h/dFSIA3nCyt4DMrnamRUKXxpATPyhY2GnULLOxhei8FX7w9HH1DAuDtZAkrn1lIrwBI88QaynH683ew7M9BWLniFTg00YgEHm2gPQxXqIZxFVX38pF/pxLXYt5GcGAgAqs/4fOR9qgKNwuuq0+qMw5BO0xbvQz9BWlYPq4POrS0hWvnwZi6MhVXHwPym9dwvYwPdy9v7XsRTDzR2gm4oVGvgbW2fHgiMQQGBLlc4VEs5KynL+xhkgJbm5ob8psim8bHUIeqe8jPv4PKazF4O1ij3sBwzE97hKqbBeqCdRBYwN70HlK+eBvD+4YgwNsJllY+mKUyHCZ8s8UANvb2NeMEj8/8bQBTC4vae08EAuW/qzbhYWvr2vJrCo3ZaPPbZ++jNfDEEIkMYGDWB/+e+xJaKCvjwbrnTEwKMUBW0kFlMd0I4NGmDbSH4Qo7/IVrjCHey8/HncpriHk7WEPngQifn4ZHVTdRcL36EZ0643hqvmYAay358CASC2BAcqhcTb99CdpNw+pl/SFIW45xfTqgpa0rOg+eipWpV5mprgkwSYGthsOw9zU9Y6hDU3xYk6bH6AYwsIG9vUZv+czfBqawsKi9y0sgUPy7uvNsfbyO/NjTmI0y9sc6xtS10abHpvLTn+OdZX9i0MoVeKWpkxpHs2mCpJmJgc8YqmIpTn2kBipHWZmmWgklJaWAsQnjdVcR/Vow+s/ehevWnRAxcT6+STyLS+sj6t9Qa8ADT+Nmu6vRryG4/2zsum6NTsyvoPnfJOLspfWIaOj+QNlF7N2diXt/bsEwxtEMDJjgLeyCT849xvUNA2Ao6oRI5hdoQ1B5GbSHUQLVMMyYucAQYp4QnZfmQqZajtT4yHBlbbj6JAatcfBgGTQDu3ILkc/8yv5uyQQEm+QganoEXo48jkqJBIYGVSh9+FDbMeQP8YBp21CiMVjFeNR/1oOVnBvvS1OCtgGPV9OXpsmmkTHUhZmADcU8CDsvRa6sbr0E2ZW16oLaVF2NxmvB/TF713VYd4rAxPnfIPHsJaxv0HAawgB8ZpysaYKta8qvKTRmo81uvyk+WoMhHB1sIDCyhIVmIZ4F7GwMmW41dtWAUF5WpmXvVFKCUub3vYmZAGJDMXjCzliaK6unc5JdwdpwsfqsunJ8er6miB0Nwcq+eJYImrELuYX5yEz4DksmBMMkJwrTI15GZJPeX2QAXm0waZKvNTaGujTJh2toRoxuCAM+M0713yxg7+Pa8mNPYzbKa0L7TA80bLTpsUmGi3t3I/Pen9gyjPmhpoifBkJ0+eQcHl/fgAGGInSKzFGX5XiaNMEchXCwtwHuFqGo7mVZWRbSDt+uNaRHx3HoSBHMOwehqigRUQlF8P0gFgnrl2HW5NcwKNgN13MvMJMxkylrRSkNqoqQGJWAIt8PEJuwHstmTcZrg4Lhdj0XF5jYUqXrRIELXlkWjZiYmNrP1k8wzEUIq15zERW9DMNaNnxrvywrDYdv19b76PghHCkyR+cgP8A0ANI2wLnEeORp5Ffyy5sxadAILNx/S31Em6pbSYgcOxKLkivhKI3A+DlfYlvKXswMkCMv8wxKHDohwJVwMikRhRpDKj91AGkFQvgEtFcfaRw2ctbXlyZcBNemmbLRhSKQ1GKKAFXFiNeuGJsnDcKIhfvVBzSpQlFiFBKKfPFBbALWL5uFya8NQrDbdeSqDEcr4D1Nmm3rTaAxG21u+807T4iO3QMguZ2JjByNyZ75gZJ94SGMPBp75YMMWWmHUTuMRzh+6AiKzDsjyE/EmJMUbXAOifF5TMlq5Li8eRIGjViI/Q28mOfv8TU29lWFW0mRGDtyEZIrHSGNGI85X25Dyt6ZCJDnIfNMsz3tKfqaImlQ/6mgOfU2J0Y/Ff4OH2/MRgXNbL85/RbA5ZVliNac02K24pNhLhBa9cLcqGgsG9ZSXZbjadKk5MjP3weCgvPILa6jwqrb2PPvoZj2dTwO7tuEj4ePxdd/dcR7H74MnqkzXGwIlxM3YPvPZ3HuRAqiF47Ev9ZdZE6sQEWZjmu8CnimcHaxAV1OxIbtP+PsuRNIiV6Ikf9aB+WZFWWqclqYw7fvKLz66qu1n1EvwdvMAJJWQRg5qi98zdVFdVB1ew/+PXQavo4/iH2bPsbwsV/jr47v4cOXLRgbbY8JM4bBKnMJhryyAJv3HUbKj19iwivTsDGzEq4+VupatOFZ2gMXE/HZlDex7Idk/PzLYez8byS25hiiy0vBsBJ1x5SP+kB4YAYGv7MKuw4fQVL0AowYuwqXPd7CjDEu6poah42c9fZFVVXTaaZsdCE2NYWkKg9J323FgewStJ8wA8OsMrFkyCtYsHkfDqf8iC8nvIJpGzNR6eqjPksTHkydXWBDl5G4YTt+PnsOJ1KisXDkv6ASRQUaMrknpdm2ziC/sBPLP56H748/Uh/RTWM22tz2m3ceDy2GvotXXc5jzeRZ2HXpIaoe5ePAoin46qwTRowfpC6niyrc3vNvDJ32NeIP7sOmj4dj7Nd/oeN7H0LlahMwY5gVMpcMwSsLNmPf4RT8+OUEvDJtIzIrXeFjpTts/T2+xsa+eFB15TNMeXMZfkj+Gb8c3on/Rm5FjmEXvBTcbE97ir4mhqmpBFV5Sfhu6wFkl7Rrer3NitFPgyfxcTku7FyOj+d9j8ZdrTEbbW77zTvP3LcvRmnOaa+OwkveZjCQtELQyFHo29ikxtF8qAnILn9JPYxsaMyPD9RH1E8aCNvT+Mj3KNzDgsQSS/IIfoO+SCtUP5Yop8LkJTTU35FMhEIytHSjriPmU1zqp9RTYk6DNt5Q1KJ8ykvUKZJyNB5okBcm05Kh/uRoIiShoSW5dR1B8+NS6dOeEjIftFFdSg9NeFpN2H48Rb4XTh4WYpJYelDwG19QmtbjA6WUu30mDQlwJguxgIQm9uTbewptOFX9eKfucVRc3k1zh0rJhalXIJSQtWd3ejXyAF2tKfOAsrZMowF+jmQqEpGxnTf1fOszSi6ofkJE1T9RwELK0nhoRPvpFjZyZtOXOpTpelpNRJ0ic+o85aVfNvrHwIzidhLN7O5AEj6fHMYnKo+V5m6nmUMCyFnZZxOy9+1NUzacqnl8vR7yQkpeMpT8HU1IKDQkS7euNGJ+HKV+2pMk5oNo4w1Gp6yeVhNRwMIs1bgV3PueIsQiCv/qes0jt7JL/6EgkQWNilM81cJCBw3Ir3z/BHLii6nf+tvqI3VhY6PNbZ+d7eii5PQ39JqfBfF5jI8KecQ386KhXxyjYvW/10MpVyG1Hx9J74V7MLYiIUuPYHrjizTtJ3VKc2n7zCEU4MzEFIGQTOx9qfeUDVRrTrrl+MS+pkvvjOx3v25NIukiUrkaC/uiCrq8ey4Nlbqo/EFiTZ7dX6XIA1d12xuDzqfVRJ0oUjOYKNHja2zGwOj8dtJM6u4gIT7fgcYnKp7e0+fD9WETo1k9rSYKoIUageHe9xEkFoXTV9drPI0u/SeIRBajVF9Z6EC3/Mpp/wQn4ov7UcOuxsJG2diALhtlZTv64J5W+zswUPxHnSfpp+ovfD/ED3PN1iNv63Ao8tXy+DfgMvIc3s38DYvaN7xk9XxTjvg3XDDy3LvI/G0RXthhcLzAPMavs4Kx0j8N21/V9WzNc2yjVaW4dvYULpcYwdXPH26NbXtRHo83XEbi3LuZ+G1Re+0bozk4/g4e/4pZwSvhn7Ydul2Ns1EOxXW+psBzxOiP/gWLpI2Ivfbkq7ocHBwq5Fd2YM2xthgWJlEfeYHgGcPZPwQ9Q6SNJ0YcHP/vyHFlxxocazsML6Krcfx9NC05YjAKnoOlAy7gq1XH0PjdERwcHGzhO/XC57s2YqR9k12Sg4ODNXw49focuzaOBOdqHI3RtGU1NVW30rF+402EfjgSbe5l46fTJXAN6g4PxTZYLyRVKMr+CadLXBHU3QMv7DA4/sH8Q2y0qgjZP51GiWsQur+4AYPjnwxnoxwMzUqOODg4ODg4ODj+qXAXFjk4ODg4ODg4NOCSIw4ODg4ODg4ODbjkiIODg4ODg4NDA+6eoxcGGXLjPkHMje6YOvUl2FdlIyYyFvfCp2FSD0vkxEQi9l44pk3qAdu/PeV9iOJ7hrC0aN4bQeR56zFh0T28s3EmujV9++x/OOW4diwe8em5KKowRsuOfTB0oD9sNURdVXgGqVmFkGl5Mg82vj3R2aV2H7L/OWRnEL1kB0p7T8ekkOo90J8TnmLfHhbfg6GlBQR1Y8TfGQfu/4L1nyfgD42tR7TgWSJwwkcY7E7IftJYJdOMfbZP6Rd+Y/H1abXxfCPLjkFk7D2ET5uEHn//JPL8oUiOOF4E6rxhWusNz6UUO9KMRN0+oQZeQvvsKPuFloe508C1f9W8NbrJyAvo+yFOJJ33GzNKjhrkf1H8VH8y55uQi7QnvRTiS3ZiAdn1jKSfa15aLKPzy7qQULFTptZHRC+t+Utd5n+U0q001EhEIV/8oT7wHPFU+lZGvywPI/eBa+kvpfPpfgv934H86koKExmQkYMX+fr61v+070vLfqtgSj6FWKXv7fbNorH4+r+BvjeZ/6/BpYcvDIYYvKUIFSefs7cjl5/Hz8cKUK511aKJ8JwwZtZrqPh6Hr6/UndX4/9dHqUuxvvfFiJkTSZ+P5GGlCNncf7gB2j521JMW3VWXaoMZ8/+Dl7op8i+WYSiourPX9g5oYW6DMc/k3Kc//kYCmqc7/87RgjQbsoeZJ07h3N1P1lJ+LiLSF3ueeQ5ja8c/2/wFzGo/9aD4rLjMqw+YYwu1n8gdsNm7DmSg7sSV7R2NNa+7Ci/hayEbYiK3YvUk1dQbuUOTxtD1b/JzmF75FpkmbrjftI6bDmYh3L7NvC04uHm6QTEbt+B+EMZyLvFh72HM8w1DfVxIY7vjkZ03D6knfoT5ZYa9ar799UpMwQ63ED8ls2I238MF0ut4OFpC0MDdTGGqvu/I23nD4jdlYCD6SdxucQMrTxbwKh6ELKbOJ0Qi+074nEoIw+3+PbwcDZv8DXystw4LFt9AsZdrPFH7AZs3nMEOXclcG3tCGMNwehtlxlDwzJQjW9Vqgw+nd1hIsvBjhW7cT9kMsYFm+P8jhXYfT8Ek8cFw0Zd3+PC49gdHY24fWk49Wc5LN09USMu1shxKysB26JisTf1JK6UW8Hd04YJJQwlGdiwdAMSMi7irrwCRcVivNTFTXmWrOgMErYxbe9NxYn8Sth4uMO6kRUegYMjinfPw3c3wzGxj0s9WT8+G4PI1Ukoce8Gb8taoT5WXAr+6igMOkjRykhDyQxs9cLUgsLjuxEdHYd9aafwZ7ll7RjVyG6eRkLsduyIP4SMvFvg23vAWcs4G5FTNY35RT1kOBvzKTZdCkLkhnHwUTZlAImzC+4mfo0fiwMwb0xHpthZxESux/WguZg/vC3MjI1hrPwYwVCgLY+6NK6jKtz/PQ07f4jFroSDSD95GSVmreDZwkjl6zr92BOPUz5nFSOetg+qeIhLyduwKWYvjvxeDjv3R0hZtRePwqbire7qpasm6aAaGYrOMLpl7GNv6gnkV9rAw90ataK6j9/TduKH2F1IOJiOk5dLYNbKEy1qHZuBRd9Y1VNNCTI2LMWGhAxcvCtHRVExxO38UbZ/eW2MkOcibtlqnDDuAus/YrFh8x4cybkLiWtrOGo5gH771wc9+A1Rq5NR2WMyxoc2tgxViRwdsaoujdpHpWbss1G3VYrLqTHYtC0e6XmljC2LcPzrFTgs74hOrhLlktFiJk7w/Jg4Yaz2C8XS5qI1yBAoyggbia/VbTTm4zKc2x6JtVmmcL+fhHVbDiKv3B5tPK2gMyXUZ4fNsH/9MapxPVfm7MCK3fcRMnkcgtWKeTpzyAuK+goSC9SXHduFUQ9Ha2od0o/6dHEhY4ENhSw+WrMJqPxOGi0ItSOhkSO1CwqjED97kohdafCaLNWSiXIzPjF5+nqTvVcghUqlNHHXDTq7qg+1EFqQe5cw6h3WiVxM+GQmnUvpJcpqSZa/kyb7mxPf2JkCeoZTd29rEomcaeCXmaQqouqfuGN/6utsRa7SUOoR0JKMeIbk9U4CFanXfMqzVtMAJxEZOXag0F69KLSDI0l4QnIZE0MFijIVZ2lVnxYktHCnLmG9KayTC5nwzUg6N13dTn1UGye2o7AejmTdOoT69elCLsYCsglZTEfVgtHbLlXokUFTltVklL9zMvmb88nYOYB6hncnb2sRiZwH0peZDY1CB/I7lLYglOyERuTYLojCQvzIXiIm18FrKEuhzOJDtHR0IDnx+eTYZSiNnbtTcRL9lfBvklrwycjJn0LDupKHhYAkXm9RbH5jl2sr6fT8DiR2nUzJOjZTlF//lvqbiki6WL0BrpJSSnrHhbHJOXRcxzICG70whkU7JyuWrozJOaAnhXf3JmuRiJwHfknVoqo4u4r6tBCShXsXCusdRp1cTIhvJqW51capT07KInr8gi0PEmick5DsxyWovt/eSBHGZjT4q6O0Z/3ntGThMvoq7jcqbHRZRZ+Oyilr9QByEjHj6RBKvXqFUgdHCfGELjQmpkC1fKrTj/9iFSOehQ9S5QX6foQbiRn/cesURJ1bW5OVbwfyENYuXTVLB/K/KOHfUrLgG5GTfyiFdfUgC4GEvN6KJZWosmj1ACcSMXV2CO1FvUI7kKOER0KXMRSjcmxWfWNVjxbFdGjpaAp04hPfsQsNHTuXdl4t1Y4R6g1o24X1IEfr1hTSrw91cTEmgU0ILa52ABb2zwbVspqQuizN1bMMpX9ZTa991F3yqrxEUWM8SSKyo3bhA+glf8bffcMY2RjWyFfnkpHW0qaeZTW9Pq7adFzs6Uve9l4UGCol6cRddFfxT3XQa4fNsH+9MYqFnrVl9JTmkBeYJidHPL4DvbwuhzFxBcWUsSCQTMUBtOC0wqJKKGmSGwmdhtH6nIfKEopdsDOX9yRLo660LJspowyqjNO3m0HHqotUpNP7HiLy/uCIul6mpmOzSWrjRe/uYwrJCylqmA0JHIfQt7nVs00RpX4kJWOxH83OUMym1f1zplHRf6h34L/L9MeTBMYDaUOR4vtt2jrckoTeUymlxmof0NHpviQ07EPrCuVMV94nD5E3fXCkpid0bLaUbLzeJUVXdKGchHl8cnh5HeWoTyvOWECBpmIKWHCa+aa/Xb0yaNR5tQOOvDCKhtkIyHHIt1QrrlT6SGpMYr/ZpBQXC0qSJpGb0ImGrc+hGm1mLqeelkbUdVm26kDxBhogVt3fogzhD/bReGch2fRdSWfVA6m4+A1F2AnJbephtV50U5Y4nhxEfvRxpmKAdWD0HTWUkaH/AlKamoISRaIgJukizYSpFv16kVNh1DCyETjSkG9zVYGJOVaU+hFJjcXkNzuD+V5B6e97kMj7A6o1iWM0W2pDXu/uU8pFv5xY+AUriumnGf7MJNCGPkxX1VPx03vkLuCTwNCKWncLo/BuXmQl5JN14FxKva1rUmXQp6PbW2m4pZC8p6bUBvcHR2m6r5AM+6xT7Uyuy49ZxYhn4YNyurFlKDPuVjR66yVGYwyy65Q4xY8MDYTqya95Oniwbzw5C22o78qz6vFU0MVvIphJ0o2mHi6n21uHk6XQm6bWDoYR1XTyFRpSn3WFzDc2fWOkorceXRTThgFiEr20Rvc9R8rkiEd8h5dpXa0D0IJAUxIHKPyIjf2zQ5Uc8ckp7G2aOWsWzarz+firVFJtOK8vOWIRK7Vin5xuMrKzEbrTGzuuquKA/AYlvd9eS75Pmhzp93FVcsQTtqMZtQ6hA/122HT71xej2OlZU0ZPaw55kWlyciRsO5N+VXq4muJtNNxCqJygqIwJug5Cch6znn7OyKCM6s/hSAozElLX5XlMGUVQFTBBOK12oqzMooUBTOBtPZQWbDpEZ2/UkfzdKBpqJiS/uSe0J8HiH2gEE8TbfHSM+aLun8tkStE4XaFwc2EnisxRmHglFf95lk5cuM2Yhhp5CV38shdJhF1pOWMUlVkLKYAJSK2HLqBNh85S3a7oQjkJC9vSTG3B0LbhFiSULmL+1t+uXhk06rzaAedu1FAyE/rR3BNa0mLENYIJwG3oo2Oa/WyIMto33oGEzmNo/c8ausw4TJFhRiTsulxVrE5yVH5gIjkJXeidQ2qPUlJJf+WcoLwb1Z6rG9mFT6ib0JiGRuv+ZVIc9yoj59rk6d6u16mFJJA+Pa8R8DTQr5e7TMJlRkK/uaQtqmL6YQQToNt8xPxdSVkLA5jA3JqGLthEh87eqJPgsZATG7/Qh/wu/bw0jGwFlhQcmcGESxUPf/qERg58jZanF6lti5kskj+kjkYCcp+SojxSF706qiymP8+eoAsayZW85CJ92UuiHI9yftHlx2xixDPxwXuMTs1J2GF+beLMIC/8hvpWT37N0kE5HZjoxMSUd0hbVH9Rzok8UonqTzp74gLVikpOJRe/pF6S6jpZ9I1Bfz26YJMcCantzF9VSZma4m3DyUIopUVnFT849Nk/O/TdkO0/ch1dUrqpvuSIRazUin0P6IdXGH9uP09rDPIb39EA41r5PllyxCYWqpIjgdtUSmvMXlnYYdPtX1+MYhPntGX0dOaQF5sGVnwbRuDRBm00F1GNXOFqB/x17Sqq7uUj/04lrsW8jeDAQARWf8LnI+1RFW4WXFefxIOVrQ1q9u8WtMO01cvQX5CG5eP6oENLW7h2HoypK1Nx9TEgv3kN18v4cPfy1l5zNfFEayfgRk29gIG1LWw0NgbnicQQGBDkcsVNiwJY2JviXsoXeHt4X4QEeMPJ0go+s9JRAUJVlaIr07B6WX8I0pZjXJ8OaGnris6Dp2Jl6lUwXWkYgQfaaAsGrirBMH/rb1efDNgjx81r11HGd4eXt/YKtYlnazjhBgquN/S8rQZV95CffweV12LwdrCGLgPDMT/tEapuFqgLavOooAC34QwPd6H6iAIBHHyk8G5hpP6uG761FSx4lbh3t1h9RBuL/mMwyO4Cdv94ktFFMZJiD+Bh15EY2bqRneAb04v8Jq5dLwPf3QvaojKBp8qwmL8FaDdtNZb1FyBt+Tj06dAStq6dMXjqSqQqFMNCTuz9ogEeX8HO93sjYnEu/BbtRfzH3Wr2VjPuMRux+6Ixp+Y+Dx7sen2M93sZ4mryfuWRuujVkcAC9qb3kPLF2xjeNwQB3k6wtPLBrPQKgKqgMFcVdfxYTWMxQtHOU/dB+Q1cvf4IPGc3uGnokWfZGh52Kqk0TwePUFBwG3D2gLaoHOAj9YZKVPYwvZeCL94ejr4hAfB2soSVzyyoRMUMhkXfFOitp9kI4NGmjdZ9L0aurrDDX7h2hfnotf+m0PAN2adjJ8GjETethUWs1ER+CwWFpeA5uqCVlny94GnPqkH9NCEW8qy055+6sLHDps9BemIUqzinyVOaQ15wmpwcUXkZyjQNlEpQUsoEaRMz8MSGEPOE6Lw0F0x+rrgqpfGR4cracPVJTBLD46H2dlEeLINmYFduIfIzE/DdkgkINslB1PQIvBx5HJUSCQwNqlD68KFGYGaQP8QDpm1DicYdYgYGGvXWoeoqol8LRv/Zu3DduhMiJs7HN4lncWl9RO3NhzxLBM3YhdzCfGQmfIclE4JhkhOF6REvI/J4I1kKlaNMWzAoUQmGXbt6ZNBIy3UwgISRh0FVKR4+1I4k8ocPUMq0KDFkoXaeGIZiHoSdlyJXVleXBNmVteqC2oiYtgUow6NHmo+vVaH48hlk5xejMZeqksmV7+rh8bUdsgaTXhg72AmX43fgxI39iDtUgeBRI+DaWAxsTC8GEkYWBqgqfQhtUcnxUGVYym88yyDM2JWLwvxMJHy3BBOCTZATNR0RL0fiuEy/nJriF/UoOYFVw0MxZtNDRKw/jIS5wbDSUF/V4xLcKrpXxz6MYWNtAoPSEvV3bfTp6PHVaLwW3B+zd12HdacITJz/DRLPXsL6iPp3Ymr7sYrGYsQz8UEDIxhJDED19FiOiseqMTZPByLGPhhbLHsEbVEV4/KZbOQXP8bV6NcQ3H82dl23RqeIiZj/TSLOXlqPGlGx6JtC9nrraTaE8rIyrbhJJSVMHDCGibkRK/v/W2EVKzXgm8DMhM/Il7ExrUGWobxCU2mKeYFJ7DUPVTA6UP5o1kNTYqEBD7xGnoNgZYfNmIMajVGV7OJcLU9pDnnBafIIZVlpOHy7VmCPjh/CkSJzdA7yA0wDIG0DnEuMR57GLCi/vBmTBo3Awv231Ee0qbqVhMixI7EouRKO0giMn/MltqXsxcwAOfIyz6DEoRMCXAknkxJRqKGr8lMHkFYghE9Ae/WRxqkqSkRUQhF8P4hFwvplmDX5NQwKdsP13AvM5MI4DvOz5FZSJMaOXITkSkdII8ZjzpfbkLJ3JgLkecg8c19dkw5kWUg7fLs2CD06jkNHimDeOYhFu/pl0EjLdeDBoVMAXOkkkhILNYJiOU4dSEOB0AcB7TV/RzaEKQJUykS8tjKxedIgjFioviqhCAaqv5QYdpTC1+B3HE0vYFxPjTwfURODEDjxB9zU0F9dqm7ewB0ygb2DufpIXQwRPHYY3P5MQuzaXfiJwjBqqEPjRtyIXsBzQKcAV9DJJCRqGxYOpBVA6BOgUAySIsdi5KJkVDpKETF+Dr7cloK9MwMgz8vEmfss5NRMv0BFDtaOGoQZx1wwPT4dW970gfa1twqkvu8LR5+3sUvzYpvsd2Rm3YHQW7dfNK6jbchJiEJCkS8+iE3A+mWzMPm1QQh2u47cC0xgZoy1ERUqaSxGPBMf5LVA184eoDMpOHijtt3y0+nIKFJ/b5YODNFR6guD348ivaD2FRPy/ChMDArExG05SIxKQJHvB4hNWI9lsybjtUHBcLueC5WomLbZ9K2qSH89OjEAk5vqQYastMOoVccjHD90BEXmnRHUwVW//f/NsImV2lihazcf4OwhJF2r/ceKM2k4drNWZzxDJimhe7h9u/bYo9OnkVf7tRFYxkI26LXDm023f30xqoRFnNPiac0hLzhMxsoS1Zosz0BAtt2n0to9SZTw/Rzq5ywm0y6LKVO5yCmnq9tGkZNAQp6D59OmhFRKjltBb/qbkaDFYNp4hcmVlfcqiKhTZI7yRjclladpSWcjMmw9jJbGHKKjP6fSjs9Hk7fElEL+oygno4vfDiQ7gSVJJ6yknanpdCBqPkW4icmwzRQ6cEdRSZ01YzVlu18na5FifZ05+FBxA6+ATKVTKPpoFmVnJlPUgpfJ00RIAsX6amYl05Ul1NnIkFoPW0oxh47Sz6k76PPR3iQxDaH/KO9bqo/qxl8DEth2p6lr91BSwvc0p58ziU270GKFYFi0q18Gja2J11nHl12kbwfakcBSShNW7qTU9AMUNT+C3MSG1GbKAVKKizkrb8cymjN3I/3WwK1A8qvbaBTTb4nnYJq/KYFSk+NoxZv+ZCZoQYM3XlEVKvuRXrUQkFPEYtqy/yxz0nXa/mpLElp2pnfW7KHDh+Pp66mBZCNyo/HxivsIZHR5z6dMu+vpl+rHl9Q8+GEEWYiD6YvLuuWspPIUzesgJGMTE7J5JUY9Ft3o1QuD7OK3NNBOQJbSCbRyZyqlH4ii+RFuJDZsQ1OUhlVJp5d0JiPD1jRsaQwdOvozpe74nEZ7S8g05D+kMAn9cmLhF/WQUe7nIWTCMyHppLW0LSaGYjQ+sYcvKEuVpn9IbUSMXv+1ic7cZez3bjbFvCslc6ErvbVb+RRCffTo6EHCOKavpiSdEk1Hs7IpMzmKFrzsSSZCgfK+BeUtX7r8mE2MeEY+KLvyPQ2xF5CFUo9JlBi1gF52NyQDVN+U2xwdKES1nV5tKSTLzu/Qmj2H6XD81zQ10IZEbuMp/vYDShjnRAJTKU2JPkpZ2ZmUrGjX04SEAsU9kpnKOvT37SGreupTRj++akECpwhavGU/nb2r62k1HhkIbKn71LW0JymBvp/Tj5zFptRlcabyvhT99q8odJn2fDqH5q7/RfVdB6p7jgTkNea/9WxV9dlOB84q7rDWc88Rm1hZ52Zp+V9x9LqrkMw7vElf/HiAErcuoiEeEsYOa2/Ill9dR/3M+GQTMp02H0hj5o8FNNjLlsyNxCzuOVKcr8/HVfcciTpFKmNCw+i3w6bbv/4YxUbPWvdlsZpD/tk0OTkSth9Pke+Fk4eFmCSWHhT8xheUpnx8pZpSyt0+k4YEODMTHRNMTezJt/cU2nBKPRPqDKpEFZd309yhUnJh6hUIJWTt2Z1ejTxAV2sKPaCsLdNogJ8jmYpEZGznTT3f+oySCxSWrIBFcsQYZmHyEhrq78gEeiEZWrpR1xHzKS71U+opMadBG28wZSro8u65NFTqouq/xJo8u79KkQeuavVXE9WNv+1pfOR7FO5hQWKJJXkEv0FfpBUyLSpg064+GTQhOVLwIIu2TBtAfo6mJBIZk513T3rrs2SqERcTGvdPcCK+uB+tv60+pIPS3O00c0gAOSv7ZEL2vr1pyoZTNY9lk/w2Jc3sTg4SPvEdxquOleZQzPQIau/EtC00Iru2femDbdVPL5XT4aluxBeF0WqtR5TLKXmyKxl2WkKNP7wlo5xlXUjEa0Gv7ayTXdVBv15UPMjaQtMG+JGjqYhExnbk3fMt+iy5gAk5aiou0+65Q0nqwtTBTFYSa0/q/mokHag1Tv1y0ucXdZHlUGRnoeKav86PKGy1umApZa1/nfyYBNWALyQhn0kGLfzotW9O19y0rZPGdCQvpOQlQ8nfkZmchYZk6daVRsyPo9RPe5LEfBBtVDx21Ehy1HiMeDY+qODeqY00tXdbsjMWkcS2LQ2cOZuGaTzO3WQdqCnNiaHpEe3JibEPoZEdte37AW1TP/0lL0ymJUP9yZGZvIWGluTWdQTNj0ulT3tKyHzQRmUZBfr6xrYebeR0O2kmdXeQEJ/vQOMTi7VjhPqG7PbjI+m9cA9mzBKy9AimN75IUz1xqEav/ZcfpqlufA2bq48qOdJtq6qPkDrMVzwhqu+GbBb2USdxUVB2fjtN7+9DdhIRmTh1pn99MYv6MH/X6r6CLu2YQQN8W5ARE1ttvHvTv6N/oA99JKySIwWN+zjb5EiBPjtshv2ziFH69FzvpnW9c8g/myYnR3WTDw5FDGImYVEALXzRBFORQTM7j6KYxp48/bsoTabJrcwobNXlRidARXJ04bMgkjhPoP16+v3C6qUZyB8WUNbRVDr881m63sCVwGcPFyOeK9TvOQpYmFWb6Pyv8DxvHcPxQqB3xZrjn4ocV3aswbG2wxD2/3DfpTZVuLX3O+w2GImP3nCv9/STFg9/w8Ztp+A84k2Ec5vU1sAzdkL74HCEBfnBsfGHAjk4ODg49MAlR/+z8OHU63Ps2jjy7929WxePz2LtigwELpiPfg3diy2/gnUjfODh0Qv/vT0Ac6cF1m7fwMHBwcHB8RQxUFw+Uv+thyoUZf+E0yWuCOruUfOeFQ7FExbZ+Ol0CVyDusODE0yTkf8Rjy8TxBjzXj84NZioPcb53SsRl2OKziP/hQFe+i8bcXr5u+FixHNFVRGyfzqNEtcgdP9fc4CqQpxOPYvHrXuga6snfh8Cx/8gTUiOODg4ODg4ODj++XDLahwcHBwcHBwcGnDJEQcHBwcHBweHBlxyxMHBwcHBwcGhwRMnR7Iz0Vgw7xscLVa8ZFyG3LhIzFudCo035TcdWS7iIudhdeoNjVeXPwfIshGzcB6+Tr/1fPVLyVOSvQ60dfwCIDuD6AXz8M1R3RvYNh8ZzkQvwLxvjoKtKGTZMVg472uk32rshIcovqfeS+D/1fabPr5/PI+u4uiWJZgydij6hoej/ysTMH/DUVzXvcXV/wsvnH9yPF2e1/nyBeeJk6PHObux4vMYHL+nuK9bhouJX+HzLUdRvW1Qs5BdROJXn2PL0aLnS9mPzyN+5eeIzrirfO3r88VTkr0OtHX8AvA4B7tXfI6Y4/fUB54Wj5GzewU+jzkOtqJ4fD4eKz+PRsbdBk4oP4ZPwjvg9Rh1wv3/avtNH98/mfLc7/G61Bc9J32LX++K4eTuCtO7P2PN5HD491qEI087924mL5x/cjxdntf58gXnKS+rGWLwliJUnFyE9g1srM4Kw8HYUlSBk4va40mq+d/iKcme4++l/Dx+PlaA8up5jbP954OSn/DxiHcRVxmB705cwMkD2/H9hk2IO3wOWbFvwPq35XhrTlITNoTm4HhGcDHjmcBfxKD+mx0PLyF52ybE7D2C38vt4P4oBav2PkLY1DfR3bIKuXHLsCpVBp/O7jAxYMpX3cfvaTvxQ+wuJBxMx8nLJTBr5YkWRqq8THZuOyLXZsHU/T6S1m3Bwbxy2Hs+Rsrnq5Aq80FndxMoqsHjQhzfHY3ouH1IO/Unyi3d4WnTwPsrHp9FTORqJJW4o5u3ZW0G+DibOf4Vjhp0QOdWDbxGWH4LWQnbEBW7F6knr6DcSqOdyhzsWLEb90MmY1ywTf3MUnF5c9lqnDDuAus/YrFh8x4cybkLiWtrOBqrS8vOYXvkWmSZuuN+0jpsOZiHcvs28LQSNd52NbIinGHKRMcxZU7ko9LGA+7WitchKpbV6sie4XHhceyOjkbcvjSc+rMclu6eaEhsNTSqY9U45LeykLAtCrF7U3HySjmsNOtlIwc1jdUjy43Dsq9OwSzQATfit2Bz3H4cu1gKKw9P2BqqB6jkIS4lb8OmmL048ns57NwfIWXVXjwKm4q3uluqy8hxKysB26JisTf1JK6UW8Hd04ZJKRvn4aVkbNsUg71Hfke5nTsepazC3kdhmPpmd6hE0Xi9lTk7sGL3fYRMHodgmzoWU5KBDUs3ICHjIu7KK1BULMZLAWWM7GptX66QweoTMO5ijT9iN2DzniPIuSuBa2tHaIvyMQqP70Z0dBz2pZ3Cn+WWT2l8enTdEA3aqYqq+78jbecPiN2VgIPpJ3G5xAytPFtAGRZ0+ognHqd8jtUnjNHF+g/EbtiMPUdycFfiitaOxlq+2GjdrKhC/oa3MWHbY4yNSsTCIDP1cQU8mLcNRotLO5Fy2RKBo3vC6XwMFn91FDw/KVoZq+1SsbS7aA0yBB3RyVX9CvpGY6HKf786ZYZAhxuI37IZcfuP4WKpFTw8baFt7vr9s0nxkkGx/KtvDGz9sanyV9bLysYb9zWdc0kbT1jxbuJ0Qiy274jHoYw83OLbw8PZXCuRaCxOso5Deua6hii9nIqYTdsQn56HUsZPRMe/xorDcnQMcIVEzsxZi5k5i+cHaStj1VyoXP5ehDUZAnUZRbytM182OpfIcG57JNZmmcL9fhLWbTmIvHJ7tPG0gqiZcfIfieI9R2ypvPA9jXATk9DCjToFdabW1lbk28GDhKIQ+uIPxY5YdfZWKs+i1QOcSGTkSB1Ce1Gv0A7kKOGR0GUMxag3HS3bMYYsxZ7k621PXoGhJJVOpF1/ae8JJMvfSZP9zYlv7EwBPcOpu7c1iUTONPDLTN2ba8qv07f9TUkkXUzK/WbVlCa9Qy6idjTnuO6dhuR30mhBqB0Jmf62CwqjED97kohdafCaLGZkDDo2I9RCvZdRu7Ae5GjdmkL69aEuLsYksAmhxUfVmwoqN+wUk6evN9l7BVKoVEoTd93V3zaD/K8E+rfUgvhGTuQfGkZdPSxIIPGit2Lzmf7U3ddKRvk7J5O/OZ+MnQOoZ3h38rYWkch5IH2Z2fCWpPp1LKc7aQso1E5IRo7tKCgshPzsJSR2HUxrstQ9ZSMHFvUo90YTd6T+fZ3JylVKoT0CqKURjwy93qGEIvXOmZUX6PsRbiQWWpBbpyDq3NqarHw7kIdQY18l+R1KWxBKdkIjcmwXRGEhfmQvEZPr4DVU3eX6VNKF70eQm1hIFm6dKKhza7K28qUOHkIShXxBKlHor7feZo6aFB+ipaMDyYnPJ8cuQ2ns3J01squ2fdX+cO0orIcjWbcOoX59upCLsYBsQhZTjShl+bRzsj+Z843JOaAnhXf3JmuRiJwHfkkNq5rF+NjoWgeN26kiLKymAU4ips4OFNqrF4V2cCQJT0guY2JIGRZ0+shfKvtuF0Y9HK2pdUg/6tPFhYwFNhSy+GjNBr9662ZFEW0YaEx853fokGLrej3o1HHdvb30xkKV/4o79qe+zlbkKg2lHgEtyYhnSF7vJFCtuevzz2bESwY2Y2Djj82RPysbZ+FrOueSG2dpVZ8WjLzcqUtYbwrr5EImfDOSzk1Xy0J/nGQVh1jMdfWppEtRY8hTIiK7duE04CV/Jl76UligExlW+6DOOaeUtg41qvXTOjFD/1yi2iRX7OlL3vZeFBgqJenEXXS3WXHynwv75Eh+g7YMtSJhq9G09VKF8pDseiJN8TMkA6Hu5Oj21uFkKfSmqSl3leUVPDg6nXyFhtRnXaHyu9KgGedpN+MY1ewjqqlseSFFDbMhgeMQ+jZXrSF5EaV+JCVjsR/NztAVveRUFDWUadufFpyuToRKKGGcE4mli7QSplpKKGmSGwmdhtH6nOqePKDM5T3J0qgrLVNsFc8qOeIR3+FlWqfetZuKM2hBoCmJAxaQsivKwM84TbsZdKxmwCzaZr7vG+9MQpu+tPKsuu6Ki/RNBOMEblPpcLm27OWFUTTMRkCOQ76lWrGl0kdSYxL7zSbdYmOh45IkmuQmJKdh66m2q5m0vKclGXVdptpRn40cWNSjDEo8PjmPiqY/1P29mzSJPAXGNHBDEfNNTje2DCUrYSsavfUSKXssu06JU/zI0EBYE9RLmHPchE40bH1OjY09yFxOPS2NqOuybPURbeQ3ttBQKyG1Gr2VVKKQ0fXEKeRnaEBCdVBiU2+jyZGC4g00QCyil9b8xYyGQVdyxMjA4eV1VCvKBRRoKqaABYpdzuVUGDWMbASONOTbXHXwY+w/9SOSGovJb3aG8khd2IyPla7roc9Ob9PW4ZYk9J5KtWHhAR2d7ktCwz60TrFdvE4fUdk3j+9AL6/LYaYHBcWUsSCQTMUBaj9nUTcbKn+j2b4CEoWtoqssTmGTWOiPhdXjc6ZR0X+QytzvMnHBkwTGA0ll7iz8s1nxkt0Y9Ptj8+Sv38bZ+ZquuaQi/X3yEHnTB0fUFTOx9thsKdl4vUv7mEJs4qT+cbOb6+oiv7mVhtsIyf2NHXRV6UtMPEt6n9pr+mCTkyM2c4kqOeIJ29GMWgdrVpz8J9P49T5NSlKx93AJfF6fhVEeIuUhvmM/zJvSAxKNK4uamA9cgfSMvVgUVr20UQUDeyc4COS4X6yxWs9riZ4DAqBzQ4j7ydidch9t35qHcW3VF/d4tgif+xEGGOVhz85TqmNa8GA76FX0s8jB7h/PQPkcEFNPXOJdBIwYBR9dC7Pl6fgxvgD2PfrB50E2fv31V+aTA1m3l+CPU9ibcFldUB98eL3+Mcb5qJftLLrhg6l9IMlORPx59RNJTP9a9hyAgOoBs2m74hfEJ92Aw/DpeMdPXbfIE+PXpyHjwDx0rbPR2P3k3Ui53xZvzRuHWrGFY+5HA2CUtwc7T+l43IaFjsvTf0R8gT169PPBg2xFP5lPjgzdXvIHTu1FwmW5qqAeObCuh++EiIkj4KYen2VIGCO3x7hZeIv5VoLUvYdR4vM6Zo3ygLLHfEf0mzcFPWqMshzpP8ajwL4H+vk8QLZStr8iR9YNqqYS1OW0KUndi8MlPnh91iioRMGHY795mNJDor603bx6mwXfC69/PA61ovwAU/tIkJ0Yz3y7j+TdKbjf9i3MG9dWffmbsf/wufhogBHy9uxUHqmL/vE1Rdca6LVTcwxckY6MvYtQGxYMYO/kAIH8PorvV998VcdH1PC9XsfH43ygqtkC3T6Yij6SbCTGn2e+s61bD1UyVFYCBkIxDNlHyEZhGwv5ThGYOMJNvW+gJULCmLj4+CYKbzGyZhODmxUvm0Cj/vgE8m/Uxpvga3XmEp6FJcwpH/v++xk2J2fjZoUJAj85gVsX1mIgU4h1nGx03E2Y6zQoPbwHqUzbY94bDGflnMRDi94f471woxofbDJNmMd4LXtiQO0k9PfFsxcE1q4vv3EV1x/x4OzmprFWy4Nlaw/YNVCLwMIepvdS8MXbw9E3JADeTpaw8pmF9AqAqjTuq+dZwdZG917s8pvXcL2MD3cvb+2bzUw80doJuFFwXX2gDhb9MWaQHS7s/hEnGfsuTorFgYddMXJka2YaqE/VvXzk36nEtZi3ERwYiMDqT/h8pD2qws2G2qmHAB5t2qgmajVGrq6ww1+4drU2ObKytanpB6u2HxWg4Dbg7OEOofo8BQIHH0i9W6gni2rkuHntOsr47vDy1s4ETTxbwwk3UHC9ui+16NdxFe7l5+NO5TXEvB1c20/mEz4/DY+qbmrU25gcHrOvx8Ba2zZ4IogFBiA5M1nIb+Dq9UfgObvBTWOYPMvW8Kg2yqp7yM+/g8prMXg7uLadwMBwzE97hKqbBapyWshx4+p1POI5w027YrT2sFM5TbPqbSYCD7RpoyVJuLraAX9dUzgIrl0vA9/dC9qqNoGnykHU3zVhMb4m6VoDvXYqgIW9Ke6lfIG3h/dFSIA3nCyt4DMrHRUg1IYFbR+pRuDRBtqicIVKFFeZL2zr1gPfHvZ2Bqi6XYhCHUNsDmxjoYG1LbTNXQyBAUEuZz4sYnCz4yVbGvPHJ5F/YzbeFF+rM5cI2k3D6mX9IUhbjnF9OqClrSs6D56KlalX8bgpcbLRcbPXby1y3CooRCnPES6ttH3Qy9Ne5xzFhqbMYzwrDVv7O+PZC4LapfRjYGTE/DohlD58yIRNDcor8FjnD4IqXI1+DcH9Z2PXdWt0ipiI+d8k4uyl9YhQZ+i1GIDH050rG0gkMDSoqt+u/CEelAKGknqVqTFBr7GD4XQ5HjtO3MD+uEOoCB6FEa66zY4nNoSYJ0TnpbmQqZYbNT4yXFkbri6pD0J5WZlWX6mkBKXMbxkTs1pxG/B4Nb8OWLUtYuTA+FDZo0darxGoKr6MM9n5KNYK4gaQMHIxqCrFw4fajil/+IDpiyEkOn4S69cxD2JDMXjCzliaK6vTT+Yju4K14eqfVo3KQdCEegxg0NDPKAMjGDE/man0IbSHWY6KaqPkMb/+xTwIOy9FrqxOO8xHdmWtqpwWBjAyksCA6suvvOKxSv7NqreZUDnKyrQkiZISxviNTZiuShhdMhN5PRnI8VDlIOrvmrAYX5N0rYE+O318FdGvBaP/7F24bt2J+TU+H98knsWl9RH1bvrU9JFqqLwM2qIogUoUZkwj7OtuFH5LdOvsBrpwDL/c1JaPCjmurB4Ij4A3sVl59YyxUcbSqzQHXMHYIJPQqGhCLGSMvWFz1x+Dmx8v9Y2hmkb88Unk35iNN8nX6swlTLIRNGMXcgvzkZnwHZZMCIZJThSmR7yMyOOVTYiTjYy7Kfqtgc/EQRPwGR8sKdEedxmjT02pK9qt0lYMo3K5VplqmjSPGfBQI6q/M569ILBOjngtuqKzB+FMykGNlwyW43R6hu736lQVITEqAUW+HyA2YT2WzZqM1wYFw+16Li48Vihb10n14Tl0QoAr4WRSIgo1Tik/dQBpBUL4BLRXH6mPYfBYDHP7E0mxa7HrJ0LYqKFwaGjEpgGQtgHOJcYjTyPRkF/ejEmDRmDhftXlU/3IkJV2GLdr+voIxw8dQZF5ZwT5af4y0oBN24YdIfU1wO9H01Gg+rHCIEd+1EQEBU7ED1pBnAeHTgFwpZNISizUCJLlOHUgDQVCHwS0r98XNjo2DZCiDc4hMT5PtVypRI7Lmydh0IiF2F/zssPG5cC+nkbgtUDXzh6gMyk4qPHmy/LT6cioMUpTBKiEi3ht4WLzpEEYsXC/+oAmPLTo2hkedAYpBzVerFZ+GukZ1e8SaU69OlAEKPWfDSLLQtrh27X9eHQch44UwbxzkMJB0CnAFXQyCYnaDoIDaQUQ+gSoD2jCZnxN0bUGeux0W04CohKK4PtBLBLWL8Osya9hULAbrudeYH7JM5Ozjio1kWWl4XCtUTGiOIQjReboHOTHhJzEJ6q7FhG6jR2FdpXp+Oo/aaj3OqN7P+G/65Jx7ZENWrfkg2fITEh0D7dv1wwYj06fRl7116cVC1n4Z3Pjpd4xsOCJ5N+YjTfb16pwKykSY0cuQnKlI6QR4zHny21I2TsTAfI8ZJ4paVacrEcz9WvVtRt8cBaHkq7Vtl1xBmnHbjIeo4ZnyCQthHu3b9cee3QapxtSTLPnsacUz/5JMFkhS2R05fshZC+wIOmElbQzKZGiFrxM7obMTxmdN2Q/VN4ALTCV0pToo5SVnUnJUQvoZU8TEgqE5Dc3U1mr8iY6USeKzFGcr0brBjMZXfx2INkJLFXtpqbTgaj5FOEmJsM2U+jAHfU5OqmkU/M6kNDYhExsXqGYRsvK6eq2UeQkkJDn4Pm0KSGVkuNW0Jv+ZiRoMZg2XmH6x/KGbAOBLXWfupb2JCXQ93P6kbPYlLoszlTdZKm82VREnSJzNOpg0TZT5vr2V6ml0JI6v7OG9hw+TPFfT6VAGxG5jY+n23LtG7JJdpG+HWhHAkspTVi5k1LTD1DU/AhyExtSmykHSLcoWOhYfpW2jWL0KvGkwfM3UUJqMsWteJP8zQTUYvBGUnaVjRxY1KO8EVIUQAtVj9+pKNtNr1uLSLrorPKr7Mr3NMReQBbSCbRyZxIlKmzM3ZAMUHtDtvzqNhrlJCCJ52CavymBUpPjaMWb/mQmaEGDN15RlqmH7Ap9P8SeBBYq+SUlRtGCl93J0AA1N0uyqVfvDdllP9KrFgJyilhMW/YzY9J5Q7YBCWy709S1eygp4Xua08+ZxKZdaHGm6u5Q2cVvaaCdgCyVMkil9ANRND/CjcSGbWhKQw7CYnysdF0PPXb6IIHGMTIzlU6h6KNZlJ2ZrLQxTxMhCYR+NDeTGbVOH1HfsGwgINvuU2ntniRK+H4O9XMWk2mXxaQUxUMWdTPILu+hT+fMpfW/VD8KpYu7lPKBHxnxLch/7DLafiSH/rx+hc4cWEuTutkQX+RJ43ffYEarENM66mfGJ5uQ6bT5QBoTnxbQYC9bMjcSq22QTSys479qyna/TtYiKS1SPkXCJgY3L17qH4PaFhvzR5byrwsbG2fja7rmksrTS6izkSG1HraUYg4dpZ9Td9Dno71JYhpC/1GUYxEn9cchdnNdPeR/UdzrriQ070BvfvEjHUjcSouGeJCEkYWmD67rZ0Z8mxCavvkApTG+vWCwF9maG5FY5w3ZbOYS1Q3Zok6RpDntNitO/oNpQnKk4B6d2jiVere1I2ORhGzbDqSZs4eRk6Gu5IgRdmEyLRnqT46McwgNLcmt6wiaH5dKn/aUkPmgjcoa9SdHCh5Q1pZpNMDPkUxFIjK286aeb31GyQW6nU0TWc4y6iLiUYvXdtY87tswpZS7fSYNCXAmC7GAhCb25Nt7Cm04pT6TVXIkpPbjI+m9cA+mDglZegTTG1+kUc2DGjoDvwI9bSsppZyY6RTR3omRg5CM7NpS3w+2qZ/w0BFcH2TRlmkDyM/RlEQiY7Lz7klvfZZMjYtNn44ZSnNp+8whFOBsQWLG+U3sfan3lA1U01U2clCgpx42yZGCe6c20tTebcnOWEQS27Y0cOZsGuZkWBPUFZTmbqeZQwLI2ULMBGoTsvftTVM2nGrcJu6doo1Te1NbO2MSSWyp7cCZNHuYxmO2DPrq1ZscyW9T0szu5CDhE99hvFp2dZIjYXsaH/kehXswcpJYkkfwG/RFWqFyYq7mQdYWmjbAjxxNRSQytiPvnm/RZ8kFav9pABbj06trnTRmp3IqTF5CQ/0dyUQoJENLN+o6Yj7FpX5KPSXmNGjjDWbQDSdHwvbjKfK9cPJg5C2x9KDgN76gtBqjYlE3Q/nhqeTGF1HY6gLl9waRXadDkcPIz0rIJNvKVQyCAZ9MPfvRrF2XVU9HKqmgSztm0ADfFmQklJCNd2/6d/QP9KGPpDZB1xsL2SRHClj4Z7Pipf4x6PdHdvKvC1sb1+drOucSZlyXd8+loVIXVVyVWJNn91cp8sDVWtvSEyfZxCE2c51Oys7T9un9ycdOQiITJ+r8ry9oVh/mbw0frLi0g2YM8KUWRkKS2HhT739H0w8f+pBEZ3KkQN9cojs5UtCsOPkPxUDxH9U1pH8m8t//gx7+a9B253l817/Ooy9Pm/J4vOEyEufezcRv/8tvK+Xk8NQoj38DLiPP4d3M37Dof/rV5+WIf8MFI8+9i8zf/ua3wD++g8vZ55FfXAnDFl7o4OtU5+WEHE8CZ+OaPMK2YbYYd3sJ8tKmw625d2ZzPDH/cBd/iN82bsMp5xF4M/wZJ0YcHBz/TETW8JAGI7xXGLr7cYkRB8f/Av9QN5fjyroR8PHwQK//3saAudMQqOPBGg4ODg4ODg6Ouvxjl9Uen9+NlXE5MO08Ev8a4KX7BZNPm6oiZP90GiWuQejuYaI++D8IJ4enRlVRNn46XQLXoO743xZlFYqyf8LpElcEdfcAZ1X/HDgb16QKhadTcfZxa/To2qppr6DgeKr84+854uDg4ODg4OBoCtzqOQcHBwcHBweHBlxyxMHBwcHBwcGhAZcccXBwcHBwcHBowF/EoP77/xEZsmMW46ujPPhJW8FYnou4ZauQKvNBZ3cTGKhL/bOpI4OnNGhZbhyWrUqFzKcz3A3PIWbxVzjK84O0lfHTl+vDYtzjSZ7aTuYNIjuD6EVrkCHoiE6uuvYOq0PVTRxe+wnWJ92EXWc/tNDcEfW5QYbcuGVYlSqDT2d3mDRXOXVko6X/Zlf6P4gsW8NXxDjX1PjUVBt97pHh3PZIrP6J0K6T21OLT0+PKtxJ/wbLvtmJ5JQUpKSkIvVwGo78fAK5hZWwcnGFlaFGp6uKkPb1cqw/dBsOXdvBrs7rleRXErDiix240bI7fGx4kF87gFWfbcEF8yD4Ozb3XUzPJsY/Hf7Gvr0ovqG4Ifv/n1KKHWlGom6fkPJFwvXe+Pm/QB0ZPCW03u6q7w3fT0DZL8spzH0grf1L8522z4jSrTTUSKT1BuzGqDyzkAIMrSj8y2zV1iXPJbrfkNxk6shG59t9OfSj5SvNiE9NtNHnn4bfqvx8IKOLnwaSkGdMjl6+5OvLfHzakpeLDRnxDUjYIoimx2u8FVuWS0u7CAkGphS49HS9uFCR/j55CB1ofGKZ6vtvs8lXIKaI75/kXdHPJsY/Hf7Gvr0gvvF8LqsZDsaWogqc5N6u/MQYDt6CooqTz/zNs+Xnf8axgnKdO0X//yJDzk/nYTthHTZNa4fn93VXhhi8pQgVJ5/u25//Lv3/T8HFp+cXfgA+TMrCuXPncC4nFxfyb+Hm2W0Y73gWK/81Fl+e09hUVQGV4NfP3sUXZyrUBzg4VDRhWU11WXVtlinc7ydh3ZaDyCu3RxtPK4ggx62sBGyLisXe1JO4Um4Fd08brXc0VN3/HWk7f0DsrgQcTD+JyyVmaOXZAkbK9KwSOTtWYPf9EEweFwybKo3L1i1y8P2SNYg7pLhUqv356Q8JAqQuynYar7+xvmugdSm9etlJhjPRi7AmQ4COAa6QKC+pf4VTZoFwuBGPLZvjsP/YRZRaecDT1rDRpaomyUB5rBSXU2OwaVs80vNKYeMhwvGvV+CwXL1kkh2DxV8dBc9PilbV10EbW1YR52LHit24HzIZ44Jt1DecNa472bntiFybBVP3+0hatwUH88ph38YTVhqCK8nYgKUbEpBx8S7kFUUoFrdDFzfFC0v01K3o21enYBbogBvxW7A5bj+OXSyFlYcnbDUvgeMhLiVvw6aYvTjyezns3B8hZdVePAqbire6mzas26r7+D1tN9LyeTDn38alP0pg1soTLVQCb5DSy6mI2bQN8el5KLXxgOj411hxWK7WPwsbUXddfisLCduiELs3FSevlMPK3RM2Db64RHtZzfD805CNpe5lNVkRziRsQ3TcXqSeyEclM0Z369q0sVE7lZ3D9si1yDJ1x/2kddhyMA/l9m3gqWkQ1chu4nRCLLbviMehjDzc4tvDw9lclVCw8TXNYWrQeP8U/rkaJ4y7wPqPWGzYvAdHcu5C4toajnVebd2ofipzNHzFHOcbik81y2qN60HJ40Ic3x3NyH0f0k79iXJLd3g2bBA6UNnIV6fMEOhwA/FbNiNu/zFcLLWCh6ctNM3iceFx7I6ORty+NJz6sxyWmmNTymgNzlh0RYtru7Fp0484dKoQYte2aGlaiatHf8DGLbuQml0MM09v2CsVIcP5XSuw804gJvQXIGXjJuxKy8EdIxd4OZqoY8mTzRG1PMbZmEisTiqBezdvWNao7TGymeNfHTVAB2krGGnZB+HuL5uwNo2HXu+9ie61J0Fk64d+PcRIX78J+0s6452XvSCi2zi68Rv87DIYA8vSsPUXEfq/Fgp7dbYrz0/C2qhctBo9DS+3FkB+PRXffv8rLAfNwJiODeus6TFeB/JbyGL8MyqW8c+TV1BupWEnzdSdwm5WnzBGF+s/ELthM/YcycFdiStaOxqrdae7b3pjmDLG7sQPsbuQcDAdJy/rirEsfIPRbeHx3YiOjsO+tFP4s9yyEfv4m1BfQWKB6rKq2NOXvO29KDBUStKJu+iu/A6lLQglO6ERObYLorAQP7KXiMl18BrKUl2RpPKs1TTASURGjh0otFcvCu3gSBKekFzGxFCBchWmkcvWxYk09+X+1L+/4jOABgyMoIgQTzI24JPj6zvpLqv6G+i74p800bnsVEpbhxrVbgSo7JuYOvbvS85WriQN7UEBLY2IZ+hF7yQUaW2UqEmTZVB5iaLGeJJEZEftwgfQS/6OZO0bRoEaG6rq3NS0sWWVuuNjoTvlZo5iT/L1tievwFCSSifSrjqCKz60lEYHOhGf70hdho6luTuvsqtb0TdxR+rf15msXKUU2iOAWhrxyNDrHUooUkuy8gJ9P8KNxEILcusURJ1bW5OVbwfyEFaPsQHdlmfR6gFOJDJypA6hvahXaAdylPBI6DKGYlQC10ElXYoaQ54SEdm1C6cBL/mTo7UvhTFjq9mMlY2NMFZwJ20BhdoJGX23o6CwEPKzl5DYdTCtqR58PbSX1Z6ObNT1aCyryf9KoH9LLYhv5ET+oWHU1cOCBBIveis2XzkevXaq3BRWTJ6+3mTvFUihUilNrGsQCirO0qo+LUho4U5dwnpTWCcXMuGbkXRuOpUo/p2VHOujv3+q2NEurAeju9YU0q8PdXExJoFNCC0+Wr0kwkI/TVlWY6EHWf5OmuxvTnxjZwroGU7dva1JJHKmgV9mquTBCpWNiDv2p77OVuQqDaUeAS3JiGdIXu8kkMosZJS/czL5m/PJ2DmAeoZ3J29rEYmcB9KXmeqWlP03oo59wqmlbWsKDAsiL0sBCV1H04IZoeTk4ENBPaTkbMwjI/859ItSJCo/Ezi1pw725uTk3526tWH6IrSlnkuP0QNVxc2eI7SR0/Vv+5OpSEqLazbcZShNondcGN3OOa5jOVO9rCbU3IBXA/kN+qavhASe0yhdsWOwellN/PImurBtJDkKtJfXmrOs1uQYrwP5nTRaEGpHQiZutQsKoxA/e5KIXWnwmixGugzN1J0ytrQLox6O1tQ6pB/16eJCxgIbCll8VL2pbN2+sfARNjGWhW8wzkE7J/uTOd+YnAN6Unh3b7IWich54JdUbbL/HzQ5OeIJ29GMYw/Vx4hKkiaRm9CJhq3PoeqjDzKXU09LI+q6LJv5dpu2DrckofdUSqmJoQ/o6HRfEhr2oXXKHbX1BB9NHhyjhYEWZOQ3jQ7dVpzLpn7dfa/H/7V3HnBVVv8f/9zNZchGhogMQUEcDBE3pKa4NbUclas0LTM1zUGm2bbSNMufGyW3AqIoKzSlNCeCI8lUEEEUkSHjXr7/5w7gXrhwHxDL/j3vXreX93CeM77rnPuc5zyH9eSITwLHMRT2p9qVHsbQNDchGQ3cQDmqlBo0VAZyyt4+kqxELvTa3tsqGTDOHfNOezLgiaqM6mknR/p1x1yvmBwxDt5u3qmqPLrI2xBCEvELtEb9zBGrshVt4wvIcUwYVYtyGrkJjWjgBoUk5XRv63CyELWil7ffUJ2CLsuk6BneGnLQrdtcRn7mIg+aWS1wenxiDnmJDKjfuix1ijby7O000kpELq/tpdsqodO9mHeovQGPRA2ZHBUw9uAsIocR6ym1uvP0SW9zMgxYQSm1IzuDjsnRU8tGXU7V5OgxHZrsSCKrF+nbS8oj8pmo/wf9MIgJxs4zKaGEhZ0qJ0dMAGw3j+pzJeXgIvag2cfV9TBTgFMLfMnK/S06pLiuUZMjNu1T+6fdEFqXqq47L5lCA01I4hNK5xViYKMf1pMjFnqQZ9G2EVYktB9GP6apBxZ5DsXP9SUjiTctSK75xEtdqGyEL3CkMWF/qgfyhxQzzY2ERgNJYRbyrG00wkpI9sN+pOqq4mmurxFJvBeQsqpKGbUYTdv/UhljQdwMchXySNJxDiUq46qccnaOoeYiZ5qRoLxI5WcCWwpZdUE1oZNnU9wcpg8GfrRMaV+NHSNqI8/ZRsPNRdQx9HzVGFAQNYkcJL60VHPCVIWeyREjrdhpLUkgHUpbFY2vmhxtoQJ5Bu0YbU9Ck6604oJKqg2fHDVinKtFAaNLZxI5jKD11YZJZz7pTeaGAbRCYZiN1J3KbuxoyLpUphUK8ig5NJBMJD4UqnSKGm1j4SP6YyybGCWnrG0jyEpoT8N+TGNaqoBpf/xc8jWSkPeCZGXKP0FdN/bqhN+iN0J8Kg/jKEHSnghk2PZCf8/HSPn1V/zKfFJlXfBCR+BcZBSTxxQDVyYhOXIpgirvoFXwYOtgB6E8H3n5DXhKRX4T26e+jE/Tu+CLnV+gr6Wi+ezL12770yCAw6CpGOWsXoow74Egptyy7Czcl6uStGmoDIqQcDAe+W3H4u2hjqplCH5z9F34NoK17yU/BWx0p4bfAr1DfBpwBEsDyhY4YNDUUagWZRB8jMqQnXWf+VaA+MgEFHhOwPwxrqolUIE9+i+egV411lxq6tZ04EokJUdiabXAwbN1gJ1Qjvy8fHWaNkUJBxGf3xZj3x4KR5XQ0bzvQrwdbFjvcmlNSpL2ICLDFr36e+Jxiqrvv6bK0EXVeUSl6zSS2jSRbKooPYmImHuwGzkHb3obqtLEbpi8PhHJRxYjQMLWTvlo0TuEaYv6qw74ZuYwpVs49M3n2BKbguxSYwR++jvuX1uLgY12QbbtE8B9wkJM8lT30awLZs/sB2lKNCKuyJpOP0pY6CE/Fgfi8tF24mJMaqteKOBbI3jRXIQYXsXBfedUaSwROAzC1FHO6ufnzNEjiPHNsmxkMcEnP/YA4hgbnrh4EqqrCsaiuSEwvHoQ+86VqRIZHdoOmIiXnFTrSMY+HeEuEKL9yEnooYyrfFh07ABnXh4ePKiWh8D9VSyZ1kF1fAvfBi98MBMviC4iKuq68u8KGj5G1IZvPRiv9DdD6oE9uKB8TCgfsbuj8dBnFMZ4qte+GohAKGDsRQ55TfXyHfDy119ihMlpfPbWSlxs1ONHTTDOlSRhT0QGbHv1h+fjFJVd/poKWZcX0BHnEBmVrs7YWN1NwMJJnlB5hRm6zJ6JftIUREdcUaZowsZH9MdYNjGK0euBOGasm4jFk9qql9H4sA5ehLkhhrh6cJ8y5Z+g4ZMjC2tYMTampOIRbt16gPI74XijeyACAys/wViSWIyK7AwmkxBmtiZ4FPcV3hj5Inr4eMDB3AKe85NQCkJFhaoo/eTjxIdjMCPSGFM2b8V0z8pnHNiXr9X2p4IHS2srJgRXwodYIgSPGMfT6QMNlIH8PjKyisC3b4lWGnGAb+4ON9sm6QBL3anhW8C6IYJrSNk8S+2y+WJIhDyQIoLJ7+F2ZjH4js5w1pJDa7jaaJtuTd0KzWxh8igOX70xEi/28IGHgzksPOcjiQl8pNPo5LifkYUivj1aagsd7m62GrrWRwUe3bqFB+V3EP5Gd42+ByJ4SSKKK7KRkVnjodC6aCLZVFGcgYxcwNHVBZpvMxDaecLXozkTNNnaKRN8tey/NsJ2s7B6xQAIEz/BpH4d0MLaCf5DZ+Lb+NuoHJ4bDtv2CeHapo0qGKsxdHKCDe7izu2yptOPAhZ6kGffQeYTAVzcPZiWaWDshtYOwL2MTHUCO3iW2rbOF0sg5BEz6MuQfScTTwQucPfQqompqjUccE+jbzxY2WrYNV/A/JsHEzOz6h8CQqHy75oHTAlatYaHpmBNnNHKhukDU28lDR8jdGGGAWMHw+baAew5y1hMXgx2HSlEwOjRaF2f4dVJOXJy8pg5jBWsJOokDfgOL+PrL0fA5PRneGvlRZSxmMto8/TjXMWjW7j1oBx3wt9Adw27DAxegsTiCmRX2UnjdCd0bYM22k4BJ0Z3d+/cVidUwi6G6Y2xbGKUPBt3Mp9A4OIObZM1hpvKOdTf/34aPDkCjw9+pQb4EhhI+BD5f4w0mXKJTusju7mWkfNthI3vjgEL9iPT0o/5JbwEP0Rfwo31gxrwsJUM6Zsn4ZUvbqLzJzvxdYhNdcMbUr5m2+uAx/y9okLTM0pRUipnzFsbniIjWxoqA4ExmhkLQEUFKNB0KnrCtEWzJTzmvwpoN7cEpbpnaNqw0V0VPPD1CU6TBpZdpyh5hjBkfmFQUSEKtYIL08ea0UtLtxW4HTYe3QcswP5MS/gNmoolP0Tj0o31GFSn0Qlg3MwYAipCgbbQ8aREEd6qqd9G+JAYSMAX+ePjNFmtvpPsJtYG64jOOmki2VQilsKACUBPiou1+lORl44LKbeQV8beTnl8PtO6emAmld3m7Uda1i2cifoflk3pDuPUbZgzaAiWn1ZNj9j6WhWs/YhQ8uQJYwXVUEEBimDE6FjYhPphYKEHnpSRO68CRYWFWm2CvBCPiwADaZ1GqRtGcLplz4OUKYtXUYRC7cYwVT1m+m8AadVLyHgQMDpsKFTyBE80i64oRFExYMT4ThUNHSPqwLjPOAx1SEfE3t9x7/BuHCvtjjGjnKonBQ2h5Ax++b0Qkg7+8NGcIFTBh8PLX+OL4SY4/dlbWHmlXJ3OkiYY5/gSA0j4Ivh/nAZZDTkRyXBzbbA6ZxPpjpjxhbE/I+Nm6oRK2MQwkf4YyyZG8aSMTTKjWK08chSqnEP9/e+n4RLWwgQ+vm2Ay9GIuKrxa0ueji3TBmPUh4dRkRONbVE58Jq9C1HrV2D+9PEY3N0ZmWnXmF+QzMCu7cM6qEBe4kKMeicaRq9vRNg73lrbsZ++fA34BowjEx7l5jKqUVN8Huev1rwP2zAa3kYLBHTxBC4dQ8yd6j+WXkjEqezqtvANGGeiR8jNrU4rPn8e7JqrX3cNQTFYVtNEZfObI8DfFXQhDkfvVcuh5HwSknPqUWxFDqK3RSHHazZ2Ra3HivnTMX5wdzhnpuEaMy5X1GEUFgFd4IlLOBZzp3oQK72AxFPZ1fbAwkZMfHzRBpcRHXGVmdZXIkf6lmkYPOpDHL5fT9vZ0hjZGHSCrxcP108kIaOquXLc2jYV3QKnYkdqVBP5UgXuxyzHuNFLEVtuD99Bk/HB1zsQF/k+fORXceZCfqN8jb0fyXAxMQG5Vd+LcfrYceSY+qObt7hp9cNCD3w7P/g4Ec7GRCNLo+iSc0eQmCGCp097dcrTwoednw+c6CxiorOqbZgZjM4dSUSGyBM+7XXODFgju3wCP1cLFkW/HsOJXDP4BrRTp9TkKWKBQXeMG+GMv2J2Ye3+n0FBYzDcrjFDVhnS1n+K8Ntm6D9hBOosgu+AV775AsNNTuPz0L3IqXOWXpsmGYdMfKASVQS0RbUF0waPwoeHFcvpjUd2MREJGrorPn0Mx3NM4d/NW51SjV4fyb6nP8ayiVF8O/j5OIHOxiBa2zlwJDEDIk8fdcLfz1NOjoRoP2UeRlicwbJhLyF0yyEkxO3B11NewqyNZ1Du5Am+iSNaWhHSozdg5y+XcPn3OIR9OBqvrvuDub4UpU/qt0D59Y14fdw3uOExHcsm2uH2md/Ua7G/4rcz15Fn9HTlayHuhC4+UqSHLcTCrTH4OSYMH46djt0PxE8lqIbLQAjvNxdgjFkCFgydjJV7Y3B4x0d4edxq5teXOguDuFMX+EjTEbZwIbbG/IyYsA8xdvpuPBCzaa1+3TUEiYkJpBVXEfO/7TiSUtBEZYvhN30eBkoOY86QN7Fq/1EcZvo4hpHDFQ051IJvAseWVqD0aGzY+QsuXf4dccx1o19dB6XES5+o8tVA6P0mFowxQ8KCoZi8ci9iDu/ARy+Pw2ptoeu1EWH7KZg3wgJnlg3DS6FbcCghDnu+noKXZm3EmXIneFo8pdspaYRsBG0w8b2RMDseitEz1iIiMRGR697FuI9PovnLM/GKm1MT+RIf5rbAH9GfY8brK/BT7C84mbAP3yzfjlSDznihu0WjfI29H1Ug9+C7GD7re0QcPYTNC0di3Pd30ent9zDErKn1w0IP4q6YMbcfREfmYeibq7A/4Tjjq6EYNW4V0l0nYt7Ylsps8mv78MnCxdh0ulj5vTGIu87A3H4iHJk3FG+u2o+E4zEICx2FcavS4TpxHsa2fDrbo0eHMP/l+dh0OAHRmz/AiPE/4J7fLMweZKLOUZOniTNidB43Cm2ubcS3x/jo8/JQNNfb/FxcPrwLP/30E/MJx7b1K7FwfA8Ez/0Z0sGf4dNXbOuN5XyHV/DNF8Nh/vC+9l17PTztOKdE2B5T5o2AxZllGPZSKLYcSkDcnq8x5aVZ2HimHE6ejN88BRW5B/Hu8Fn4PuIoDm1eiJHjvsfdTm/jPYVT1ECvj1iZsoixbGKUGF1nzEU/0RHMG6rIk4DjTCwIHTUOq9JdMXHeWHW+fwBijWongq43pBal7aT3h/mQo5mEhCJjsvXqSzM2nFNvEZRTVuwyGt7RnoxFIjIwd6aAUUtod/xn1FtqSoM33lOUUOdukPuKXVBMMxVNrfnhGQ6n7UVsyq+77TUpvbGX5oV4UXNDEUmtPKjvu2H003ueJNXarVZzJ90TOjDBksS+S0nnRorGyIDhyZWdNGeAJ9lIxWTs4E+vfjWf+jH/rtyJxLSWbuydRyFezclQJCUrj770bthP9J6ntCpPfbvVFNSvO+Z6xW41sR8t1yM4eW4Mvd/VjqQCAdlNjlam6S1bayeVmicHaIKlmHyXXlInED06t5Fm9m1LNkZiklq3pYHvL6ARVa800K1beVYsLRvekeyNRSQyMCfngFG0ZHc8fdZbSqaDN6pz6eDJFdo5ZwB52khJbOxA/q9+RfP7Mf/W2EGl10YUFKXRzveHkY+jGUmEIjK29aK+MzbQubo2uzD9qLVb7allo6ucIkoNn0OD2juQiVhEhjZt6cXZO0i1sYuFnSp3q4nJb3lqlQ3pppTSDyyi4b4tyUwiJJHUkty6vkLLj1S/pZiVHLVg0z6Ff4qo/eTl9HawK1O3lMxdu9NrXyWScsNQJfr0w3q3mgp9elDsOrq4dRaFeNszcheTkY0H9Z74OcVmVOu35PAUchBIqP/6XHVKTbRtpJInByaQpVhjF9fji7R1Vgh525uQWGxENh69aeLnsVRVla4Y9mgTDZKIKfi7TEbKKmQ3vqBuYjMas1thHCo/M+gXShtnBZEr49MS05YUMP4rSsquvKKxY0Q9yFJpRWcx8ZuPp331ZlbvVtMcH3h8EhlaUMsOfWjSJ4coXbURTYXmbjV1UhXyDNo+yp4E/IbsVmtcjK9NEaXtfJ+G+Tiq/MbYlrz6zqANlYbZSN0p7EbUfjItfztYqTupuSt1f+0rSqxyCh1t0+MjbGOsft9QmOxWmhXiTfYmYhIb2ZBH74n0eWyGxhj798NT/I8xJI5/A8U7MMJ6EnKXXcXxOc7qRI5nSzF2jLDGpNxluJo4B86NeuCB42+jJAKvtRyNy2+dwW//ujdYl+HX+d3xbcdE7Hyl0Vv6/n8hv44venXEmrb7cOV/AxqwY5ajmhJEvNYSoy+/hTO/Ne0b+P8/83T3WDk4ODg4mgT5zb1Yc6otRgT9fziotmko/G0jdpxzxKjXg7mJEcffCjc54uDg4HgOEDj0wZf7N2K0LReW5TfXYZSnK1z7fIPckEWYFdiAHYQcHE0At6z2b6IiC+fjL6GsdS8EtGrg9l+ORlKBrPPxuFTWGr0CWrHelsvxD1GRg5Sfz6PAqRu6umpsL+f4d1F2BQe+3Y1UE3+MfjUE7txto6egAjkpP+N8gRO6dXVVvcCTQy/c5IiDg4ODg4ODQwPu/i0HBwcHBwcHhwbc5IiDg4ODg4ODQwNucsTBwcHBwcHBoQE3OWKQpe3G8sWrEa/xinN9FOY90nit+rNFdiEMoYt/wIk8pn2yNOxevhir4+9pHA9QN43pW1MhSwnHh4u/R1JTHJdRSY3+P5M6niUN1N+zRMuuGsmzkr9222RI270ci1fH4x8w43rR9i8ZLu/8CIvXJKLO023qtV8W/ZRdQFjoYvxwIk+d0EgaVY4MF8JCsfiHE2i0ychSEP7hYnyfdP8ft38OjvrgJkcMsj+i8d2XW3GivvO6qijBqU+D0WFCOP6u8bgs9QBWfhmO049I0VhEf/cltp7IYTc5alDfmpayKxH49sswJD9swmf+a/T/mdTxLGmg/p4lWnbVSJ6V/LXbJsMf0d/hy60n6p50/ENo+5cM16JWMe08idy6xFGv/bLoZ1kqDqz8EuGnH6kTGkmjyilD6oGV+DL8NBptMmVXEPHtlwhLfqh8jTUHx/MKNzliMBi6FTmlZ7GU1atDS3Dll1PIKPmHXNtgKLbmlOLsv+7tv03Ev73//3X9NQoDDN2ag9Kzz9/bfRsWOxjq1f/z208Ojv8agqUM6n+zoygd8eGbsSMiCVeLrOAqPo3vVyZA3skHTlI5UsI/wncn+PD2bQUjnuoSxS3ypWuSIVTmUSXK719E1I5t2BUZj7M3S2Dh4garOl8io7hdvRxrL5rAJT8G67YexdUSW7Rxs4AYcty/GIUd23YhMv4sbpZYwMXNqsb7aIrwZ8JObNlxEImXH8G0VTOkbPwCEXkeCHRrprw1vmJVPGSe/nAxZtony8b5qF3YuTcCx5Kv4r7AFq6OpkwwK0Dyho+xISoZfzyUozQnD5J2HVF06OM62laB/OuJ2PfTLuyPOoqks+koaNYKbs0N65+VFt5A7I7NCI88juslNnApjsOqyGIEzXwdXU2uYveKVYiXecLfxRgqacqQc4GRQdhuRga/41Y5oxcXSyhemya7dhDf7MmB/5ThMEvehk27DiP5j0KYM/K2VutCRRmyTh9AGFPGocRz+KvEXIcca1CRj+uJ+/DTrv2IOpqEs+kFaNbKDc0NVb0rT92LlQfy0WP6JHS3Uvf4ae1HdEWr/zIdddRrW7LL2Ll8LS6auCA/Zh22Hr2KEts2cLPQPq1cdnknlq+9CBOXfMSs24qjV0tg28YNimx1l1+E3zYtx7pkPtprtJ9RKH7duBw/nJPCv30BImroT5Z9HlG7dmJvxDEkX70Pga0rHE01Rkc9clba73fn0CzQDvcitmLL7sM49UcRLFwZHRto6Lg+uzJX66csC6cPhCFs9yEknvsLJeYucKvbMXXo+BnYvHkF0navwKp4GTz9XaBw0bp9VPG3NMZGVuN3o86w/HMXNmw5iOOpDyF1ag17I+1WlGWdxoGwMOw+lIhzf5Uo/aKyu2zkqh075LiyfyX2PQjElAFCxG3cjP2JqXhg2BLu9saq/ivbVpf96ugnYzs3Yndgc3gkjl8vgY1LMeJWRaI4aCYmdjVXZNBrHypYlKODwhux2LE5HJHHr6PExgXFcasQWRyEma93hcpk2MRfDcpTsXflAeT3mI5J3a1UMmHRfr0+ogNZzgXGTxndMn76+61yWLm6wLLqXZJ67FRnnHBDWdyXWP27ETpb/oldG7bg4PFUPJQ6obW9kZZ9V+RfR+K+n7BrfxSOJp1FekEztHJrjuouyZB9Pgq7du5FxLFkXL0vgK2rI+rqktLOVv8Oo86W+HPXBmw5eBypD6Vwam0PLZOuV5b1jKOsbOg/huI9R2wpv7GNxrpJSWzTjoJDXqCO9pbkFRRIDgY96CvlSZG6D9Yr2j6cDMWVeeT0IDGUetqIyNC+HXUL6kHetlKSOA2lNRdVh/zVRnWgocTNizxs3Smwpy/5Tt1PD+UPKDG0J9mIDMm+XTcK6uFNtlIJOQ1dQ1VFydJp+wR3kgqbkZNvN+rsbkXNnLuSfwsxtfvgtDKL1uGcpZdoVb/mJDJzoc5BfSnIryUZC5qR76IkKqA8OvbxyxToICCBfWcaPm4R7btdpLttVEIXV4eQg5hpW4ee1KdPT+pgLyW+qCWNDc+oOiCwJuXXNtEoZwlTvzP5dfOn1pYW5NXBlUSV8qt58KD8LkW960tmAkNy6NiTggJcyUwoJfeJu+iWMjvTN6Edte/oQOZOvhQU5EdOxnyStJ5MB+6pWyG7RfumdyRTgRE5+vSm4K4eZCkWk+PAr+lMrVMZ1ZRcpNUhDiQ2tKcOPftQn54dyF7KJ1HLsRSeoSq3aNdoaibuQp+qjaFJ7KdG/7XrYGFbyoNTJeTm5UG27oHU09eXpu5/qPqbBsoDdyVu5OVhS+6BPcnXdyrtf6ivfBld+7wbGZj0px8yNTT8IJxespBQwIo0ktVof+mlVdSvuYjMXDpTUN8g8mtpTIJmvrQoSS14FnJW6ljSiQa86EgWjI579vKhFoZ8MnB/k6JyVHn02hWD7NY+mt7RlARGjuTTO5i6eliSWOxIA78+U/twTjXa8n9GNl/zwNV6fVSRXSXjdkG9yN6yNfXo3486tzQioVUP+uhE5cGhMrq1bzp1NBWQkaMP9Q7uSh6WYhI7DqSv1UbPRq7aB/uq4pTQoT11sDVl/LErdWljTRKRNfX++BQ9Vl1Qj/3W6Gf5Ndo0ypm53oyc/bqRf2tLsvDqQK4ijcOnWdgHq3JqUU7XNo0iZwljm85+1M2/NVlaeFEHV1H1Icxs4m9Nah5+zaL9en2kFnK6G/Uu+ZoJyNChI/UMCiBXMyFJ3SfSLkVQZGOnOuPEXZV+2gVRLyZ2te7Rn/p1bklGQivq8dGJqkN0Sy6uphAHMRMjOlDPPn2oZwd7kvJF1HJsOKm6VEqXVvWj5ow+XDoHUV8mJrc0FlAz30VUV5dUdtaOgnrZk2XrHtS/X2dqaSQkqx4fUZVJ65VlHeMoGxv6D8J+ciTPpu0jrUjk8hrtva3wXCbpXgy9096AeKIGDG4FMTTNWUQOI9ZTaqE6w+Mz9ElvczIMWEEpqqJroFIqX9SO5p2qvEhR1DRyFjnQiPWpVF3UJ9Tb3JAZiFKYb3K6FzaSrERONGbrNcYlGGRZFPOuDxnyRDonR6VJ75Cr2INmH1ceU85QQKcW+JKV+1t0SFlJHm0IkZD4hTV0V+VFOttGudtppLmIPGbGMRMlNY9P0BwvERn0W6d9Qngl8nu0dbgFiVq9TNtvlCqTZJnRNMNbQ8Y1guvjQ5PJUWRFL357iZG+glL644dBTMByppkJJaq+8QWMvDeRukh6/PMsaiMypkEbc5hvcsraNoKshPY07Mc0pjcK5JQTP5d8jSTkvSBZmVKT3O0jyVzkQTPjqicWj0/MIS+RAfVbl6X8rhX4m8p+6htc2NiWMugxjt9uHmmqqybKyRET0NrNO1VlW2zKl//1Hb1gZER9195WBVmFLLcOJzPDXvR1es32l1LSO64k9phN1eZ2ihb4WpH7W4eU9bKRc6WOHceE0Z/qk8cfMr7hJjSigRsYHbOxK3kWbRthRUL7YfRjmnpkk+dQ/FxfMpJ404JkzSPNq9GS/7Oy+RqTBr0+qpQxnwR2Q2hdqjpPXjKFBpqQxCeUziv0lLWNRlgJyX7Yj1Td3Xia62tEEu8FpOiuXrkyaMYORTuVsUBgSyGrLqgmaozdx81hZGjgR8sUeVhPjpjYxdiNhagVvbz9BmMpDLJMip7hTQZM7Kqc1Oi3D3bl1ER+bysNtxBRq5e3q+OGjDKjZ5C3AY9E6smR/virgxqTI/3t1+8jtXh8iCY7isjqxW/pkvqa0j9+oEHMjxrnmQlUwsZOdcYJlX74Ajsasi5VHW/zKDk0kEwkPhSqMCzKZeKcOYk8ZlJ1lx7TiTleJDLoR+sUhZcm0TuuYvKYfVxdhqJLC8jXyp3eUg0ytai0Rbsh66japEMp0ERCPqHnld/1y1L3WMUmxvwXYX/PrCgBB+Pz0Xbs2xjqqLr3x2/eFwvfDoahxp17fZQk7UFEhi169ffE45Rf8euvzCdVhi4vdATORSIqXa7OWRt+i94I8al8j3wJkvZEIMO2F/p7PkaKohzmkyrrAlVRUUyefBzddwz57SdjyVh35TITBLZ4MfQ99DdVfKkN38wcpnQLh775HFtiU5BdaozAT3/H/WtrMbCeV9hrt43BdCBWJiUjcmkQKm9aV/Bs4WAnhDw/D/m6HlkqiEdkQgE8J8zHGFfVMo/Avj8Wz+gFrRWwKkpxMiIG9+xGYs6b3jBUponhNnk9EpOPYHGA+h4y3x6Dp4+FukiYBPSCX7MyZGVkM9/yEXsgDvltJ2LxpLbq2+F8WAcvwtwQQ1w9uE+ZUhPTgSuRlByJpUFVvQPP1gF2Qjny8/LVaRo0kf3UB3vb4qNF7xBoqksn/BboHeJTdeAlm/L5ji/hlSAhTu49gDuKh2orchC5JwHyHi9jdKuaR/rzYWZuCrp1CN98vgWxKdkoNQ7Ep7/fx7W1A5X1spazwAGDpo6Cs1rl5j2CmP6VITvrPju7yo/FgThGPxMXY1Jb9aII3xrBi+YixPAqDu47p0qrj7/F5plmsfJRAdwnLMQkT5VXwKwLZs/sB2lKNCKuyJjuHkBcfltMXDwJ1d0NxqK5ITC8ehD7zpWpEuuTax0I3F/FkmkdVMc08G3wwgcz8YLoIqKiriv/zo4CxEcmoMBzAuaPcWW8mkFgj/6LZ6CXhmD02we7cmpSEB+JhAJPTJg/Rh03BLDvvxgzeknVS/ls4q9+9Ldfv4/UpPRkBGLu2WHknDfhrVa/2G0y1icm48jiAEhY26nuOCFwn4CFkzzV8dYMXWbPRD9pCqIjrjDfTTFwZRKSI5eiuks82DrYQSjPR56icL4ZzE0Jtw59g8+3xCIluxTGgZ/i9/vXsLa+QUbgjgkLJ6HapGdjZj8pUqIjlN/ZxoqaY1WDY/l/BNaTI/n9DGQV8WHfspXGg4R8mLu7wbZmzK+TCjy6dQsPyu8g/I3uCAwMrPoEL0lEcUU2MjLr3iDPt7CGVWVdFY9w69YDlN8Jxxvdq8sJDAzGksRiVGRnALIM3LxdArGTK5w113KN3NDaXnfXhe1mYfWKARAmfoJJ/TqghbUT/IfOxLfxt6EOlzrRapsCoRlsTR4h7qs3MPLFHvDxcIC5hSfmJ5UCVMFIojbye7eRWcyHo7Oztoxbu8JGZ3OLkZGRCzi6wkWkTlIgtIOnrweaq50IfCvYWGs1DiKmApmMkbU8G3cyn0Dg4g4PTRkxod2ttQNwj5GjDoRmtjB5FIev3hiJF3v4wMPBHBae86HqXu3eNY391EdDbIsPC2srJtzrgW8B62qDY1c+3xbDxjKD8G/7sf8vOSqyDmJPEg8vvDICdrV0KES7WauxYoAQiZ9MQr8OLWDt5I+hM79F/G2VtbGWM89So60MfDEkQh5ILmdlV/LsO8h8IoCLu4dGHgZjxleUZpCpTqiHv8XmmWpY+agQrm3aqCYDagydnGCDu7hzuxTZdzLxROACd22jZ7rbGg64V20r9ci1LgStWsNDs2ITZ7SyYWTI1Mka+T3czixmJtvOWrGLb94arhqC0WsfLMvRRo57tzNRzHeEs/ZFaO1qw2iHgU38ZYF++9bvIzUpzshALhzhqh0UYefpCw9FUGRtp7rjhNC1DdpoGxacGP3evXOb+SKEma0JHsV9hTdGvogePh5wMLeA5/wk5qcsQdWldpi1egUGCBPxyaR+6NDCGk7+QzHz23jU0SUVQle00a4YTqqKld/YxoqaY1VDY/l/hbq8oxYC42YwFhCKCgq0ghw9KUGp5i9CHvO7ghGoZlJpSSnkygQ+JAYS8EX++DhNpljS0/7IbmJtsPonmi54fPArf+zwJTCQ8CHy/xhpshrlMB/ZzbVMfkMYSplJQHERnqgvU0JPUPREs4UaMAGg27z9SMu6hTNR/8OyKd1hnLoNcwYNwfLT9ViuZtsYKm6HYXz3AViwPxOWfoMwdckPiL50A+sH1fmoItNcQ+bXMiPjwkLtgYSRX5nO5oohNWCC15NiFGv+vSIP6RdScCuvcjLAU6pFJzwpUwYPFUWFKNSqVI7Cx0WAASPAWlTgdth4dB+wAPszLeE3aCqW/BCNSzfWo67uNY391EfDbIvH56t/AdcHD/xqg2NdvuWgsRhoehr799/ArQN7cNKgP14Zoh5UasA374Z5+9OQdesMov63DFO6GyN12xwMGrIcp8saIue6dczGrnhSKQx4FbXzyAuhMoO67baSv8fmGVj5KKHkyRNtW2NsrwhGMG4mgJTpD6+iCIXaRs909zGTx4DxiUpt1eM7dUAlT/BEs9iKQhQVM7/JmjXgyE9l7GImYbX8kvGXKsGwsA9W5dSEB0MmcPKotnxKSstUvskm/uqFnX3X7yPqTBqIGd0KmYhfrB0UkZd+ASm38lDWADvVFSdq6ZcKUMD4iBET4xgnQNj47hiwYD8yLf0waOoS/BB9CTfWD9J4SJ2Z/Hebh/1pWbh1Jgr/WzYF3Y1TsW3OIAxZfrruH+FUgifaFaNAVTHz7wbECq2xquGx/L8C68kRLALQxRO4dCxGtVygpBQXEk8hu+pHFB8GzABCj3KRW5VWjPPnrzJDrQoTH1+0wWVER1xF5dCtGIjTt0zD4FEf4jDrlweZwMe3DXA5GhFXq0uCPB1bpg3GqA8PMyOyI7r4t0LFhUQkPFD/naEsLQEnM3QFhgrcj1mOcaOXIrbcHr6DJuODr3cgLvJ9+Miv4swFxS1GxYCpyl03FciJ3oaoHC/M3hWF9SvmY/r4wejunIm0a4zpM4O/rl7ymwfA35VwIe6oxkvgSnA+KbmO954YoJOvF3jXTyApo/qXrPzWNkztFoipPymWzfTAt4OfjxPobAyiszQqKTmHI4kZEHn6qBM0qMhB9LYo5HjNxq6o9VgxfzrGD+4O58w0qLqno7FNZD/10XS2pRvW5Zv0w9jB1jgXtRE/7P0NpsxkKaTyjrUmFfcRs3wcRi+NRbm9LwZN/gBf74hD5Ps+kF89gwt5jZCzDtjYFd/ODz5OhLMx0dA2gyNIzBDB06e9OqUu/i6bZ+OjCmS4mJiA3KoyinH62HHkmPqjm7cB7Px84ERnEROdpdGuEpw7kogMkSd82mv+Qm8Ysssn8HN1xSj69RhO5JrBN6CdOoUF/OYI8HcFXYjDUY03QpacT0JypWDY+CGbcmrBR/MAf7jSBcQd1XhZacl5JCVXvp+LRfzVB5v26/MRHas+Bp184cW7jhNJGdVxQ34L26Z2Q+DUHUiNaridaiK7yIwnGvotPn0Mx3NM4d/Nm+lSNLZF5cBr9i5ErV+B+dPHY3B3Z2SmXWMmPUzZyi7FYPm40VgaWw5730GY/MHX2BEXifd95Lh65gLqXMiSXURiQm51+4pP49jxHJj6d2MnS1009rr/AOwnR0JvvLlgDMwSFmDo5JXYG3MYOz56GeNWp2kMFGJ06uIDaXoYFi7cipifYxD24VhM3/0AYnVNwvZTMG+EBc4sG4aXQrfgUEIc9nw9BS/N2ogz5U7wtGDbJCHaT5mHERZnsGzYSwjdcggJcXvw9ZSXMGvjGZQ7MSMx056uM2bjhfK9eHv4LKyLiMXh7R/h5TErcVHR6Fo/CZkZvS3wR/TnmPH6CvwU+wtOJuzDN8u3I9WgM17obsHkkcDERIqKqzH43/YjSNH5qlg+TBxbworSEb1hJ365dBm/x4Xhw9GvYt0fzJ9LS6HzxpXYD9PnDYTk8BwMeXMV9h89zMhvDCPjKxoy1kSANhPfw0iz4wgdPQNrIxKRGLkO7477GCebv4yZY+zU+epDIaO56Cc6gnlD38Sq/Qk4HhOG0FHjsCrdFRPnjVXn04BvAseWVqD0aGzY+QsuXf4dcWEfYvSr66DqntZ9OhVNZD/10XS2pRv25Rui9/gRaPHbd1j9qzWGjH1B9fxJTfjmsGUkFv35DLy+4ifE/nISCfu+wfLtqTDo/AK6WzVCzrpgY1firpgxtx9ER+ZhqCJPwnHEhIVi1LhVSHediHljW6oz1sXfZfNsfFRBBXIPvovhs75HxNFD2LxwJMZ9fxed3n4PQ8wU3Z2Buf1EODJvKN5ctR8JxxlbCx2FcavS4TpxHsa2bLyt0KNDmP/yfGw6nIDozR9gxPgfcM9vFmYPMlHnYIMYftPnYaDkMOYMUfjlURxmdD9m3GpcqRQMKz9kUY4OxH7TMW+gBIfnDFHK5+hhRpdjxmF11UVs4q8e2LRfn49UqlsDQZuJeG+kGY6HjsaMtRFITIzEunfH4eOTzfHyzFfg5tQIO9WgIvcg3mXGk+8jjuLQ5oUYOe573O30Nt5jDItv4oiWVoT06A3Y+cslXP49jrHn0XhVVThKmcL5KgPG5zNex4qfYvHLyQTs+2Y5tqcaoPML3aGjSyoqcnHw3eGY9X0Ejh7ajIUjx+H7u53w9ntDWNqCDhp73X8BahBP6MrOOTTA04akYmNy8H+Vvprfj/l35a4ShtIbtHdeCHk1NySR1Io8+r5LYT+9R55SjTxFabTz/WHk42hGEqGIjG29qO+MDXSucktiLVRP2Yv9llOquohKitJ20vvDfMjRTEJCkTHZevWlGRvOVW2rVOzWyDnxNU0IbEVmEjEZO/jRuC9CabiliDqGXlDm0N5xUkrpBxbRcN+WTH4h0wdLcuv6Ci0/clu5u0JRXm7M+9TVTkoCgR1Njs7T3TZ5FsUuG04d7Y1JJDIgc+cAGrVkN8V/1pukpoNpY+U2+lo8onMbZ1LftjZkJJaSdduB9P6CEdXb3WvsdlFQlBpOcwa1JwcTMYkMbajti7Nph3pLg3bf1DyJpInNxdRhiWqXg4LHF7fSrBBvsmfKEBvZkEfvifR5bEZVHTWRZ8XSsuEdyd5YRCIDc3IOGEVLdsfTZ72lZDp4ozKP9k4cBU1gP/Xu9lEk6LEt5S4UMfktT1XrUzfK3WpiP1pe2+DY2W75afqgnYiE7u/RL6pNWCpq6q80nQ4sGk6+LVXlSS3dqOsry+nIbVW9bOSsW8cHaIKlmHyXXlIn6LErJY/p4tZZFOJtTyZiMRnZeFDviZ9TbEZdVlBD/s/K5tW7hKq2uOvzUaWMRdR+8nJ6O9iVySMlc9fu9NpXido75h5fpK2zQsjb3oTEYiOy8ehNEz+PpcruspGrdh5VnDLoF0obZwWRKxOTJKYtKWD8V5SUra6Y9W41ZW56dG4jzezblmyMxCS1bksD319AIxwMqnaZsbEPBfrK0cmjc7RxZl9qa2NEYqk1tR34Pi0Y4UAGlVv5GfTH3xrU2K3Gqv16fEQnRakUPmcQtXdgdCsyJJu2L9LsHeodZmzsVGecUOlH1H4yLX87WKlfqbkrdX/tK0qsMiw5ZcUuo+Ed7clYJCIDc2cKGLWEdsd/Rr2lpjR44z1lrtL0A7RouC+1VMpNSpZuXemV5Ueori4p7UzUniYvf5uCXRk5SM3Jtftr9FViFlOjCv2y1D2OsrWh/xo8xf/U86RGUbxjBKwn5WLZ1UTMca756No/TQUe3UzFXXEreDiYVD9Yl7cZQ1pMQ+FnfyLhbQd1Isc/wfNtPxz/Skoi8FrL0bj81hn8xr2JnKPJKEHEay0x+vJbOPPb3/sW85KI19By9GW8deY39m9j53gqnm6d4bmHcO+nKejkORLr/qy8HVyCy5u240S5O7oENFencXBwcHBwcHCo+H8+ORLA/bW5GG97Eu/5eSKwTz8E+7kj8IML8JjzDeb4cTNwDg4ODg4ODm2eelmtIus84i+VoXWvALR6Xrf+FaYj4UAUTv6RC5mhAzr0GYEhfs252+3PAf8K++H4d1GRg5Sfz6PAqRu6ujZg+zwHR71UICflZ5wvcEK3rq66N1k8IypyUvDz+QI4desKzqT/Hp56csTBwcHBwcHB8f+J/+fLahwcHBwcHBwcDYObHHFwcHBwcHBwaMBNjjg4ODg4ODg4NBAsZVD/Ww8ypO1egVXxMnj6u8C4gecNPXtkSAn/CN+d4MPbtxWMmqp9+Sex/uPvsedYHOLidHwSzqLIORBtzLl5pi5kabuxYlU8ZJ7+cPnHjEaGyzuXY/XPhHZ+zk1nG38nFffx87pP8OPhLFj5t4dt40+3eIY8Ix/UgexCGJauSYawkw+c6jld/h9DlobdK1YhXuYJfxfjWudz6aQwD4/4UlQd66aHiofH8eOKH3Aowxx+Hezxt5uE7ALClq5BsrAT/Jx0ncHYNMhSwvHRdyfA9/ZFq6YyKi39GODy32S3HLp5Jjp+WhQPZLOj9ttbny+KaNfoZiTu8ilVvZC5CZDf/paCxDwytHMnLy+v2p/2L9KK3zRfgcyhic63DP/t1P2G9X8L5ZeWk7/UnHp/eZFK1GnPH8/GB3VRtH04GWq+Wf15Q8eb7OvjyclPKMhlIK29q/kK7/oop8srAkhq1oM+PfdEnfY3U7SdhhuK63/LdhNQ+037TYCWfv4+u+XQzTPR8VPC3e5ghRDtZhzExcuXcbnm52IMFnZ+Ln/GPxcYDN2KnNKz3FtdnwoZriSlwXziWmyZ3R6qs/85nmsMhmJrTinOsnxDd8mVX3Aqo0R14j0bZFeReLkZXv1uC+Z14t6B0WAaqB+O/x4NWla7dvAb7Mnxx5ThZkjetgm7Difjj0JzuLhZQ/POdkX+dSTu+wm79kfhaNJZpBc0Qyu35jDUmIrJci4gakcYdkfG4/db5bBydYGlRtSX37/I/H0bdjF/P3uzBBYubrCqjAGyy9i5fC0umrggP2Ydth69ihJbV5QmrMaB/B6YPqk7rJR1lSHr9AGEhe3GocRz+KtE0VYrNCSU0OPfsG11LMp7TcfkntZ6HtKSIft8FHbt3IuIY8m4el8AW1dHmNbhfcolp+/OoVmgHe5FbMWW3Ydx6o8iWLi6wdpA89aiHPcvRmHHtl2IjD+LmyUWOvohQ84FJg/T18j433Gr3AquLpYaA6m+MvS3vX69qpau1l40gUt+DNZtPYqrJbZwK4vDlzWW1cqyTuNAGKP7Q4k491cJzDV1q5Onb9uV/Sux70EgpgwQIm7jZuxPTMUDw5ZwtzfW1qn8Pi5G7cC2XZGIP3sTJRYucKs2PJ19bONmoXNJoyg9HuGbdyAi6SqKrFwhPv09VibI0cnHCVJ5CsI/+g4n+N7wbWWkXnaR4ULYUqxJFqryKBMVeotG7FUZTA1K8bBMl+5rU7//KJYU1uCCWQCa3zmAzZv34Ni5LEic2qKFSTlun/gJG7fuR3xKHpq5ecBW2RDVsvrq343Q2fJP7NqwBQePp+Kh1Amt7Y3UMixH6t6VNXyQhe1W5ON64j78tGs/oo4m4Wx6AZq1ckNzzYBReAOxOzYjPPI4rpfYwKU4DqsiixE083V0rVzSLsvC6QNhCNt9CInn/kKJuabuaiO7vBPL116EiUs+YtZtxdGrJbBt4wYLRpn1yk9N0Z8J2LllBw4mXsYj01ZolrIRX0TkwSPADc3kNZfV6rbhguQN+HhDFJL/eAh5aQ7yJO3Q2fEvHTGuDdwUjVP0M+IorsnNYSTLR6mefqrQEx/Y6ACFuBG7A5vDI3H8eglsXIoRtyoSxUEzMbGruTIHm9hfCz11l6fuxcoD+egxfRK6q4xK4VyID9+MHRFJuFrE9EV8Gt+vTIBcscwquqzft7T0I0FaLbvV50O6xiC1fiopu4Tw5asRU+CCLh7m1XGmjPH95Uz7eB3g38qQpexr0zTxhZ2ta8NinKs3jtZGl44b3q4mRn0HiQWqZTWhXXvq6GBOTr5BFOTnRMZ8CbWefIAqz5QsubiaQhzEZGjfgXr26UM9O9iTlC+ilmPDKUOZR053o94lXzMBGTp0pJ5BAeRqJiSp+0TadUtxS01ODxJDqaeNiCmjHXUL6kHetlKSOA2lNRfVt4+VhwJKyM3Lg2zdA6mnry9N3Z+hfWtUdov2Te9IpgIjcvTpTcFdPchSLCbHgV/TmQJVMWxQLauJqPPHafUeVKo4DPPSqn7UXGRGLp2DqG+QH7U0FlAz30WUVEd9yiUnSSca8KIjWTj5Us9ePtTCkE8G7m9SVI5aoPIHlBjak2xEhmTfrhsF9fAmW6mEnIauoUpxkPwuRb3rS2YCQ3Lo2JOCAlzJTCgl94m7SCVSfWXob7t+vaqWriRuXuRh606BPX3Jd+p+uqu1rCajW/umU0dTARk5+lDv4K7kYSkmseNA+rpOpTRd24QO7amDrSkjo67UpY01SUTW1PvjU/RYWYpCTIkU2tOGRIb21K5bEPXwtiWpxImGrrnIlKBAdx8fKv+mSTnd2DaW3KRismkXTCEvdCR7Sy8KCtQ4tLPGAZwqimj7cEMSV+Zho/tasPEfxZKCIXXqF0wtrFtTYFA3cjcXksjpZQqd15Mc7DypWy9fcjTik2HHD+ik8jL1snq7IOplb0mte/Snfp1bkpHQinp8dEJ90GiN5Qk27S+5SKtDHEjMyLxDzz7Up2cHspfySdRyLIWrlEfl1zbRKGcJicycya+bP7W2tCCvDq4k0lhWk93aR9M7mpLAyJF8egdTVw9LEosdaeDXZ6guy1IeLixxIy8PW3IP7Em+vlNp/0MW8mM0lr59ArlLhdSM8dtund3JqpkzdfVvwcjnAzqtMHWtZZv6bTjv2Mf0MmMbAoE9dR4+jhbtu61onI4Y97BR/dQbH1jogFECbRrlzPiMGTn7dSP/1pZk4dWBXEXVy2r6/VAHLOquueRSfmMbjXWTktimHQWHvEAdGXv0CgqsPqiYjW/Vu6zW2DGoRiSQZ9KPA0xI7PsRXdJYWy2KeZNaitvRBwpDYSP7WjRRfGHTz1roj8f642httHXcmHY1PQ2eHPEFDjRi0w1GRAoe08+z2pDIeBBtzFF8z6XtI81J5DGT4qrs5DGdmONFIoN+tE5xcvHjQzTZUURWL35Ll1QHx1PpHz/QIEYQzjMTqKQghqY5i8hhxHpKLVT9nR6foU96m5NhwApKUQYehWEyBtRuHp2qzKNl4HLK2jaCrIT2NOzHNLVC5JQTP5d8jSTkvSBZmcIG1eRIQA5Bb9D78+fT/Bqfhd/FqyaGpUn0jquYPGYfZ1qiouDUAvK1cqe3DlU1Ugvl5IgvIMcxYfSn+kGShzHTyE1oRAM3KAVKBcx3ZxEj8/WpVC2OT6i3uSEFrEhRfT80mRxFVvTit5fUdZfSHz8MYgYlZ5qZUKK/DL1tZ6FX9cSBL2pH86qVouqjenIkz9pGI6yEZD/sR0pT27g8J57m+hqRxHsBJet6mKYp2yawpZBVF1SDiDyb4ub4kpGBHy1TTtwKKGaaM4kcRtD6asOjM5/0JnPDAFqhMjydfayJPHs7jbQSkctre+m2MijK6V7MO9TegEeiBgQvNrqvBSv/UQwMfBK0GE3b/1I2kAriZpCrkEeSjnMoMVchM8Zfdo5hgqAzzWBsSNF3lf/b0ZB16tPNKY+SQwPJROJDoecV5WgPMmzan7t9JJmLPGhmtfLo8Yk55CUyoH7rsphm3KOtwy1I1Opl2n5DFXVkmdE0w9uAeCL1YCjPom0jrEhoP4x+rDYsip/L6FfiTQt0GhbTI8XkiBm82807VdU+NvKT3wtT6tdpzFa6pixaRlkx75KPIaNfXZMjFrEhb0MIScQv0JrKZ450xbhG9lNffNCrA4X9bh1OFqJW9PJ2deyXZVL0DG8y4InUkyM2flgb/XXXGDgZv90+0opELq/RXpVzMfqIoXfaa9jD006OGj0G1YTxoW3Dmf51VPuHggKKmuRAEt+lygkTm/7XpKniC6t+1kSvLbOJo7XR0nFj2vUMqP++nQ749oMxfayrehnBBAG9/NCsLAsZ2YqDXU0xcGUSkiOXIkh1lxWo4MHWwQ5CeT7y8gmlJyMQc88OI+e8CW9DVRax22SsT0zGkcUBoKQ9iMiwRa/+nnic8it+/ZX5pMrQ5YWOwLlIRKXLVReBjxa9Q+BjpP6qRT5iD8Qhv+1ELJ7UVn0Lnw/r4EWYG2KIqwf3KVPYU4G8qz8j+tAhHKrxOXziOgoVDwrwzWBuSrh16Bt8viUWKdmlMA78FL/fv4a1A3U2UoXAAYOmjoKz+v62eY8gpk9lyM66z3wrQdKeCGTY9kJ/z8dIUciC+aTKukAljigmTylORsTgnt1IzHnTGyqRiuE2eT0Sk49gcQDpL0Nv2/XrtRJ+i94I0a0U5MceQFx+W0xcPAlt1bdH+dbBWDQ3BIZXD2LfuTJVoiZN2DaB+6tYMq2D6rX/fBu88MFMvCC6iKio64yok7AnIgO2vfrD83GKyu5+TYWsywvoiHOIjEpXlqGgvj4qKEo4iHimn2PfHgpH5a1mPpr3XYi3gw3Z7VpSwkb3tSlpgP/YDpiIl5xU98KNfTrCXSBE+5GT0MNSERb4sOjYAc68PDx4UHmNQoYTsHCSp9rOzNBl9kz0k6YgOuKKMqUadu03HbgSScmRWFqtPPBsHWAnlCM/Lx8oiEdkQgE8J8zHGFdV1BHY98fiGb2ql/LzY3EgLh9tJy7GpGrDQvCiuQgxvIqD+86p0nTBb4HeIT6o1CYb+eUf3Ydj+e0xeclYuCv9VgDbF0PxXn9TZRm1aGxsYHSgFeMa1U998UGiXwcoQHxkAgo8J2D+GHXsF9ij/+IZ6FWlBPZ+qIn+umtQlICD8YwMxr6NoSrnAr95Xyx8OxiG7J2rXhriQ3WPQQqYMWfwK+hvlooDey5AefQ5o8Pd0Q/hM2oMPJnmN7j/DE0TXxrSTw302XID4mhdNKpdz4CGT46sbGAtUH9RIBRByKhdptS8EGa2JngU9xXeGPkievh4wMHcAp7zkxgXJVRUAMUZGciFI1xdRMrLVQhh5+kLj+YGeHTrFh6U30H4G90RGBhY9QlekojiimxkZFaers8Eb2srJizpQJ6NO5lPIHBxh4fKf9QYw621A3AvQ/2dLXU/kH1+1zS4KhohbIdZq1dggDARn0zqhw4trOHkPxQzv43HbR1jfhU8S1hbafSCL4ZEyAPJGQOoeIRbtx6g/E443uheLYvAwGAsSSxGRbaiH8XIyMgFHF2hLVI7ePp6oLkBizL0tl2/XivhW1hDszvVyJF9JxNPBC5w11YKjN1awwH3NHSrQRO2TdCqNTw0HgmAiTNa2TDmwLSr4tEt3HpQjjvhb6B7lYyYT/ASJBZXIDsjU31RfX1UIMf9jCwU8e3RspVGP/nmcHez1W2vumCl+5pUNMB/eLCy1WgPX8D8mwcTM7PqACsUKv+uecCQ0LUN2mjK0NAJTowM7965rU5Qw7L9QjNbmDyKw1dvjMSLPXzg4WAOC8/5SCpl6mWUJ793G5nFfDg6OzOaroQP89ausFFHL3n2HWQ+EcDF3UMjD4OxG1TuXq27WvAtNPyPjfxKkHHzNkrETnB11qzNiIkt9roDamNjQ40Y17h+6okPzGxJnw4YJeB2ZjH4js7Q7DLfvDVcK5XQAD/URG/dNZDfz0BWER/2LVtp24O7G2xZO1d9NMSH6hmDKjEbgLGDbXDtwB6cZXSdF7MLRwoDMHp0a+V1De1/k8WXBvVTAz223JA4qptGtusZ0ODJEXi8umenFbcRNr47BizYj0xLPwyaugQ/RF/CjfWDqh7AFEsNGKN+guJizV8SFchLv4CUW/kQGEjAF/nj4zSZYslP+yO7ibXB6lssDDw+X3dbeFJIDXioKCpEoZZ9yVH4uAgweBbv5GActNs87E/Lwq0zUfjfsinobpyKbXMGYcjy06g7BjLyrEugfAkMJHyI/D9GmqyGLJiP7OZaJpOY6SvjJE+KoS3SPKRfSMGtfAGLMvS0nYVeq+DxwdetFEgZ3fMqilCorRTICx+jiClJqvMFL03XNip5gieaVVcUoqiYGdaaGTOiNoCEL4L/x2mQ1ZARkQw31warL2Kos48KBDBmyhNQEQoKNCsjPClRDBPVKPReUaGZUoqSUrkqDyvd14QPCWv/4UHA+E9DqSVDKkAB41JGxs3UCWpYtb8Ct8PGo/uABdifaQm/QVOx5IdoXLqxHoPUyuMZGkLKIxQVFjK5NWBkWaYWHU8qhQGvonYeeSFU7l7LSjXggV+lTDbyM4ChIRM/ZMUoeqK+TAmjXyZBU5vVNDY2MK3TiHGN66ee+JBXplcHjBJgKGV+sNWKpyUorVRCQ2JEFfr1XxMBY2fGAsYeCgq0ZEBPmLZo9K9e36qXhviQtn50Y4w+44bCIT0Ce3+/h8O7j6G0+xiMclJMYxre/yaLLw3sZzX127KsIXFUJ41tV9PT8OhYDxU50dgWlQOv2bsQtX4F5k8fj8HdnZGZdo0JABXKXw8GnXzhxbuOE0kZzFRFjfwWtk3thsCpP6G4oy/a4DKiI66qbkMqkSN9yzQMHvUhDt/X8k7d8O3g5+MEOhuD6CyN/CXncCQxAyJPH3VC01FxPwbLx43G0thy2PsOwuQPvsaOuEi87yPH1TMXoPsGqT5M4OPbBrgcjYirGrNleTq2TBuMUR8eZr4YoJOvF3jXTyApo/p2o/zWNkztFoipPxXrLUNf2/NY6FU/fNj5+cCJziImOksjsJXg3JFEZIg84dNe85aEiqZsm+zyCfycW51Q9OsxnMg1g29AO0bUPlCJKQLaYtqCaYNH4cPDimVOdlgEdIEnLuFYzJ3qfpZeQOKp7Gqb5xswkwfCo9zc6rTi8zh/tfIbG93XxsSnCfynHmQXE5GgIcPi08dwPMcU/t281SmVsGh/RQ6it0Uhx2s2dkWtx4r50zF+cHc4Z6bhmuJXKKM8fvMA+LsSLsQdxb2qaktwPikZOervfDs/+DgRzsZEQ9vdjyAxQwRPn/bqFP3olx8Pjl380aqC0WfCA/XfGcrSkHAyQ+fgyyY2KAZZfTSun3riw45UvTpglIAAf1fQhTgcrVYCSs4nIVmtBDaxvxYs9F8LiwB08QQuHYvBnao/l+JC4ilkV3ZPr2/VT1P7kEH3cRjh/Bdidq3F/p8JQWOGw06h7sb0n6Fp4kvj+qnXlpsgjj7rGMYaZjbGEt0vgXwSOZGaizvQEsUDZ4VRNMlBSCa+MyjsxEVKORNL20KHkJuxiIQib1p0hskjz6Sdr7Qgkbk/vbnmICUkRND3MwPJSuxMkyNySS6/TTvGOJBQ6kZDl2ymqPhY2r3yderYTEjNh26km4oHyZQPw4nJb3kqKb6q0H6oTvbHjzTQRkjmvlPo233xlHRkGy0Z5EwSgzY048gD1SWydDr42Qe0aP1J1XcdqB7IFpL72G9oR3g4hdf67KQjlx4SlZ+nZf6GZNB6BH0cfoxO/BJPe798mTykJtTjC812VqPzBYlPDtAESzH5Lr2k/Cq/vYPGMDKVug2lJZujKD52N618vSM1EzanoRtvqvJk7qRXWojI3P9NWnMwgRIivqeZgVYkdp5MEbly/WXoazsbvaofVq75okWtPsr+oB8H2pDQ3JemfLuP4pOO0LYlg8hZYkBtZhwhtVa0acK28UVSahE0lzZGx9OhTQuon4OYmgV+TL+XKCqS0+0dY8hBKCW3oUtoc1Q8xe5eSa93bEbC5kNpo8rwdPaxFvK7tHuCE4lMO9DrX+2hI9HbaekwV5LyNR6YZOx8Xf9mJLDqQXO2HKFExj5Dh7qTtakhSdR52Oi+Fqz8R/NhVDWPNtEgiZiCv8tkJKFCduML6iY2ozG7FY9eqh/I5gnJuutMWnswhqI2fUD9HSVk0vkjOqOUobYP6m9/ofLhVKGJL80IO0EXU85Q7LZQGuJmTCKhiLwXnVG0gm5uGka2QjPynfIt7YuJVurXxYBHqHwAl8nzx48DyUZorsoTn0RHti2hQc4SMmgzgyrdvSbKB7LFfrRcU5ls5MfY8ff9LUnUvAe98/1BOhYdRkuHtyZDhX7bLSSVyWnImEVseLLnFTITOtCgj7bSYUU80RnjGtfP+uPDYxY6YGq+uYmG2QrJTBlPYyhakcfFgHhQP5DNyg9rwkb/NR7WZazz7u4J5CQypQ6vf0V7jkTT9qXDyFXK13hAX79v1ftAdqPHoLoop3OLO5DIyJiMrV6i8Co9set/LZoovrDqZ0302jKbOFob7YfuG9GuZ0DTTo4YwWTFLqPhHe3JWCQiA3NnChi1hHbHf0a9paY0eOM91UVFqRQ+ZxC1dzAhsciQbNq+SLN3VO6AYShKo53vDyMfRzOSMEZibOtFfWdsoHOq/cJ1GGYNA2d4fHErzQrxJnsTMYmNbMij90T6PDajekAoSaCZzgISB61WJ9RGNTlS/iCs4yOiDkvOK/OWph+gRcN9qaWZhAkIUrJ060qvLD9Ct+tQJpvJkYKitJ30/jAfclSWa0y2Xn1pxoZz6u3TKopSw2nOoPbkwPRVZGhDbV+cTTtSqySqt4z6285GrywmRwoeX6Sts0LI257RvdiIbDx608TPYylDQwQ1aaq2GfQLpY2zgsiVKUdi2pICxn9FSdmau2iKKG3n+zTMx5HMJEISGduSV98ZtKHa8NhNjhQ8uUI75wwgTxspiY0dyP/Vr2h+P+bflYGJofTGXpoX4kXNDUUktfKgvu+G0U/veZJUIw8b3ddCr/80fnIkaj+Zlr8drJSh1NyVur/2FSVW7USq7YP62i/PiqVlwzuSPTOIigzMyTlgFC3ZHU+f9ZaS6eCN6lyP6NzGmdS3rQ0ZiaVk3XYgvb9gRPXWbSWP6eLWWRTibU8mYjEZ2XhQ74mfU2w9hqVzcqRAn/wY5Dkn6OsJgdSK6ZdCv37jvqDQ4cyEqWMoXVBUWUPG+mKDPDeG3u9qR1KBgOwmRysaV8fg2/B+KqgvPrDTAaOFcxtpZt+2ZGMkJql1Wxr4/gIa4WCg3q3GMvbXgE3d2pMjBU/oys45NMDThqRiY3Lwf5W+mt+P+Xe1Pej1rfomRwoaNQbVjSx1BXUW86n5+H1avstW9rVoovjCxtZron+c0xdHa1NLx41oV1PDU/yPGeQ5ODieKcXYMcIak3KX4WriHDg3ycOjfycliHitJUZffgtnfluK//ILzyse3UTqXTFaeTjApEqPedg8pAWmFX6GP+PehkOTPrDAoY/iHSNgPSkXy64mYs5z6Fzy61+gV8c1aLvvCv43oL4dio3l3x5fnj84F+bg4OBoAHTvJ0zp5ImR6/6seiai5PImbD9RDvcuAWjORVUOLQrx28YdOOc4Cq8HP4uJEcezgHNjDg4OjgYgcH8Nc8fb4uR7fvAM7IN+wX5wD/wAFzzm4Js5ftrb7Dn+w8hxc90oeLq6os83uQhZNAuBf89GK44mgFtW4+D4W6hA1vl4XCprjV4BrerZ3vy8UoGclJ9xvsAJ3bq6ql6k+Z+mEOkJBxB18g/kygzh0KEPRgzxQ3NuZvSPUJF1HvGXytC6VwBaPUfOVXblAL7dnQoT/9F4NcS96mWjTc+/Pb48f3CTIw4ODg4ODg4ODbhlNQ4ODg4ODg4ODbjJEUcdyJF5Phk3CtRfOTg4ODg4/iMIljKo/90oZBfCsHRNMoSdfOAk5alTn46K7ASs/XQ9YrJt4O/dHJpHAv0tyC5j5/LV+Jnawc/ZSM/r4Z8XZLgQthRrkoXo5ONUfShnI6jIv4q4nZvw6dz3seeuESzsXeFmI9WSQ8mdU9gXth17DsXjzB/5MGrpBlsj7bl2xaNURG/dhPCoJFy+L4Fj6xYaW5/roOIRUqO3YlN4FJIu34fEsTVa1LyIRZ5G1f0PIUvbjRWr4iHz9IeL8bOyNhnSdq/AqngZPP1d8MyqaSSylHB89N0J8L190croefS4pvOv+pEhJfwjfHeCD2/fVmgqUWjZmMFlhH/0HU7wveHb6jmLbxXZSFj7KdbHZMPG3xvNmzT4N5UOK5B1IQ4nz1/HHzdu4Ebl589HTCxygGnlc2dsYhnH84vimaOnoWj7cDLUePnW01NOFz70IQOLYPo6Rfna3b+fBr7g6/mgiLYPN9R6CVhjKL/yPxrhJCGRmTM5WZmSvaMFicSONOyHVCpV5pDT3YiZ1NFUQMYtfan3Cz3Iy0ZCQpvetPyX6jd0ydLDaJyblAxsval7V2+yk4rIOugT+rVAnUEXsnQKG+dGUgNb8u7elbztpCSyDqJPNC9ikadRdf+D6HwZaJOj+yWuzwu1X/T3vNE0/qUfHS8kbAK0bKxoF41uJqYun1597uJb+YUPycfAgoK/TqGmj/5NpEPZFVrRWaR+CbDGR/wCrbmrfiEqm1jG8Vzz/C2ryVLx8xVrTFm3GbPacfse/17ysPfDBYjij8b2C7/jw+4emLz/d2waWoFDC0OxR3EsTnE8PnrnR2T1WIMz139HYtxxXLpyFLNb/IaPZ63CJcWLX5hffz+9/x528ydg38ULOHHyEtLiPoDbuY/xzqrLzO83XVQg+6f38d5uPibsu4gLJ07iUlocPnA7h4/fWYXLyotY5GlU3f8sBkO3Iqf0LJb+l9+syPFM+XfYmAypP1+B9ZR12DyrHZ7b6P/kEi5d56PnZynIzslBTuXn7j5MUb7kik0s43jeafiyWuENxO7YjPDI47heYgOX4jisiixG0MzX0dVcNdeqyL+OxH0/Ydf+KBxNOov0gmZo5dYchoo/K5es1uKiiQvyY9Zh69GrKLFtAzcLseq6A4m4xTeFIPcG/tS8Tgc6b8XLLiBs6RokCzvBz0mqup383Tk0C7TDvYit2LL7ME79UQQLVzdYG9RxX1V2BftX7sODwCkYIIzDxs37kZj6AIYt3WFvrN2YsqzTOBAWht2HEnHurxKYu7jBSr2Pkn3dZcg6fQBhYbtxKPEc/ioxh4ubld7tmIU3YrFjczgij19HiY0LiuNWIbI4CDNf7wq1KiC/fxFRO7ZhV2Q8zt4sgYVG+2ohS8GO5T8gvecKfD/BCSm7wvAoeDam924FM1dv+LdvA+s/fsJnm2+g2/INmOSpCrQ8qSNaPozG93vy4PPOWHQo2IVF7+yHxbthWNHPSvlgm4GjP8xT12FNohRDpgSpDl7UpOI+di16B/st3kXYin6wUl0Ef/NUrFuTCOmQKQhq/kBvnl7CPQ2vW029dlsnRUiPD8fmHRFIuloEK1cxTn+/Eglytf2xtdEay2r16k2Wht0rvsO5ZoGwuxeBrVt24/CpP1Bk4Qo3a4M6lklkuHbwG+zJ8ceU4WZI3rYJuw4n449Cha1Zay0x1CeHskvhWL46BgUuXeBRaWQMZUw/lzP95HVg+mnIa7Asy1P3YuWBfPSYPgndlYqt37cqKfozATu37MDBxMt4ZNoKzVI24ouIPHgEuKGZXE+s0dM+Nv7Fpo01qb/ucqTuXYkD+T0wfVJ3lY03tY1J0rB35QHk95iOSd1VPsI0CtcT9+GnXfsRdTQJZ9ML0KyVG5qrBSK7vBPL116EiUs+YtZtxdGrJbBt4wZGlBqolm7XXDBDQPM7OLB5M/YcO4csiRPatjBB+e0T+GnjVuyPT0FeMzd42Gos1SvrP4DEW3yYCnJx40/t+hXIss8jatdO7I04huSr9yGwdYVj1RqWbpo8RjLIFD6wPhPdFi3ByLbNYGRkpPoYGkCo6BCbWFZXEGJkmHMhCjuYsSAy/nfcKreCq4tl9USxXj3JcHnncqy9aAKX/Bis23oUV0ts4VYWhy9X/w6jzpb4c9cGbDl4HKkPpXBqbQ+tJyH02ICCxujgX4v6DhIryq9tolHOqiUXv27+1NrSgrw6uJJIY1mt5OJqCnEQk6F9B+rZpw/17GBPUr6IWo4NpwzFHUflkpWE3Lw8yNY9kHr6+tLU/Q/1X6cDnbfii7bTcEOx+rwf9e1kSSca8KIjWTj5Us9ePtTCkE8G7m9SVE4dBSvbKCSH9h3I1tSBOnbtQm2smX5b96aPTz1WZ5LRrX3TlctLRo4+1Du4K3lYiknsOJC+PqO6dcqqbtkt2je9I5kKjMjRpzcFd/UgS7GYHAd+TepidFBO1zaNImeJiMyc/aibf2uytPCiDq4ijVvGcnqQGEo9bUSMTNtRt6Ae5G0rJYnTUFpz8YmylFrIb9PaPoYk7vQB/VqQR5uGdVafmacP1eGVIttJFMUUXZL4NrmIHGlarOaNcRmlf9mdxIaDaKOuAzJLEultFxE5TovVup0uS/+SuosNaZDiIhZ5GlU3Q2Psj8pv0LaxbiQV21C74BB6oaM9WXoFUWDVeVMNsNGqZTUWelOeCyWhTgNeJEcLJ/Lt2Yt8WhgS38Cd3ozKqTobTRvVsprQrj11dDAnJ98gCvJzImO+hFpPPkD31Bfpk4M880caYCIm348uVZ/LRkUU82ZLErf7gE4ziU/vy/p9S6nT7RPIXSqkZoxvdevsTlbNnKmrf4uqdjQ+1rDxLzZtrI3+umssqz0LG6u5rFZykVaHODD+YU8devahPj07kL2UT6KWYylcrTDlOXQSN/LysCX3wJ7k6zuVGFHWQGVjhp36UXALa2odGETd3M1JKHKil0PnUU8HO/Ls1ot8HY2Ib9iRPjiptmcW9ZdeWkX9mjP6cOlMQX2DyK+lMQma+dKipLpk/YxiJEPuxkFk1GwofXfiIK3/chl9uOI72v1bVrU/sIllupDfpah3fclMYEgOHXtSUIArmQml5D5xF91StFevnFRnP0rcvMjD1p0Ce/qS79T9dFep+3YU1IuxndY9qH+/ztTSSEhWPT6iE5VPQjwTHfy7YT85kt+jrcMtSNTqZdp+Q/X0iSwzmmZ4G1Sfhky5tH2kOYk8ZlJcleM8phNzvEhk0I/WKQ6oVAYsRujt5tGpQnUWNtfpgHVQ4AvIcUwY/am21Icx08hNaEQDN+SoEmqibqPANoRWXVApXp4dR3N8jcjAb5nymQ151jYaYSUk+2E/Upraj+Q58TSXySPxXkDJTF3665ZT1rYRZCW0p2E/pjGmrUBOOfFzyddIQt4LkpUpNZHf20rDLUTU6uXtpFKFjDKjZ5C3gcapzAUxNM1ZRA4j1lNqpZwfn6FPepuTYcAKSqnyZG0eHQ+lQGZiaNqmD3V1c6dXt6VQjkrddZL38zzqKBVTm/eSSFFV0a4xZCrqRKHKEzirKdgymCSiQPrsmoa+KmEC9hhTEXUKvaAx6DIUbKHBTIAL/OwaqzyNqrtR9ien7O0jyUrkQq/tva1qD+MjMe+0JwOe+qRyhgYPXGz0ppwcMfbpOIbCqg2LprkJyWjgBtJt1aqBiy9woBGbbqifH3tMP89qQyJjZtKovIiFHOQ5tG04k6djKFXNmwsUJ7JLlIcllzeBL7PxLfm9MBppJSKnMVvpmlIEMsqKeZd8DBUn42tOjhoea9j4F5s21oaNbDQnR8/IxmpMjnKZOsxFHjSzulH0+MQc8hIZUL91WcrvyskRM4lrN++U0sd1U2ljLWj09r9U7S2IoxmuQuJJOtKcxFzlxF2es5PGMIOs84wERQ4W9ZdS0juuJPaYTccrz9IuOEULfK3I/a1DOtvz7GJkKf38tgsJBUIysGhNXYKCqYs7My4KLClwUTzlKlXIIpbp4PGhyeQosqIXv73EWIGCUvrjh0FkI3KmmQklLOSkmhzxRe1oXrXBV41DdkPWUeVZ5HnJTJw3kZBPqOrQ9Gehg387dd3bq01BPCITCuA5YT7GuKrupQrs+2PxjF4at+RNMXBlEpIjlyLIXJ1UwYOtgx2E8nzk5SueW1PAR4veIfCpel0o2+saicABg6aOgrP63qR5jyCm7jJkZykeoqkLAdxfXYJpHVTvAubbvIAPZr4A0cUoRF2XIz/2AOLy22Li4kloq74Fy7cOxqK5ITC8ehD7zpWpEuutOx+xB+KQ33YiFk9qq15G48M6eBHmhhji6sF9ypSaFMRHIqHAExPmj4FKFQLY91+MGb2qb1OXJO1BRIYtevX3xOOUX/Hrr8wnVYYuL3QEzkUiKl2uzqmNaY+PkHD+GD4bao2ygnSEvdYeLVp1xVvh11CqzlNNBfJOrsCIUd/glu8SbP6op+oNsLJyyCCEWFRlGEr4IiHT0jKUlOrSpwzlMkAoFmkvC/FFEAqAshJF7SzyNKruxthfERIOxjO6G4u3hzqqjozgN0ffhW8j2FC77obAXm8COAyailHVhoUgxqHKsrNwX7dqlfDtB2P6WFeoPNgEAb380KwsCxnZigchWMiBb43Br/SHWeoB7LmgengiP3Y3oh/6YNQYT0YOT+/LbHwr/+g+HMtvj8lLxsJdKQIBbF8MxXv9TZX5q2l4rGHjX6z9X4uGyubZ2FhNTAeuRFJyJJZWNwo8WwfYCZk4l5evTmPgt0DvEB+9b3nm2w7AxJecVO019kFHdwGE7UdiUg9L5RIe36IjOjjzkPfggSIHi/r5MDM3Bd06hG8+34LYlGyUGgfi09/v49ragTrb8+xiZDlg74cXX1mGo1evIjkhHslXruDwrJa4+PlUfJhYzORhE8tqUoqTETG4ZzcSc970hqEyTQy3yeuRmHwEiwMkrPXEb9EbIdUGr0LgjgkLJ8FTVTDMuszGzH5SpERHKL8/Cx3822E9OZLfu43MYj4cnZ1VRq+ED/PWrrCpKkUIM1sTPIr7Cm+MfBE9fDzgYG4Bz/lJjOoJFRXqbMx1FtZWjLlWwva6RsKzhLWVxhZKvhgSIQ8kr2cUYVrXqrWHehBRYeLcCja4hzuZpci+k4knAhe4e2ivtxq7tYYDkycjUzVw1Fu3PJsp6wkELu7QLsYYbq0dgHsZ6u+ayHHvdiaK+Y5wdta4iG+O1q42aoVW4NGtW3hQfgfhb3RHYGBg1Sd4SSKKK7Kr26cDA6cgTPtsHd4K9MG8qGP4oscDbJ48Dp+e17ymDDf3vYO+gz5CmvdSREYsRBf1mRJ8QyNImb+X1piIlJWUMa2XQKprDy3fEEZSJk+pQuMalJWgjBGVRMr8kUWeRtXdGPuT30dGVhEz2WiJVlpqcIebrYa+G0RD9MaDpZYP8SGWCMEjOeQ1x1gN+FY2sNZsnpAJ2EwwlymLZScHswFjMdjmGg7sOctIOg8xu46gMGA0RrdWFPy0vixn4VslyLh5GyViJ7hq+gATot1a29cIag2NNWz8i00bdflXA2XzTGysNkIzW5g8isNXb4zEiz184OFgDgvP+UhixnDSbBTfQjuW1QHPyhbVzeNDwPybZ2IGsyrXEyonCVAfzqC/fiHazVqNFQOESPxkEvp1aAFrJ38Mnfkt4m/rmoQ+yxhphF4LduFQ2Afoaa22NL4N+ix8B30MbiP28HnmO4tYVotiZGTkAo6ucNF8fYHQDp6+HmjOTGrY6olvYY1aahK6ok0bzdHMEE5ONsDdO8pvTa+Dfz/acaQeeIaGkPIIRYWFjFlpwMyCyyotoOI2wsZ3x4AF+5Fp6YdBU5fgh+hLuLF+UK2Hi3l8fvWsugHXacNj/qtAhaYFlpagtNbowOTTNSbWC6HkyROtvlYUFjEmbIRmxnxmkDUAr6IIhYVa0oC88DHze88AUoNK0dZTN0/K5GN6UFQI7WLkKHxcxMxSdDkRD4aGzK8fql13SWmZ2hn5kBhImB8q/vg4TaZYOtX+yG5ibbD6joMmJelI2LoGu35n6lbCg8ShN2atmYsg3iXEHLmhTi/A76tGoufYzSgctB4JUYvQ3aLalIQtHGHHy8Hdu5rBRY7MzGxUGNiiRXMdAVbYAo52POTcvcsM1dXIMzORXWEA2xbNWeVpVN2NsT+BMWMHAlBRAQo01UBPatydYmujChqmN17DjVpxEdOeOmArB+M+GDfUAekRe/H7vcPYfawU3ceMgpNCtI325Up4LHxLoPQByIpR9ET9RyWEJ0xCLe9vUKxh419s2qgjtDZUNs/ExmpSgdth49F9wALsz7SE36CpWPJDNC7dWI9BtRrFA5+v3+Z4Aj77gYVl/Xzzbpi3Pw1Zt84g6n/LMKW7MVK3zcGgIctxutbY/AxjJNPesoL7yHlUo1IjK1ga81BUUMAultVCzNgMM5F7UoxiTbVV5CH9Qgpu5ZWx1xOPkX9NNVEJnjzRMiIUFDBx3kjxi/ZZ6ODfD2sb5jcPgL8r4ULcUdyrknEJziclI0f9vSInGtuicuA1exei1q/A/OnjMbi7MzLTrjG/MBnn1bbTKhp7Hd/AABJ6hNzc6jtAxefP42r116dAhssnfkZuVd1F+PXYCeSa+SKgnQHs/HzgRGcRE53FtLCSEpw7kogMkSd82mvO0uuAbwc/HyfQ2RhEZ2l0suQcjiRmQOTpo07QhI/mAf5wpQuIO3qvuu6S80hKzqn6buLjiza4jOiIqxoOKkf6lmkYPOpDHL6vUV8lst/x47uzMe/H4yhUJymoKC9FaQUPYokiWJQide0YDJ53Ci3nRCBp6+tVt2orEbbpDB+LBzidnFpdd0UOTiZfA799F3SukV+JsA06+1jgwelkpFZfhJyTybjGb48uiotY5GlM3Y2zPwsEdPEELh1DzJ3qDKUXEnEqu9oAG2qjjdJbE8FeDgboPm4EnP+Kwa61+/EzBWHMcDtlMGmsL1fDZ+FbUjh28UerigtITFAtzSgpS0PCyYxakyNN9LePjX+xaWNt/2+4bJ6NjWnB+Eb0tijkeM3Grqj1WDF/OsYP7g7nzDRcYwa8Cv0KezrY1F9xHzHLx2H00liU2/ti0OQP8PWOOES+7wP51TO4oLHyp+IZxsjSeLzjZQ/PN/YjT52kQHb9DC4+EMGjPaMvNrGsFgbo5OsF3vUTSMqoVpz81jZM7RaIqTtSn05PsouMr+RWy6L4NI4dz4Gpf7dnpIP/BzCzZJbI6OamYWQrNCPfKd/Svpho2hY6hFwMeITKB7ILFQ9mCsnEdwaFnbhIKWdilXncjEUkFHnTojPliif7qNYLFtlcpwP57XXUv5mArHrMoS1HEunItlAa6m5NpoYS3Q8iVvLkAE2wFCsfINVJ5YOc0hYUNHcjRccfok0L+pGDuBkFfvy7ageC7A/6caANCc19acq3+yg+6QhtWzKInCUG1GbGEVLsR2BTt+yPH2mgjZDMfafQt/viKenINloyyJkkBm1oxpE6djXIbtKmYbYkNFPVHRO9jUKHuJABD9UPG8pv044xDiSUutHQJZspKj6Wdq98nTo2E1LzoRvpZpXwNXlIERMdSWjcnqbtPENrhnamD+JP0vcvuZDIpBd9dUVGsrQvqYcxn4x9p9HaHeEUHq7x2ZVA15QP6xXSz+96kNg8kOZH3aTCkmxK/nao8mHDoZtuKx/KVNhT+sHP6INF6+mkesdE4c/vkofYnALnR9HNwhLKTv6WhjqKyGroJrqtfo5Xfx42ddegsfZ3dzdNcBKRaYfX6as9Ryh6+1Ia5iolvsbDsg22UTZ6Uz6QLSafDy9qPPD5hA5MsCSx71K6pLO5ul8C+SRyIjUXdyDlrsSGyKH8HC3uICIjY2Oyeilcae9KGilLrYeKWfiWIs/3/S1J1LwHvfP9QToWHUZLh7cmQ77igeyFpKymsbGGjX+xaWNNWMlGe7faM7ExrQeyC5U7TYUmvjQj7ARdTDlDscz1Q9yMSSQUkfeiM6rrFQ9ki/1oeWqVJHWgy8Ye0aZBEhIHf0eZlc4nu0FfdBOT2ZjdzBc29ZfT+WX+ZGjQmkZ8HE7HTvxC8Xu/pJc9pGTS4wvS2aRnFiOLKOm9NiRm4vOrmy/Qw/JyepgSTm/5mpLIaSIdUO9CZhPLaiLP3EmvtBCRuf+btOZgAiVEfE8zA61I7DyZInJVO4Lrl5PqgWyx33ItmageyOaR0LorzVx7kGKiNtEH/R1JYtKZPjqjGM2ekQ7+5TRgcqTgEZ3bOJP6trUhI7GUrNsOpPcXjCAHg8rdanLKil1Gwzvak7FIRAbmzhQwagntjv+MektNafDGewovqx2w2Fynk1K6sXcehXg1J0ORlKw8+tK7YT/Re57SJpgcGVC/0I00K8iVzCQSMm0ZQOO/SqJsTcN+fJG2zgohb3sTEouNyMajN038PJYy1FWxrfvxxa00K8Sb7E3EJDayIY/eE+nz2AztnQ41eXSONs7sS21tjEgstaa2A9+nBSMcyKDS8RUUpdHO94eRj6MZSRgjN7b1or4zNtC56hdZ10L+8Bf6Ypg7mQj4xOcrPsxgYxNAM3enM+2RUepyfxIp7snq+oiDaLV62yc9+pVWDnUhQx6fhEIB8UTWFPhepMZW7hJKmOlMAs1rGPv6deVQcjHkEV8oJAEzAFgHvkeR1RcxsMijt+6aNNb+GHVe2UlzBniSjVRMxg7+9OpX86kf8+9K+2uUjerT27OaHDVIDowtrOhMYn5zGr9P06AaJ8taO670+JYCec4J+npCILUyYwZfYwfyG/cFhQ5nJkwdQ0m5WfFpYg0b/2LRRm3Y1F37DdlNbmM1dqvJs2Jp2fCOZM9M0kQG5uQcMIqW7I6nz3pLyXTwRtX1z2xyxK5+Kk2nA4uGk29LlU9ILd2o6yvL6cjtetrzjGIkFV2k9RO8yUzIIwGjRwFPSGbe4+mH85pb2tnEstoUpYbTnEHtyYEZC0SGNtT2xdm0Q73FTL+c6pkcidrT5OVvU7Ar00+pObl2f42+SsxiLFLFM9PBvxie4n/MwMbBoUEFiu78hi/GT0HGGz/h45HtYafzoQh9yPDw+llcyiiDeWsfeDsaKZde9CF7eB1nL2WgzLw1fLwdtV9UpkZ/nsbV/dQU78AI60nIXXYVx+c4qxP/PyLH9S96oeOatth35X8Y8DdvV6l4dBOpd8Vo5eGgcWZeHjYPaYFphZ/hz7i34fC3KPwf4D9jY88zTIzMvIzz1x6AZ+2BTt726h1m2rCJZc+akojX0HL0Zbx15jfuLfwN4P9r+OB4KvgwcmyPzl27ItDfq5ETIwVCWLgHoHdwD3RowOREaOGOgN7B6NGh7mCiP0/j6uZgSeFv2LjjHBxHvY7gf2AfL937CVM6eWLkuj+ZabCKksubsP1EOdy7BEB5igMHxzODiZEO7dE9OAjd6pgYKWATyzieTzh1cdSBEQZ++j9Mcdexu4vjv4v8JtaN8oSrax98kxuCRbMC/5EzsATur2HueFucfM8PnoF90C/YD+6BH+CCxxx8M8ePmRpzcHBwNB5uWY2DoympyML5+Esoa90LAa0afcvtOaYMVw58i92pJvAf/SpC3P/J178VIj3hAKJO/oFcmSEcOvTBiCF+aP7/fWb0/97GOJqSipwU/Hy+AE7dusJV/S46Dv1wkyMODg4ODg4ODg24ZTUODg4ODg4ODg24yREHBwcHBwcHhwbc5IiDg4ODg4ODQ4OnnhzJLoQhdPEPOJGn5/XlfyeFeXhU/T74hiNLQfiHi/F90v3q1603ksK8R1Vbjf9TyC4gLHQxfjih+ZJ9Dg4ODg6O55+nnhyVpR7Ayi/DcfrR8/Fcd8mpTxHcYQLCn+YMqrIriPj2S4QlP1S++rlxlODUp8HoMCEcz/A4rOeXslQcWPklwk8/UidwcHBwcHD8O/h/t6xWcuUXnMooeYpJTVNRgiu/nEJGCbcZkIODg4OD49+EYCmD+t/sKLyB2B2bER55HNdLbOBSHIdVkcUImvk6uppXICX8I3x3gg9v31Yw4qkuUSy9LV2TDGEnHziJUrFz+VpcNHFBfsw6bD16FSW2beBmIUZF/nUk7vsJu/ZH4WjSWaQXNEMrt+YwVE7hZEjbvQLfnWuGQLt7iNi6BbsPn8IfRRZwdbOGAVNXQfIGfLwhCsl/PIS8NAd5knbo7Kx4sYMc9y9GYce2XYiMP4ubJRZwcbNCnW8IKU/F3pUHkN9jOiZ1t1LNICvycT1xH37atR9RR5NwNr0AzVq5obmqcTUoQPKGj7EhKhl/PJSjNCcPknZ+cDZmGim/j4tRO7BtVyTiz95EiYUL3KwqW6Lq45oLZghofgcHNm/GnmPnkCVxQtsWJii/fQI/bdyK/fEpyGvmBg9bKRQilqXtxorVv8OosyX+3LUBWw4eR+pDKZxa22u/lbUsC6cPhCFs9yEknvsLJebadV/euRxrL5rAJT8G67YexdUSW7Rxs4CYVd8LcSN2BzaHR+L49RLYuBQjblUkioNmYmJXc2WO+vXLwcHBwcHxnKB4zxFbyq9tolHOEhKZOZNfN39qbWlBXh1cSSSuPHi29qGJCoq2DyfDyjzKwyAl5OblQbbugdTT15em7n9IJRdXU4iDmAztO1DPPn2oZwd7kvJF1HJsuPrAUNWhhpJOA+hFRwty8u1JvXxakCHfgNzfjCLFYch5xz6mlwMdSCCwp87Dx9GifbeJ5A8oMbQn2YgMyb5dNwrq4U22Ugk5DV1DF58om1ebGgczMo2j1SEOJDa0pw49+1Cfnh3IXsonUcuxFK7zIME8OvbxyxToICCBfWcaPm4R7bstZ5qSSKE9bUjElNOuWxD18LYlqcSJhq65yPROgaqPhp36UXALa2odGETd3M1JKHKil0PnUU8HO/Ls1ot8HY2Ib9iRPjipvkp5qGQ7CuplT5ate1D/fp2ppZGQrHp8RCfUByjKbu2j6R1NSWDkSD69g6mrhyWJxY408OszpDouUXVoocTNizxs3Smwpy/5Tt1PD9n0vfwabRrlTBKRGTn7dSP/1pZk4dWBXEXVh2Pq1y8HBwcHB8fzAfvJkfwebR1uQaJWL9P2G6XKJFlmNM3wNiCeqKGTI2ZwbTePThWqM1AubR9pTiKPmRT3UJ1Ej+nEHC8SGfSjdVmK0VM1ceALHGlM2J9UoszzkGKmuZHQaCBtyFEmUN6GEJKIX6A1d1UjbkHMNHIWOdCI9alUWd3jM59Qb3NDCliRok6pQY3JUe72kWQu8qCZ1Y2jxyfmkJfIgPqty1Kn1CSPNoRISPzCGlI1pYBpqzOJHEbQ+tSqltCZT3qTuWEArUhRHiOu7mMLGr39L9WJ6wVxNMNVSDxJR5qTmKs8RVmes5PGNBeR84wERQ7V5IgvILsh60h9gDPlJYdSoImEfELPK45cpm0jrEhoP4x+TFPPCOU5FD/Xl4wk3rQgWSFN1eSIL2pH86oVw6Lvcrq3dThZiFrRy9tvkNIyZJkUPcObDHgi9eSIjX45ODg4ODieD9gvaBTEIzKhAJ4T5mOMq1iZJLDvj8UzekGqXj5jDx8teofAp+rkAVMMXJmE5MilCFKtwAAVPNg62EEoz0defvVzOwKHQZg6yll9npM5egT5wKgsG1n35coUbUqQtCcCGba90N/zMVJ+/RW/Mp9UWRe80BE4Fxmlzlc/pgNXIik5EkurGweerQPshHLk5+Wr0/RQkoQ9ERmw7dUfno9TlO349ddUyLq8gI44h8iodHVGRjq2AzDxJSfV+VDGPujoLoCw/UhM6mGpXOLjW3REB2ce8h48UORQIXDHhIWT4Kk+AdGsy2zM7CdFSnQEkB+LA3H5aDtxMSa1VS+j8a0RvGguQgyv4uC+c6o0Bn6L3gipVgyLvhcgPjIBBZ4TMH+MK5SWIbBH/8Uz0KvKMNjrl4ODg4OD45+G9eRIfu82Mov5cHR21jjUkQ/z1q6wafAzI3xYWFuh+khTIcxsTfAo7iu8MfJF9PDxgIO5BTznJ6EUhAqN3V48S2tYaZyFyhdLIOQR5HIdA2zFI9y69QDld8LxRvdABAZWfoKxJLEYFdkZ6oz1IzSzhcmjOHz1xki82MMHHg7msPCcj6RSgDQbVw8Vj27h1oNy3Al/A92r2sF8gpcgsbgC2RmZ6pxMH61sYVvVRz4EzL95JmYwq5qECiFU/F3z5BehK9q0UU1aVRjCyckGuHsH8uw7yHwigIu7h/aBnMZuaO0A3NOom2+hLV+9fZffw+3MYvAdneGsUTjfvDVcqwyDvX45ODg4ODj+aVhPa3iGhpAyk5CiwkLtd/+UlKJMc17CY0ZwZrTTTCpl8tScu/D4fOXDxEoqbiNsfHcMWLAfmZZ+GDR1CX6IvoQb6wfVfmiaKceEwc0AAAS6SURBVJ/1jSq+BAYSPkT+HyNNplxC1PrIbq5VZ6yPCtwOG4/uAxZgf6Yl/AZNxZIfonHpxnoMqvOJ7trwJQaQ8EXw/zgNshrtIJLh5tpgdU6miwI+e8VUQiV48kRTM4SCgiLAyBg8qRQGvIraupMX4jGTxUCq0REeU3e1YvT3nWcIQykPVFSIQm3DQGmlYTREvxwcHBwcHP8wrMdgfvMA+LsSLsQdxb2qQbAE55OSkVP1nQ8DAwnoUS5yq1a5inH+/FXoWvSqpCInGtuicuA1exei1q/A/OnjMbi7MzLTrqGMGaAbcmdBMemqxgQ+vm2Ay9GIuKrxKkZ5OrZMG4xRHx5WJ9RDRQ6it0Uhx2s2dkWtx4r50zF+cHc4Z6bhWhnz5zobx4N2U3ygakoEtJuyBdMGj8KHh++rUxqJ7CISE3KrJz/Fp3HseA5M/buBb+cHHyfC2ZhoZGk0t+TcESRmiODp016dUgM2fec3R4C/K+hCHI5WGwZKzichWW0YTalfDg4ODg6OZw37GxRiP0yfNxCSw3Mw5M1V2H/0MMI+HINxq69ovAFajE5dfCBND8PChVsR83MMk2cspu9+AHE9NfFNHNHSipAevQE7f7mEy7/HMdeNxqvr/mD+WorSJzVuO9WDxMQE0oqriPnfdhxJKUD7KfMwwuIMlg17CaFbDiEhbg++nvISZm08g3InT/VV9cA3gWNLK1B6NDbs/AWXLv+OuLAPMfrVdVC2rvSJKl8tJDAxkaLiagz+t/0IUgraYcq8EbA4swzDXgrFlkMJiNvzNaa8NAsbz5TDydNCfV0jqcjFwXeHY9b3ETh6aDMWjhyH7+92wtvvDWHU0hUz5vaD6Mg8DFXoLuE4YsJCMWrcKqS7TsS8sS3VhdSAVd/F8Js+DwMlhzFnyJtYtf8oDjN5xoxbjStqw2CrX/mfEfh84WL87xTL57g4ODg4ODieBdQgHtG5jTOpb1sbMhJLybrtQHp/wQhyMKjcrcZQeoP2zgshr+aGJJJakUffdynsp/fIU6q5W01MfstTVdvklcgpK3YZDe9oT8YiERmYO1PAqCW0O/4z6i01pcEb7zF5VDu5xD4f0kXlNi4VTw5MIEuxLy29pEqU58bQ+13tSCoQkN3kaGVaUdpOen+YDzmaSUgoMiZbr740Y8M5pjd1UGO3mjwrlpYN70j2xiISGZiTc8AoWrI7nj7rLSXTwRtV19RCTrkx71NXOykJBHY0OVqxS6yI0na+T8N8HMlMIiSRsS159Z1BG85VtkRXHx/RpkESEgd/R5mVm7pkN+iLbmIyG7Nb+VW5W03UniYvf5uCXc1IIjUn1+6v0VeJWcrdbSoe08WtsyjE255MxGIysvGg3hM/p9iMyopUu9XEfssptVoxrPv+6NxGmtm3LdkYiUlq3ZYGvr+ARjgYqHersdEvUUnCTHIWiClodYbyOwcHBwcHxz8BT/E/9TyJ419KScRraDn6Mt468xuWttd65JqDg4ODg4OjgbBfVuPg4ODg4ODg+A/ATY44ODg4ODg4ODTgltX+H1CRk4KfzxfAqVtXuCqOkuPg4ODg4OBoNNzkiIODg4ODg4NDA25ZjYODg4ODg4OjCuD/AHVubEEGdhwTAAAAAElFTkSuQmCC;" vertex="1" parent="WIyWlLk6GJQsqaUBKTNV-1">
          <mxGeometry x="118.5" y="-100" width="583" height="207" as="geometry" />
        </mxCell>
        <mxCell id="iyiYM5U0Cmwwc9J9n_ha-1" value="Persona&#xa;&lt;&lt;abstract&gt;&gt;" style="swimlane;fontStyle=2;align=center;verticalAlign=top;childLayout=stackLayout;horizontal=1;startSize=40;horizontalStack=0;resizeParent=1;resizeLast=0;collapsible=1;marginBottom=0;rounded=0;shadow=0;strokeWidth=1;" vertex="1" parent="WIyWlLk6GJQsqaUBKTNV-1">
          <mxGeometry x="-220" y="120" width="160" height="152" as="geometry">
            <mxRectangle x="230" y="140" width="160" height="26" as="alternateBounds" />
          </mxGeometry>
        </mxCell>
        <mxCell id="iyiYM5U0Cmwwc9J9n_ha-2" value="- dni: string" style="text;align=left;verticalAlign=top;spacingLeft=4;spacingRight=4;overflow=hidden;rotatable=0;points=[[0,0.5],[1,0.5]];portConstraint=eastwest;" vertex="1" parent="iyiYM5U0Cmwwc9J9n_ha-1">
          <mxGeometry y="40" width="160" height="26" as="geometry" />
        </mxCell>
        <mxCell id="iyiYM5U0Cmwwc9J9n_ha-3" value="- nombre:string" style="text;align=left;verticalAlign=top;spacingLeft=4;spacingRight=4;overflow=hidden;rotatable=0;points=[[0,0.5],[1,0.5]];portConstraint=eastwest;rounded=0;shadow=0;html=0;" vertex="1" parent="iyiYM5U0Cmwwc9J9n_ha-1">
          <mxGeometry y="66" width="160" height="26" as="geometry" />
        </mxCell>
        <mxCell id="iyiYM5U0Cmwwc9J9n_ha-4" value="- apellido:string" style="text;align=left;verticalAlign=top;spacingLeft=4;spacingRight=4;overflow=hidden;rotatable=0;points=[[0,0.5],[1,0.5]];portConstraint=eastwest;rounded=0;shadow=0;html=0;" vertex="1" parent="iyiYM5U0Cmwwc9J9n_ha-1">
          <mxGeometry y="92" width="160" height="26" as="geometry" />
        </mxCell>
        <mxCell id="iyiYM5U0Cmwwc9J9n_ha-5" value="" style="line;html=1;strokeWidth=1;align=left;verticalAlign=middle;spacingTop=-1;spacingLeft=3;spacingRight=3;rotatable=0;labelPosition=right;points=[];portConstraint=eastwest;" vertex="1" parent="iyiYM5U0Cmwwc9J9n_ha-1">
          <mxGeometry y="118" width="160" height="8" as="geometry" />
        </mxCell>
        <mxCell id="iyiYM5U0Cmwwc9J9n_ha-6" value="+ mostrarInfo()" style="text;align=left;verticalAlign=top;spacingLeft=4;spacingRight=4;overflow=hidden;rotatable=0;points=[[0,0.5],[1,0.5]];portConstraint=eastwest;fontStyle=2" vertex="1" parent="iyiYM5U0Cmwwc9J9n_ha-1">
          <mxGeometry y="126" width="160" height="26" as="geometry" />
        </mxCell>
        <mxCell id="iyiYM5U0Cmwwc9J9n_ha-7" value="Cliente" style="swimlane;fontStyle=0;align=center;verticalAlign=top;childLayout=stackLayout;horizontal=1;startSize=26;horizontalStack=0;resizeParent=1;resizeLast=0;collapsible=1;marginBottom=0;rounded=0;shadow=0;strokeWidth=1;" vertex="1" parent="WIyWlLk6GJQsqaUBKTNV-1">
          <mxGeometry x="-320" y="360" width="160" height="90" as="geometry">
            <mxRectangle x="130" y="380" width="160" height="26" as="alternateBounds" />
          </mxGeometry>
        </mxCell>
        <mxCell id="iyiYM5U0Cmwwc9J9n_ha-10" value="" style="line;html=1;strokeWidth=1;align=left;verticalAlign=middle;spacingTop=-1;spacingLeft=3;spacingRight=3;rotatable=0;labelPosition=right;points=[];portConstraint=eastwest;" vertex="1" parent="iyiYM5U0Cmwwc9J9n_ha-7">
          <mxGeometry y="26" width="160" height="8" as="geometry" />
        </mxCell>
        <mxCell id="iyiYM5U0Cmwwc9J9n_ha-12" value="+ mostrarInfo()" style="text;align=left;verticalAlign=top;spacingLeft=4;spacingRight=4;overflow=hidden;rotatable=0;points=[[0,0.5],[1,0.5]];portConstraint=eastwest;" vertex="1" parent="iyiYM5U0Cmwwc9J9n_ha-7">
          <mxGeometry y="34" width="160" height="26" as="geometry" />
        </mxCell>
        <mxCell id="iyiYM5U0Cmwwc9J9n_ha-23" value="+ alquilarCarpa()" style="text;align=left;verticalAlign=top;spacingLeft=4;spacingRight=4;overflow=hidden;rotatable=0;points=[[0,0.5],[1,0.5]];portConstraint=eastwest;" vertex="1" parent="iyiYM5U0Cmwwc9J9n_ha-7">
          <mxGeometry y="60" width="160" height="26" as="geometry" />
        </mxCell>
        <mxCell id="iyiYM5U0Cmwwc9J9n_ha-13" value="" style="endArrow=block;endSize=10;endFill=0;shadow=0;strokeWidth=1;rounded=0;curved=0;edgeStyle=elbowEdgeStyle;elbow=vertical;" edge="1" parent="WIyWlLk6GJQsqaUBKTNV-1" source="iyiYM5U0Cmwwc9J9n_ha-7" target="iyiYM5U0Cmwwc9J9n_ha-1">
          <mxGeometry width="160" relative="1" as="geometry">
            <mxPoint x="-240" y="203" as="sourcePoint" />
            <mxPoint x="-240" y="203" as="targetPoint" />
          </mxGeometry>
        </mxCell>
        <mxCell id="iyiYM5U0Cmwwc9J9n_ha-14" value="Empleado" style="swimlane;fontStyle=0;align=center;verticalAlign=top;childLayout=stackLayout;horizontal=1;startSize=26;horizontalStack=0;resizeParent=1;resizeLast=0;collapsible=1;marginBottom=0;rounded=0;shadow=0;strokeWidth=1;" vertex="1" parent="WIyWlLk6GJQsqaUBKTNV-1">
          <mxGeometry x="-110" y="360" width="160" height="112" as="geometry">
            <mxRectangle x="340" y="380" width="170" height="26" as="alternateBounds" />
          </mxGeometry>
        </mxCell>
        <mxCell id="iyiYM5U0Cmwwc9J9n_ha-15" value="- cantAlquileres: int" style="text;align=left;verticalAlign=top;spacingLeft=4;spacingRight=4;overflow=hidden;rotatable=0;points=[[0,0.5],[1,0.5]];portConstraint=eastwest;" vertex="1" parent="iyiYM5U0Cmwwc9J9n_ha-14">
          <mxGeometry y="26" width="160" height="26" as="geometry" />
        </mxCell>
        <mxCell id="iyiYM5U0Cmwwc9J9n_ha-16" value="" style="line;html=1;strokeWidth=1;align=left;verticalAlign=middle;spacingTop=-1;spacingLeft=3;spacingRight=3;rotatable=0;labelPosition=right;points=[];portConstraint=eastwest;" vertex="1" parent="iyiYM5U0Cmwwc9J9n_ha-14">
          <mxGeometry y="52" width="160" height="8" as="geometry" />
        </mxCell>
        <mxCell id="iyiYM5U0Cmwwc9J9n_ha-24" value="+ alquilarCarpa()" style="text;align=left;verticalAlign=top;spacingLeft=4;spacingRight=4;overflow=hidden;rotatable=0;points=[[0,0.5],[1,0.5]];portConstraint=eastwest;" vertex="1" parent="iyiYM5U0Cmwwc9J9n_ha-14">
          <mxGeometry y="60" width="160" height="26" as="geometry" />
        </mxCell>
        <mxCell id="iyiYM5U0Cmwwc9J9n_ha-22" value="+ mostrarInfo()" style="text;align=left;verticalAlign=top;spacingLeft=4;spacingRight=4;overflow=hidden;rotatable=0;points=[[0,0.5],[1,0.5]];portConstraint=eastwest;" vertex="1" parent="iyiYM5U0Cmwwc9J9n_ha-14">
          <mxGeometry y="86" width="160" height="26" as="geometry" />
        </mxCell>
        <mxCell id="iyiYM5U0Cmwwc9J9n_ha-17" value="" style="endArrow=block;endSize=10;endFill=0;shadow=0;strokeWidth=1;rounded=0;curved=0;edgeStyle=elbowEdgeStyle;elbow=vertical;" edge="1" parent="WIyWlLk6GJQsqaUBKTNV-1" source="iyiYM5U0Cmwwc9J9n_ha-14" target="iyiYM5U0Cmwwc9J9n_ha-1">
          <mxGeometry width="160" relative="1" as="geometry">
            <mxPoint x="-230" y="373" as="sourcePoint" />
            <mxPoint x="-130" y="271" as="targetPoint" />
          </mxGeometry>
        </mxCell>
        <mxCell id="iyiYM5U0Cmwwc9J9n_ha-18" value="" style="endArrow=open;shadow=0;strokeWidth=1;rounded=0;curved=0;endFill=1;edgeStyle=elbowEdgeStyle;elbow=vertical;" edge="1" parent="WIyWlLk6GJQsqaUBKTNV-1" source="iyiYM5U0Cmwwc9J9n_ha-1">
          <mxGeometry x="0.5" y="41" relative="1" as="geometry">
            <mxPoint x="-60" y="192" as="sourcePoint" />
            <mxPoint x="68" y="189" as="targetPoint" />
            <mxPoint x="-40" y="32" as="offset" />
          </mxGeometry>
        </mxCell>
        <mxCell id="iyiYM5U0Cmwwc9J9n_ha-19" value="0..1" style="resizable=0;align=left;verticalAlign=bottom;labelBackgroundColor=none;fontSize=12;" connectable="0" vertex="1" parent="iyiYM5U0Cmwwc9J9n_ha-18">
          <mxGeometry x="-1" relative="1" as="geometry">
            <mxPoint y="4" as="offset" />
          </mxGeometry>
        </mxCell>
        <mxCell id="iyiYM5U0Cmwwc9J9n_ha-20" value="1" style="resizable=0;align=right;verticalAlign=bottom;labelBackgroundColor=none;fontSize=12;" connectable="0" vertex="1" parent="iyiYM5U0Cmwwc9J9n_ha-18">
          <mxGeometry x="1" relative="1" as="geometry">
            <mxPoint x="-7" y="4" as="offset" />
          </mxGeometry>
        </mxCell>
        <mxCell id="iyiYM5U0Cmwwc9J9n_ha-21" value="lives at" style="text;html=1;resizable=0;points=[];;align=center;verticalAlign=middle;labelBackgroundColor=none;rounded=0;shadow=0;strokeWidth=1;fontSize=12;" vertex="1" connectable="0" parent="iyiYM5U0Cmwwc9J9n_ha-18">
          <mxGeometry x="0.5" y="49" relative="1" as="geometry">
            <mxPoint x="-38" y="40" as="offset" />
          </mxGeometry>
        </mxCell>
      </root>
    </mxGraphModel>
  </diagram>
</mxfile>
